<?xml version="1.0" encoding="UTF-8"?>
<svg width="2452.6pt" height="745.91pt" version="1.1" viewBox="0 0 2452.6 745.91" xmlns="http://www.w3.org/2000/svg">
 <defs></defs>
 <g transform="translate(0 -321.83)">
  <g transform="translate(18.391 275.69)">
   <g transform="translate(16 328.58)">
    <path d="m17.656-13.312c0-4.7812 1.6602-8.832 4.9844-12.156 3.332-3.332 7.3906-5 12.172-5s8.832 1.668 12.156 5c3.332 3.3242 5 7.375 5 12.156s-1.668 8.8398-5 12.172c-3.3242 3.3203-7.375 4.9844-12.156 4.9844s-8.8398-1.6641-12.172-4.9844c-3.3242-3.332-4.9844-7.3906-4.9844-12.172z"/>
   </g>
   <g transform="translate(85.625 328.58)">
    <path d="m121.59-119.81c0.34375-1.707 0.30078-3.5-0.125-5.375-0.42969-1.875-1.8359-2.8945-4.2188-3.0625-4.6055-0.51953-9.4688-0.98828-14.594-1.4062-5.125-0.42578-9.1367 0.63672-12.031 3.1875-1.1992 1.0312-2.2266 2.0586-3.0781 3.0781-0.85547 1.0234-1.8828 2.5586-3.0781 4.6094-1.1875 2.043-2.7188 5.1172-4.5938 9.2188-1.875 4.0938-4.5234 9.8086-7.9375 17.141l-17.922 4.6094c-9.3867 2.5625-17.75 5.4219-25.094 8.5781-7.3359 3.1562-13.219 8.0625-17.656 14.719-3.2422 7.168-5.8047 15.148-7.6875 23.938-1.875 8.793-2.8125 17.883-2.8125 27.266 0.17578 12.461 1.2422 24.406 3.2031 35.844 1.957 11.438 4.2188 22.828 6.7812 34.172 2.5625 11.352 4.6094 23 6.1406 34.938 2.0508-7.168 3.4141-15.359 4.0938-24.578 0.6875-9.2109 0.51953-17.996-0.5-26.359l-10.75-66.812c-0.85547-5.457 0.25-9.5938 3.3125-12.406 3.0703-2.8203 6.2344-5.0859 9.4844-6.7969 5.625-3.0703 11.723-5.5039 18.297-7.2969 6.5703-1.7891 13.227-3.625 19.969-5.5 6.7383-1.875 12.844-4.1797 18.312-6.9219 8.1875-4.2578 15.051-8.6484 20.594-13.172 5.5508-4.5195 10.078-10.066 13.578-16.641 3.5-6.5703 6.2695-14.895 8.3125-24.969z"/>
   </g>
   <g transform="translate(214.91 328.58)">
    <path d="m90.625-144.39-16.641 30.734 8.7031 76.531 17.156-28.672c-1.0312-13.82-2.4453-27.047-4.2344-39.672-1.793-12.633-3.4531-25.609-4.9844-38.922z"/>
   </g>
   <g transform="translate(208 328.58)">
    <path d="m195.58-144.64c-0.85546 0-1.4492 0.0859-1.7812 0.25-4.2734 2.2188-8.1992 5.3359-11.781 9.3438-3.5859 4.0117-6.4023 8.1523-8.4531 12.422-3.5859 7.3438-6.9141 14.09-9.9844 20.234-3.0742 6.1367-5.8867 11.852-8.4375 17.141-5.293 10.75-14.684 19.883-28.172 27.391-4.7734 2.7305-9.7617 5.3359-14.969 7.8125-5.2109 2.4688-10.461 4.9023-15.75 7.2969l-5.625 2.5625-55.047 24.062c-5.4609 2.2188-11.219 4.4375-17.281 6.6562-6.0547 2.2188-11.727 4.5234-17.016 6.9062-0.85547 0.85547-1.2812 1.4531-1.2812 1.7969 0 0.51172 0.85156 0.76562 2.5625 0.76562 1.707 0 3.4102-0.082031 5.1094-0.25 1.707-0.17578 2.9062-0.26562 3.5938-0.26562 15.02-0.34375 29.781-1.0664 44.281-2.1719 14.508-1.1133 27.227-3.8008 38.156-8.0625 20.133-7.6758 36.77-19.539 49.906-35.594 4.1016-5.1133 7.6445-10.188 10.625-15.219 2.9883-5.0391 5.3359-10.207 7.0469-15.5 3.582-10.57 8.875-21.32 15.875-32.25 1.1875-1.707 2.0391-2.5625 2.5625-2.5625 0.84375 0 1.4375 0.42969 1.7812 1.2812 0.34375 0.85547 0.51562 1.4531 0.51562 1.7969l5.375 108.8 15.875-23.812-3.8438-118.78c0-1.3633-1.2812-2.0469-3.8438-2.0469z"/>
   </g>
   <g transform="translate(395.39 328.58)">
    <path d="m95.75-50.688c0.16406 0.34375 0.25 0.85547 0.25 1.5312 0 0.6875-0.51172 1.2031-1.5312 1.5469l-36.359 7.1562c1.875-4.4375 3.75-8.6602 5.625-12.672 1.8828-4.0078 4.5352-7.5508 7.9531-10.625 2.3828-2.0391 4.7695-3.0625 7.1562-3.0625 2.5625 0 5.0352 0.9375 7.4219 2.8125 3.7578 2.9062 6.9219 7.3438 9.4844 13.312zm-90.375 18.938-5.375 31.75c1.0195-0.16406 1.957-0.37891 2.8125-0.64062 0.85156-0.25781 1.7891-0.47266 2.8125-0.64062 0.34375 0 0.59766-0.039062 0.76562-0.125 0.17578-0.082031 0.34766-0.125 0.51562-0.125 2.9062-0.85156 5.8945-1.5352 8.9688-2.0469 3.0703-0.51953 6.0547-1.0352 8.9531-1.5469v-0.25c2.7266-0.50781 5.2852-1.0195 7.6719-1.5312 2.3945-0.51953 4.6172-0.94531 6.6719-1.2812-0.17969 1.1875-0.5625 2.7656-1.1562 4.7344-0.59375 1.9609-0.89062 3.6172-0.89062 4.9844 0 1.0312 0.50781 1.5469 1.5312 1.5469 1.707 0 2.9883-0.89844 3.8438-2.6875 0.85156-1.7891 1.5352-3.7539 2.0469-5.8906 0.50781-2.1328 1.0195-3.7109 1.5312-4.7344 13.477-3.4141 25.977-6.3594 37.5-8.8281 11.52-2.4766 23.598-5.6797 36.234-9.6094l16.375-35.328c-2.2188 1.1992-4.4375 1.7969-6.6562 1.7969-3.0742 0-5.8047-1.2812-8.1875-3.8438-0.85547-3.2383-1.9219-6.3047-3.2031-9.2031-1.2812-2.9062-2.6055-5.7266-3.9688-8.4688-1.7109-3.4062-4.2734-6.5156-7.6875-9.3281-3.4062-2.8203-7.5-4.2344-12.281-4.2344-3.0742 0-6.1484 1.0273-9.2188 3.0781-5.1172 3.5859-9.7656 8.4062-13.953 14.469-4.1797 6.0547-7.8438 12.578-11 19.578s-5.9297 13.742-8.3125 20.219c-7.6875 1.3672-15.371 2.7305-23.047 4.0938-7.6797 1.3672-15.359 2.7305-23.047 4.0938z"/>
   </g>
   <g transform="translate(611.19 145.8)">
    <path d="m14.844-38.906v0.125-0.125c-1.1875 0.51172-2.3398 1.0234-3.4531 1.5312-1.1055 0.51172-2.1719 1.1953-3.2031 2.0469-1.7109 1.1992-4.0586 3.418-7.0469 6.6562-2.9766 3.2422-5.7891 6.8242-8.4375 10.75-2.6445 3.9297-4.2656 7.6016-4.8594 11.016-0.60156 3.4062 0.71875 6.0547 3.9688 7.9375 1.3672 0.67578 2.9844 1.4414 4.8594 2.2969 1.875 0.85156 3.4922 1.707 4.8594 2.5625 0.85156 0.50781 0.9375 1.0195 0.25 1.5312-0.67969 0.50781-1.1875 0.9375-1.5312 1.2812-3.75 2.0508-7.6719 3.9258-11.766 5.625-4.0938 1.707-8.1016 3.5039-12.031 5.3906 4.6055-0.85547 9.125-1.668 13.562-2.4375 4.4375-0.77344 8.6211-2.5234 12.547-5.25 4.7812-3.418 8.1094-7.4297 9.9844-12.031s1.0195-8.0156-2.5625-10.234c-1.875-1.3633-4.1367-2.3438-6.7812-2.9375-2.6484-0.60156-4.7383-1.7578-6.2812-3.4688 1.8867-2.7266 4.1914-4.6445 6.9219-5.75 2.7266-1.1133 4.6016-2.7812 5.625-5z"/>
   </g>
   <g transform="translate(538.23 328.58)">
    <path d="m90.625-144.39-16.641 30.734 8.7031 76.531 17.156-28.672c-1.0312-13.82-2.4453-27.047-4.2344-39.672-1.793-12.633-3.4531-25.609-4.9844-38.922z"/>
   </g>
   <g transform="translate(531.33 328.58)">
    <path d="m160.52-153.59c-2.2188 5.293-4.6523 10.453-7.2969 15.484-2.6484 5.0312-5.168 10.195-7.5625 15.484 1.375 7.168 2.6133 14.547 3.7188 22.141 1.1133 7.5938 2.1797 15.148 3.2031 22.656 0 1.0312-1.1992 2.5703-3.5938 4.6094-3.75 3.2422-7.7188 6.2734-11.906 9.0938-4.1797 2.8125-8.4844 5.418-12.922 7.8125-5.4609 2.8984-10.965 5.5859-16.516 8.0625-5.543 2.4688-11.215 5.1562-17.016 8.0625l-55.047 24.062c-5.4609 2.2188-11.219 4.4375-17.281 6.6562-6.0547 2.2188-11.727 4.5234-17.016 6.9062-0.85547 0.85547-1.2812 1.4531-1.2812 1.7969 0 0.51172 0.85156 0.76562 2.5625 0.76562 1.707 0 3.4102-0.082031 5.1094-0.25 1.707-0.17578 2.9062-0.26562 3.5938-0.26562 15.02-0.34375 29.781-1.0664 44.281-2.1719 14.508-1.1133 27.227-3.8008 38.156-8.0625 13.477-5.125 25.766-12.461 36.859-22.016 11.094-9.5625 20.051-21.164 26.875-34.812 6.832-13.656 10.504-29.102 11.016-46.344-0.85546-7-2.0117-13.781-3.4688-20.344-1.4492-6.5703-2.9375-13.016-4.4688-19.328z"/>
   </g>
   <g transform="translate(703.88 328.58)">
    <path d="m18.688-145.66 7.1719 108.8 18.938-30.219-7.1719-108.8z"/>
   </g>
   <g transform="translate(767.36 328.58)"></g>
   <g transform="translate(804.73 328.58)">
    <path d="m96-35.578c1.875-1.0312 2.8945-2.9922 3.0625-5.8906 0.17578-2.9062-1.0156-4.5312-3.5781-4.875-1.5312-0.16406-2.9805 0.52344-4.3438 2.0625v-0.26562c-3.25 3.5859-7.1797 6.0586-11.781 7.4219-12.293 3.25-25.094 5.9844-38.406 8.2031s-25.773 5.375-37.375 9.4688c-2.3867 1.0234-2.8984 2.1328-1.5312 3.3281 2.0508 1.7109 8.707 4.2656 19.969 7.6719 5.6328 1.7109 10.195 3.0781 13.688 4.1094 3.5 1.0234 5.9375 1.7031 7.3125 2.0469 10.914 2.2188 19.445 2.0898 25.594-0.39062 6.1445-2.4766 11.18-7.4688 15.109-14.969 1.6953-3.4141 3.4844-6.7031 5.3594-9.8594 1.8828-3.1562 4.1914-5.8438 6.9219-8.0625z"/>
   </g>
   <g transform="translate(936.31 342.16)">
    <path d="m16.641 9.4688 15.359-30.453c-8.1875 1.5312-16.383 3.0703-24.578 4.6094-8.1875 1.5312-16.379 3.0625-24.578 4.5938l-15.359 30.469c8.1992-1.5312 16.398-3.0703 24.594-4.6094 8.1875-1.5312 16.375-3.0703 24.562-4.6094z"/>
   </g>
   <g transform="translate(885.62 301.7)">
    <path d="m78.594-7.9375 0.51562-31.484c-3.7617 0.51172-6.9648 0.08594-9.6094-1.2812-2.6484-1.3633-3.7148-4.0078-3.2031-7.9375 0-1.875-1.1094-2.9375-3.3281-3.1875-2.2188-0.25781-5.0391-0.09375-8.4531 0.5-3.4062 0.59375-6.9453 1.3672-10.609 2.3125-3.668 0.9375-6.8711 1.8281-9.6094 2.6719-13.305 4.1055-21.324 8.8047-24.062 14.094-1.5312 2.8984-2.8125 6.0117-3.8438 9.3438-1.0234 3.3242-2.2148 6.5234-3.5781 9.5938-0.16797 0.16797-0.67969 0.98047-1.5312 2.4375-0.85547 1.4492-1.1992 2.3438-1.0312 2.6875-0.85156 3.5859-0.21484 6.1016 1.9219 7.5469 2.1328 1.4453 4.3125 0.55469 6.5312-2.6875 2.9062-2.9062 5.9766-5.2969 9.2188-7.1719 2.7266-1.0195 5.7969-2 9.2031-2.9375 3.4141-0.9375 7.0039-1.832 10.766-2.6875 7.5078-1.707 11.176-1.2812 11 1.2812-1.1875 7.8438 1.7109 11.258 8.7031 10.234 3.4141-0.50781 6.9141-1.0195 10.5-1.5312 3.582-0.50781 7.082-1.1094 10.5-1.7969z"/>
   </g>
   <g transform="translate(1028.5 137.36)">
    <path d="m20.219-3.3281-18.172-16.891c-3.4141 4.2617-6.9141 8.6094-10.5 13.047-3.582 4.4375-7.0781 8.875-10.484 13.312l18.172 16.906c3.582-4.4375 7.125-8.8359 10.625-13.188 3.5-4.3555 6.9531-8.75 10.359-13.188z"/>
   </g>
   <g transform="translate(953.2 296.08)">
    <path d="m70.141-81.156c4.6133 0.34375 9.1797 0.98438 13.703 1.9219 4.5195 0.9375 8.9141 2.0898 13.188 3.4531l10.75-33.281c-4.1055-1.0195-8.0312-1.957-11.781-2.8125-3.75-0.85156-8.0156-1.3633-12.797-1.5312h-0.26562c-5.625 0-10.574 2.6484-14.844 7.9375-4.2617 5.1172-7.8438 11.684-10.75 19.703-2.9062 8.0234-4.3594 16.559-4.3594 25.609 0 7.5117 1.5352 13.57 4.6094 18.172-7.8438 2.2188-15.867 3.8867-24.062 5-8.1875 1.1055-17.402 2.3398-27.641 3.7031l-5.8906 33.281c9.0391-1.875 18.254-3.8789 27.641-6.0156 9.3945-2.1328 19.039-4.3125 28.938-6.5312 19.789-4.6016 38.816-11.77 57.078-21.5 0.17578-0.34375 0.47656-0.98438 0.90625-1.9219 0.42578-0.9375 1.0664-2.2578 1.9219-3.9688 1.5312-3.0703 3.1484-6.5664 4.8594-10.484 1.707-3.9258 3.0703-7.5156 4.0938-10.766 0.50781-1.3633 0.76563-2.3828 0.76563-3.0625 0-0.51953-0.16797-0.78125-0.5-0.78125h-0.14063-0.375c-3.0742 1.1992-6.0625 2.4805-8.9688 3.8438-2.8984 1.3672-5.7969 2.7305-8.7031 4.0938-5.625 2.9062-12.367 4.4453-20.219 4.6094-3.9297-3.4062-7.5117-7.457-10.75-12.156-3.2422-4.6953-5.375-10.203-6.4062-16.516z"/>
   </g>
   <g transform="translate(1086.3 328.58)"></g>
   <g transform="translate(1123.7 328.58)">
    <path d="m96-35.578c1.875-1.0312 2.8945-2.9922 3.0625-5.8906 0.17578-2.9062-1.0156-4.5312-3.5781-4.875-1.5312-0.16406-2.9805 0.52344-4.3438 2.0625v-0.26562c-3.25 3.5859-7.1797 6.0586-11.781 7.4219-12.293 3.25-25.094 5.9844-38.406 8.2031s-25.773 5.375-37.375 9.4688c-2.3867 1.0234-2.8984 2.1328-1.5312 3.3281 2.0508 1.7109 8.707 4.2656 19.969 7.6719 5.6328 1.7109 10.195 3.0781 13.688 4.1094 3.5 1.0234 5.9375 1.7031 7.3125 2.0469 10.914 2.2188 19.445 2.0898 25.594-0.39062 6.1445-2.4766 11.18-7.4688 15.109-14.969 1.6953-3.4141 3.4844-6.7031 5.3594-9.8594 1.8828-3.1562 4.1914-5.8438 6.9219-8.0625z"/>
   </g>
   <g transform="translate(1204.6 301.7)">
    <path d="m54.781-140.8 5.6406 82.172 18.938-30.203-5.625-82.187zm69.641 33.531c-4.7812 0-9.2656 0.89844-13.453 2.6875-4.1797 1.793-7.375 3.7148-9.5938 5.7656-8.1875 7.6797-16.125 15.574-23.812 23.688-7.6797 8.1055-15.184 16.422-22.516 24.953v0.25l-0.51562 0.51562c-4.4375 0.67969-8.8359 1.6562-13.188 2.9375-4.3555 1.2812-8.5781 2.8594-12.672 4.7344-5.6367 2.5625-10.543 6.2773-14.719 11.141-4.1797 4.8672-7.6367 10.371-10.375 16.516v0.25c-2.5547 3.0742-3.8281 5.8086-3.8281 8.2031 0 1.1875 0.42188 2.4648 1.2656 3.8281 0.85156 1.3672 1.8789 2.0469 3.0781 2.0469 1.1953 0 2.7344-1.1914 4.6094-3.5781 3.582-3.582 7.8047-6.5234 12.672-8.8281 4.8633-2.3008 9.9414-3.9688 15.234-5 8.1875-1.5312 16.504-3.5781 24.953-6.1406 8.4453-2.5625 17.023-5.4609 25.734-8.7031 17.57-6.6562 31.313-16.641 41.219-29.953 1.707-2.2188 3.3281-4.5195 4.8594-6.9062 1.5391-2.3945 3.1602-4.957 4.8594-7.6875 2.7383-4.6016 4.1094-8.9531 4.1094-13.047 0-0.34375-0.0469-0.72656-0.14063-1.1562-0.0859-0.42578-0.125-0.8125-0.125-1.1562v-0.25 0.25c-0.34375-4.0938-2.2656-7.6758-5.7656-10.75-3.4922-3.0703-7.4531-4.6094-11.891-4.6094zm-7.6875 38.906c0 1.0312-0.60157 1.8867-1.7969 2.5625-7.3359 3.5859-15.227 6.4023-23.672 8.4531-8.4492 2.0547-17.195 4.0156-26.234 5.8906 4.6016-4.7812 9.25-9.5156 13.938-14.203 4.6953-4.6953 10.031-8.6641 16-11.906 1.8828-1.1953 4.1914-1.7969 6.9219-1.7969 3.75 0 7.1602 1.0273 10.234 3.0781 3.0703 2.043 4.6094 4.6836 4.6094 7.9219z"/>
   </g>
   <g transform="translate(1232 346.5)">
    <path d="m20.219-0.76562c8.1953 1.0195 17.457 1.0625 27.781 0.125 10.32-0.9375 20.562-2.3828 30.719-4.3438 10.156-1.9688 18.898-4.0625 26.234-6.2812 7.3438-2.0508 14.938-4.5234 22.781-7.4219 7.8516-2.9062 15.109-6.3164 21.766-10.234 6.6562-3.9258 11.945-8.2812 15.875-13.062 3.2383-3.9258 5.7109-7.1641 7.4219-9.7188 1.707-2.5625 3.1133-5.5039 4.2188-8.8281 1.1133-3.332 2.2695-8.1602 3.4688-14.484 1.3633-6.4766-1.9648-9.8906-9.9844-10.234-8.1992-0.34375-13.746 0-16.641 1.0312-4.6172 0-8.9688 4.7773-13.062 14.328-2.043 4.7812-3.875 8.9648-5.5 12.547-1.625 3.5859-3.0312 6.5703-4.2188 8.9531-5.6367 1.7109-11.527 3.3359-17.672 4.875-6.1484 1.5312-12.203 2.8984-18.172 4.0938-6.3125 1.3672-12.328 2.4336-18.047 3.2031-5.7188 0.76172-11.141 1.3125-16.266 1.6562-8.3555 0.51172-16.121 0-23.297-1.5312-7.168-1.5391-12.199-4.957-15.094-10.25-4.7812-8.0195-2.9062-20.477 5.625-37.375 0.50781-1.0195 0.37891-1.6133-0.39062-1.7812-0.76172-0.17578-1.3125-0.0039-1.6562 0.51562-2.043 2.8984-4.3867 6.5625-7.0312 11-2.6484 4.4375-5.168 9.0078-7.5625 13.703-2.3867 4.6875-4.4336 9.0781-6.1406 13.172-1.875 5.293-3.4961 11.184-4.8594 17.672-1.3633 6.4805-0.67969 12.453 2.0469 17.922 3.0703 5.8047 8.957 9.3867 17.656 10.75z"/>
   </g>
   <g transform="translate(1441.4 147.34)">
    <path d="m16.641 9.4688 15.359-30.453c-8.1875 1.5312-16.383 3.0703-24.578 4.6094-8.1875 1.5312-16.379 3.0625-24.578 4.5938l-15.359 30.469c8.1992-1.5312 16.398-3.0703 24.594-4.6094 8.1875-1.5312 16.375-3.0703 24.562-4.6094z"/>
   </g>
   <g transform="translate(1368.2 286.86)">
    <path d="m73.734-38.141c1.0195-2.7266 2.2969-6.0156 3.8281-9.8594 1.5391-3.8438 3.4219-8.1484 5.6406-12.922 4.4375-9.7266 4.0078-16.129-1.2812-19.203-8.5312-4.9453-16.809-5.2031-24.828-0.76562-8.3672 4.6055-15.965 11.133-22.797 19.578-6.8242 8.4492-12.625 17.109-17.406 25.984-2.5547 4.7812-4.7734 9.0547-6.6562 12.812-1.875 3.75-3.4961 6.9922-4.8594 9.7188-1.0234 2.2188-1.875 4.1406-2.5625 5.7656-0.67969 1.6172-1.1875 2.8516-1.5312 3.7031-0.51172 1.875-0.9375 2.9844-1.2812 3.3281h4.6094c1.875-2.9062 3.9609-6.1016 6.2656-9.5938 2.3125-3.5 4.9141-7.3828 7.8125-11.656 2.9062-4.2578 5.9766-8.1406 9.2188-11.641 3.2383-3.5 6.4766-6.7031 9.7188-9.6094 6.4883-5.8008 13.062-8.957 19.719-9.4688 6.3125-0.50781 11.773 4.1016 16.391 13.828z"/>
   </g>
   <g transform="translate(1462.1 328.58)"></g>
   <g transform="translate(1499.5 328.58)">
    <path d="m90.625-144.39-16.641 30.734 8.7031 76.531 17.156-28.672c-1.0312-13.82-2.4453-27.047-4.2344-39.672-1.793-12.633-3.4531-25.609-4.9844-38.922z"/>
   </g>
   <g transform="translate(1492.6 328.58)">
    <path d="m160.52-153.59c-2.2188 5.293-4.6523 10.453-7.2969 15.484-2.6484 5.0312-5.168 10.195-7.5625 15.484 1.375 7.168 2.6133 14.547 3.7188 22.141 1.1133 7.5938 2.1797 15.148 3.2031 22.656 0 1.0312-1.1992 2.5703-3.5938 4.6094-3.75 3.2422-7.7188 6.2734-11.906 9.0938-4.1797 2.8125-8.4844 5.418-12.922 7.8125-5.4609 2.8984-10.965 5.5859-16.516 8.0625-5.543 2.4688-11.215 5.1562-17.016 8.0625l-55.047 24.062c-5.4609 2.2188-11.219 4.4375-17.281 6.6562-6.0547 2.2188-11.727 4.5234-17.016 6.9062-0.85547 0.85547-1.2812 1.4531-1.2812 1.7969 0 0.51172 0.85156 0.76562 2.5625 0.76562 1.707 0 3.4102-0.082031 5.1094-0.25 1.707-0.17578 2.9062-0.26562 3.5938-0.26562 15.02-0.34375 29.781-1.0664 44.281-2.1719 14.508-1.1133 27.227-3.8008 38.156-8.0625 13.477-5.125 25.766-12.461 36.859-22.016 11.094-9.5625 20.051-21.164 26.875-34.812 6.832-13.656 10.504-29.102 11.016-46.344-0.85546-7-2.0117-13.781-3.4688-20.344-1.4492-6.5703-2.9375-13.016-4.4688-19.328z"/>
   </g>
   <g transform="translate(1665.1 328.58)"></g>
   <g transform="translate(1702.5 328.58)">
    <path d="m21.5 0c4.9453 0 10.066-0.37891 15.359-1.1406 5.2891-0.76953 9.5547-1.9258 12.797-3.4688 4.4375-2.0508 8.5781-5.2891 12.422-9.7188 3.8438-4.4375 7.6406-9.3008 11.391-14.594 3.582-4.957 6.7812-9.4414 9.5938-13.453 2.8203-4.0078 4.0625-7.207 3.7188-9.5938-0.34375-3.2383-1.5859-5.625-3.7188-7.1562-2.125-1.5391-4.6406-2.7812-7.5469-3.7188-2.8984-0.9375-5.7148-2.0859-8.4531-3.4531-2.7305-1.375-4.9453-3.5078-6.6406-6.4062 3.582-3.0703 7.0781-5.332 10.484-6.7812 3.4141-1.4453 7.5156-2.7695 12.297-3.9688 1.0195-1.875 2.8125-4.4297 5.375-7.6719 2.5625-3.25 4.4375-5.9844 5.625-8.2031 1.3633-2.2188 2.5156-4.4766 3.4531-6.7813 0.94531-2.3008 0.47656-3.4531-1.4062-3.4531-1.6992 0-4.3867 0.98047-8.0625 2.9375-3.668 1.9609-6.4375 3.625-8.3125 5-5.8047 4.0938-11.438 8.8281-16.906 14.203-5.4609 5.375-10.234 10.883-14.328 16.516-4.0938 5.625-6.9961 10.828-8.7031 15.609-1.7109 4.7812-1.7109 8.6211 0 11.516 1.3633 2.3984 3.707 4.7031 7.0312 6.9219 3.332 2.2188 7.2188 3.8398 11.656 4.8594 2.2188 0.51172 3.707 1.3672 4.4688 2.5625 0.76953 1.1992-0.38281 2.5625-3.4531 4.0938-4.0938 2.0547-8.8711 4.1875-14.328 6.4062-5.4609 2.2188-10.836 4.5234-16.125 6.9062-5.293 2.3867-9.8203 4.7773-13.578 7.1719-3.2422 2.043-4.0078 3.3672-2.2969 3.9688 1.707 0.59375 4.4375 0.89062 8.1875 0.89062z"/>
   </g>
   <g transform="translate(1812.9 328.58)">
    <path d="m18.688-145.92 9.9844 145.92 15.875-30.203-9.7344-145.67z"/>
   </g>
   <g transform="translate(1841.5 328.58)">
    <path d="m50.172-42.234c-13.992 4.2617-28.84 7.3281-44.547 9.2031l-5.625 33.031c11.438-2.7266 22.145-5.375 32.125-7.9375 9.9883-2.5625 19.676-6.2266 29.062-11 10.582-5.2891 18.348-10.926 23.297-16.906 3.2383-3.9258 5.7109-7.1641 7.4219-9.7188 1.707-2.5625 3.1133-5.5469 4.2188-8.9531 1.1133-3.4141 2.2656-8.2852 3.4531-14.609 1.3633-6.4766-1.9648-9.8047-9.9844-9.9844-8.1875-0.33203-13.734 0.01172-16.641 1.0312-4.4375 0-8.7891 4.6953-13.047 14.078-2.2188 4.7812-4.1016 9.0078-5.6406 12.672-1.5312 3.668-2.8984 6.6992-4.0938 9.0938z"/>
   </g>
   <g transform="translate(1895.3 278.16)">
    <path d="m66.812-48.125 3.3281 5.625c2.3945 4.0938 6.4922 6.2305 12.297 6.4062 4.9453 0.51172 10.492-1.0234 16.641-4.6094 0.33203-0.16406 0.92578-0.50391 1.7813-1.0156 0.85156-0.51953 1.625-0.78125 2.3125-0.78125 0.34375 1.1992 1.1094 1.7969 2.2969 1.7969 2.5625 0 5.6328-0.72266 9.2188-2.1719 3.582-1.457 6.9102-3.207 9.9844-5.25 3.0703-2.0508 5.1172-3.7578 6.1406-5.125 4.0938-5.1133 7.1172-11.68 9.0781-19.703 1.9688-8.0195 3.3789-16.301 4.2344-24.844-0.51172-2.0391-0.9375-1.6133-1.2812 1.2812-3.0742 11.605-10.922 18.605-23.547 21 1.1953-4.7812 1.707-9.3047 1.5312-13.578 0-1.5312-0.42969-1.6133-1.2812-0.25-1.3672 4.9492-4.1797 9.7266-8.4375 14.328-1.543 1.7109-3.8516 3.293-6.9219 4.75-3.0742 1.4492-6.0156 2.1328-8.8281 2.0469-2.8125-0.09375-4.9023-1.5859-6.2656-4.4844-1.3672-3.0703-3.7578-5.5469-7.1719-7.4219-5.293-3.0703-10.414-4.2656-15.359-3.5781-4.9492 0.67969-9.4766 2.3398-13.578 4.9844-4.0938 2.6484-7.5898 5.418-10.484 8.3125-7.3438 7.3438-14.262 16.309-20.75 26.891-6.4805 10.586-11.938 20.824-16.375 30.719-1.0234 2.2188-1.875 4.1406-2.5625 5.7656-0.67969 1.6172-1.1875 2.8516-1.5312 3.7031-0.51172 1.875-0.9375 2.9844-1.2812 3.3281h4.6094c3.4141-5.2891 7.2109-10.961 11.391-17.016 4.1758-6.0625 8.6562-11.781 13.438-17.156s9.5625-9.6875 14.344-12.938c9.207-6.1328 16.883-6.4727 23.031-1.0156z"/>
   </g>
   <g transform="translate(2046.3 328.58)"></g>
   <g transform="translate(2145.7 377.98)">
    <path d="m20.219-3.3281-18.172-16.891c-3.4141 4.2617-6.9141 8.6094-10.5 13.047-3.582 4.4375-7.0781 8.875-10.484 13.312l18.172 16.906c3.582-4.4375 7.125-8.8359 10.625-13.188 3.5-4.3555 6.9531-8.75 10.359-13.188z"/>
   </g>
   <g transform="translate(2083.7 328.58)">
    <path d="m125.19-11.016c-0.17969 0.6875-0.30859 1.2891-0.39062 1.7969-0.0859 0.51172-0.125 0.9375-0.125 1.2812 0 0.85547 0.2539 1.2812 0.76562 1.2812h0.26563c6.3125-6.6562 11.43-14.504 15.359-23.547 1.875-4.4375 3.6172-8.6172 5.2344-12.547 1.625-3.9258 2.7812-7.2539 3.4688-9.9844 0-0.16406 0.0391-0.75781 0.125-1.7812 0.082-1.0312 0.0352-1.8828-0.14062-2.5625-0.16797-0.6875-0.50781-0.42969-1.0156 0.76562-1.1992 2.5547-2.7773 4.9844-4.7344 7.2969-1.9609 2.3047-4.1367 4.1367-6.5312 5.5-4.4375 2.2188-9.7734 4.0547-16 5.5-6.2305 1.4492-12.59 2.6016-19.078 3.4531-6.4805 0.85547-12.281 1.4141-17.406 1.6719-5.1172 0.25-8.8672 0.375-11.25 0.375-14.855 0-26.336-1.1914-34.438-3.5781-8.1055-2.3945-13.695-5.8516-16.766-10.375-3.0742-4.5195-4.5273-9.7656-4.3594-15.734 0.34375-5.2891 1.3203-10.453 2.9375-15.484 1.625-5.0391 3.9727-10.461 7.0469-16.266 1.1953-2.8945 0.98438-4.6875-0.64062-5.375-1.6172-0.6875-3.1055 0.07813-4.4688 2.2969-3.0742 4.9609-6.1484 10.297-9.2188 16.016-3.0742 5.7109-6.0625 11.809-8.9688 18.297-3.2422 7.5117-4.8594 14.852-4.8594 22.016 0 8.1875 1.7891 14.887 5.375 20.094 3.582 5.2109 8.1445 9.2188 13.688 12.031 5.5508 2.8125 11.27 4.8203 17.156 6.0156 5.8945 1.1992 11.27 1.9297 16.125 2.1875 4.8633 0.25 8.3203 0.375 10.375 0.375 7.1641 0 14.629-0.50781 22.391-1.5312 7.7695-1.0312 15.195-2.3945 22.281-4.0938 7.082-1.707 13.016-3.5039 17.797-5.3906z"/>
   </g>
   <g transform="translate(2209.7 321.94)">
    <path d="m100.61-60.922c-23.043 13.312-54.277 22.527-93.703 27.641v0.25h-0.76562l-6.1406 33.031c0.50781-0.16406 1.2734-0.37891 2.2969-0.64062 1.0312-0.25781 2.2266-0.47266 3.5938-0.64062 54.102-13.82 87.383-30.207 99.844-49.156 3.75-5.8008 7.0703-11.258 9.9688-16.375 2.9062-5.125 5.8125-11.098 8.7188-17.922 2.0391-4.6016 1.4414-8.1016-1.7969-10.5-4.4375-3.4141-12.633-6.0625-24.578-7.9375-11.773-1.875-20.391-2.6406-25.859-2.2969-2.2188 4.7812-4.5234 9.5234-6.9062 14.219-2.3867 4.6875-4.6875 9.5078-6.9062 14.453-1.1992 3.0742-1.1172 4.6953 0.25 4.8594 3.4141 0.85547 8.8789 1.3672 16.391 1.5312 3.0625 0 6.7266 0.17188 11 0.51562 4.2695 0.34375 8.1094 1.0312 11.516 2.0625 3.4141 1.0234 5.3789 2.5547 5.8906 4.5938-0.51172 0.85547-1.4492 1.625-2.8125 2.3125z"/>
   </g>
   <g transform="translate(2279.8 227.22)">
    <path d="m23.297-19.719c-2.7305 1.7109-6.1875 3.375-10.375 5-4.1797 1.625-7.8867 2.9492-11.125 3.9688l-1.7969 4.3438 25.094 6.4062c6.9883-9.3828 11.766-19.113 14.328-29.188 1.1953-4.4375 2.0938-8.957 2.6875-13.562 0.60156-4.6016 0.73438-9.2969 0.39062-14.078l-4.3594-74.25-18.938 29.953c0.85156 12.461 1.707 25.859 2.5625 40.203 0.85156 14.336 1.3633 28.07 1.5312 41.203z"/>
   </g>
   <g transform="translate(2337.4 328.58)">
    <path d="m18.688-145.66 7.1719 108.8 18.938-30.219-7.1719-108.8z"/>
   </g>
  </g>
  <g transform="translate(16.344 600.33)">
   <g transform="translate(16 328.58)">
    <path d="m17.656-14.344c0-4.9453 1.7891-9.2109 5.375-12.797 3.5938-3.582 7.8633-5.375 12.812-5.375 4.9453 0 9.1719 1.793 12.672 5.375 3.5 3.5859 5.25 7.8516 5.25 12.797 0 4.7812-1.75 8.9648-5.25 12.547s-7.7266 5.375-12.672 5.375c-4.9492 0-9.2188-1.793-12.812-5.375-3.5859-3.582-5.375-7.7656-5.375-12.547z"/>
   </g>
   <g transform="translate(87.688 328.58)">
    <path d="m121.59-117.25c0.85156-4.9453-0.0859-8.4414-2.8125-10.484-2.7305-2.0508-6.9141-3.0781-12.547-3.0781h-1.4062-1.4062c-4.6055 0-8.3594 0.42969-11.266 1.2812-3.0742 0.33594-5.7188 1.6992-7.9375 4.0938-1.1875 1.1992-2.3828 2.7344-3.5781 4.6094-1.1992 1.875-2.3906 4.0938-3.5781 6.6562l-8.7031 19.453c-4.9609 1.5312-10 2.9844-15.125 4.3594-5.1172 1.3672-10.059 2.8984-14.828 4.5938-6.6562 2.2188-12.375 4.6523-17.156 7.2969-4.7812 2.6484-9.0469 6.7891-12.797 12.422-2.9062 6.8242-5.3867 14.59-7.4375 23.297-2.0391 8.6992-3.0625 17.828-3.0625 27.391 0.16797 9.5547 0.80859 18.594 1.9219 27.125 1.1016 8.5391 2.5977 16.82 4.4844 24.844 1.875 7.8516 3.6172 15.914 5.2344 24.188 1.625 8.2812 3.0352 16.77 4.2344 25.469 0.16406 1.707 1.0547 2.5625 2.6719 2.5625 1.625 0 2.6953-0.68359 3.2188-2.0469 1.5312-5.293 2.6328-10.625 3.3125-16 0.6875-5.375 1.0312-10.965 1.0312-16.766 0-2.9062-0.08984-5.8555-0.26562-8.8438-0.16797-2.9805-0.41797-5.8359-0.75-8.5625l-10.25-64.766c-0.16797-0.50781-0.25-1.0234-0.25-1.5469v-0.875-0.65625c0-2.5625 0.76562-4.6094 2.2969-6.1406 4.4375-3.9258 9.6875-7.1641 15.75-9.7188 6.0625-2.5625 12.504-4.5234 19.328-5.8906 11.258-2.3945 21.879-6.1914 31.859-11.391 9.9883-5.207 18.227-11.395 24.719-18.562 3.9258-4.4375 7.0391-9.5156 9.3438-15.234 2.3008-5.7188 4.2188-12.078 5.75-19.078z"/>
   </g>
   <g transform="translate(216.97 328.58)">
    <path d="m84.219-38.656 16.906-28.672c-0.6875-8.1875-1.5-16.586-2.4375-25.203-0.9375-8.625-2.0078-16.773-3.2031-24.453-0.67969-4.6133-1.2773-9.1406-1.7969-13.578-0.51172-4.4375-1.1055-8.957-1.7812-13.562-0.17969-1.3633-0.99219-2.2578-2.4375-2.6875-1.4492-0.42578-2.5156 0.043-3.2031 1.4062l-16.641 30.719 8.7188 75c0.16406 1.543 1.0156 2.4023 2.5469 2.5781 1.5391 0.16797 2.6484-0.34766 3.3281-1.5469z"/>
   </g>
   <g transform="translate(210.06 328.58)">
    <path d="m173.83-105.98 5.1094 103.17c0.17578 1.5312 0.94531 2.4688 2.3125 2.8125 1.3633 0.34375 2.4727-0.082031 3.3281-1.2812l15.875-23.812-3.8438-115.97c-0.34375-3.2383-2.3086-4.8594-5.8906-4.8594h-0.51563-0.5c-1.0312 0-2.0586 0.25781-3.0781 0.76562-4.6055 2.2188-8.6172 5.3359-12.031 9.3438-3.418 4.0117-6.3203 8.3242-8.7031 12.938l-17.922 36.344c-2.7305 5.4609-6.3125 10.199-10.75 14.219-4.4375 4.0117-9.4766 7.6367-15.109 10.875-4.6055 2.7305-9.4297 5.2461-14.469 7.5469-5.0312 2.3047-10.105 4.5625-15.219 6.7812l-5.125 2.5625-53.25 23.297c-5.293 2.2188-10.883 4.3555-16.766 6.4062-5.8867 2.043-11.391 4.2617-16.516 6.6562-1.875 1.1875-2.8125 2.6367-2.8125 4.3438 0 2.5625 1.793 3.8438 5.375 3.8438h0.375 0.39062 0.51562 0.51562l6.9062-0.51562c7.3438-0.16406 14.508-0.42188 21.5-0.76562 7-0.34375 13.91-0.76953 20.734-1.2812 7.1758-0.67578 13.961-1.6562 20.359-2.9375 6.3945-1.2812 12.328-3.0312 17.797-5.25 15.188-5.9766 28.879-14.469 41.078-25.469 12.207-11.008 20.957-24.453 26.25-40.328 3.4062-10.238 8.0977-20.051 14.078-29.438z"/>
   </g>
   <g transform="translate(394.38 325.77)">
    <path d="m77.312-64.516c1.707 0 3.5 0.68359 5.375 2.0469 1.707 1.3672 3.1562 2.9453 4.3438 4.7344 1.1953 1.793 2.3125 3.7969 3.3438 6.0156l-28.172 5.375c0.6875-1.5312 1.3672-3.0195 2.0469-4.4688 0.6875-1.4453 1.3672-2.8594 2.0469-4.2344 0.85156-1.6953 2.3047-3.6953 4.3594-6 2.0508-2.3125 4.2695-3.4688 6.6562-3.4688zm-73.734 30.469-5.375 30.469c-0.16406 1.0234 0.13672 1.918 0.90625 2.6875 0.76172 0.76172 1.6562 1.0547 2.6875 0.89062 3.4062-0.6875 7.3281-1.5391 11.766-2.5625 4.4375-1.0195 8.4453-1.875 12.031-2.5625 0.34375 0 0.6875-0.082031 1.0312-0.25 1.0195-0.16406 1.7422-0.28906 2.1719-0.375 0.42578-0.09375 1.1484-0.22266 2.1719-0.39062 0.85156-0.17578 1.5781-0.34766 2.1719-0.51562 0.60156-0.16406 1.25-0.33594 1.9375-0.51562l-0.78125 4.0938v-0.25c-0.16797 0.34375-0.25 0.6875-0.25 1.0312v0.375 0.39062c0 3.0703 1.5352 4.6094 4.6094 4.6094h0.375 0.39062c1.875 0 3.4531-0.89844 4.7344-2.6875s2.0938-3.7109 2.4375-5.7656c0.34375-0.85156 0.59766-1.75 0.76562-2.6875 0.16406-0.9375 0.33594-1.75 0.51562-2.4375 11.77-2.8945 23.539-5.6641 35.312-8.3125 11.781-2.6445 23.305-5.6758 34.578-9.0938 0.16406-0.16406 0.46093-0.46094 0.89062-0.89062 0.42578-0.42578 0.72266-0.72656 0.89063-0.90625l15.875-34.047c0.50782-1.3633 0.29688-2.5156-0.64062-3.4531s-2.0898-1.0625-3.4531-0.375c-0.85546 0.51172-1.7109 0.85547-2.5625 1.0312-0.85546 0.16797-1.7109 0.25-2.5625 0.25-1.7109 0-3.3281-0.76953-4.8594-2.3125-1.3672-4.6016-3.1992-9.3359-5.5-14.203-2.3047-4.8633-5.375-8.957-9.2188-12.281-3.8438-3.332-8.668-5-14.469-5-3.75 0-7.3359 1.1953-10.75 3.5781-5.9688 3.9297-11.008 9.1367-15.109 15.625-3.5859 5.293-6.7812 11.094-9.5938 17.406s-5.418 12.625-7.8125 18.938c-7.3359 1.3672-14.328 2.6484-20.984 3.8438-6.6562 1.1992-13.742 2.4805-21.25 3.8438h0.51562-0.51562c-0.6875 0-1.3281 0.29688-1.9219 0.89062s-0.98047 1.2344-1.1562 1.9219z"/>
   </g>
   <g transform="translate(610.17 145.8)">
    <path d="m11.781-28.156 5.375-11.266c0.50781-1.3633 0.29688-2.5547-0.64062-3.5781-0.9375-1.0312-2.0898-1.2031-3.4531-0.51562-3.25 1.5312-5.6875 2.9375-7.3125 4.2188-1.6172 1.2812-3.7031 3.3711-6.2656 6.2656-1.3633 1.543-3.2812 3.7266-5.75 6.5469-2.4766 2.8125-4.6562 5.7969-6.5312 8.9531s-2.8125 6.0156-2.8125 8.5781c0 3.918 2.0469 7.0742 6.1406 9.4688 1.0234 0.67578 2.0898 1.1875 3.2031 1.5312 1.1055 0.34375 2.0859 0.94141 2.9375 1.7969-2.2188 1.1875-4.6914 2.332-7.4219 3.4375-2.7266 1.1133-5.2891 2.2695-7.6875 3.4688l-5.375 2.3125c-1.5312 0.67578-1.9922 1.8672-1.3906 3.5781 0.59375 1.707 1.6562 2.4727 3.1875 2.2969 2.2188-0.33594 4.3555-0.71484 6.4062-1.1406 2.043-0.42969 4.1719-0.73047 6.3906-0.90625 5.293-0.85547 10.195-3.1172 14.719-6.7812 4.5195-3.668 7.6328-7.6367 9.3438-11.906 0.6875-1.3633 1.0312-3.1562 1.0312-5.375 0-2.3828-0.77344-4.4297-2.3125-6.1406-1.5312-1.707-3.4062-2.9883-5.625-3.8438-0.85547-0.33203-1.9648-0.67188-3.3281-1.0156-1.3672-0.34375-2.4766-0.76953-3.3281-1.2812 0.34375-0.34375 0.64062-0.59766 0.89062-0.76562 0.25781-0.17578 0.5625-0.34766 0.90625-0.51562 1.875-1.0195 3.5781-2.0391 5.1094-3.0625 1.5391-1.0312 2.7383-2.4844 3.5938-4.3594z"/>
   </g>
   <g transform="translate(537.22 328.58)">
    <path d="m84.219-38.656 16.906-28.672c-0.6875-8.1875-1.5-16.586-2.4375-25.203-0.9375-8.625-2.0078-16.773-3.2031-24.453-0.67969-4.6133-1.2773-9.1406-1.7969-13.578-0.51172-4.4375-1.1055-8.957-1.7812-13.562-0.17969-1.3633-0.99219-2.2578-2.4375-2.6875-1.4492-0.42578-2.5156 0.043-3.2031 1.4062l-16.641 30.719 8.7188 75c0.16406 1.543 1.0156 2.4023 2.5469 2.5781 1.5391 0.16797 2.6484-0.34766 3.3281-1.5469z"/>
   </g>
   <g transform="translate(530.31 328.58)">
    <path d="m144.89-78.344c-0.33593 0.34375-0.71484 0.73047-1.1406 1.1562-0.42969 0.42969-0.89844 0.8125-1.4062 1.1562-7 6.1484-14.855 11.527-23.562 16.141-8.6992 4.6055-17.574 8.8672-26.625 12.781l-5.1094 2.5625-53.25 23.297c-5.293 2.2188-10.887 4.3555-16.781 6.4062-5.8867 2.043-11.387 4.2617-16.5 6.6562-0.6875 0.51172-1.3672 1.1094-2.0469 1.7969-0.6875 0.67969-1.0312 1.5273-1.0312 2.5469 0 2.5625 1.8828 3.8438 5.6406 3.8438h0.375 0.39062 0.375 0.39062l6.9062-0.51562c7.3438-0.16406 14.508-0.42188 21.5-0.76562 7-0.34375 14-0.76953 21-1.2812 20.988-1.875 38.906-7.0352 53.75-15.484 14.852-8.4453 27.227-19.156 37.125-32.125 13.656-18.258 20.738-39.164 21.25-62.719v-0.51562c-0.85546-7-1.9219-13.613-3.2031-19.844-1.2734-6.2266-2.6797-12.5-4.2188-18.812-0.34375-1.3633-1.2422-2.1289-2.6875-2.2969-1.4492-0.17579-2.5156 0.41796-3.2031 1.7812-1.3672 3.0742-2.7305 6.1055-4.0938 9.0938-1.3672 2.9805-2.8125 5.9219-4.3438 8.8281l-6.1562 12.797c1.3633 6.8359 2.5977 14.008 3.7031 21.516 1.1133 7.5 2.0977 14.836 2.9531 22z"/>
   </g>
   <g transform="translate(702.86 328.58)">
    <path d="m16.125-144.39 7.1719 105.98c0.16406 1.543 0.92969 2.4453 2.2969 2.7031 1.3633 0.25 2.3906-0.22266 3.0781-1.4219l18.938-29.688-7.1562-106.25c-0.17969-1.5312-0.94922-2.4219-2.3125-2.6719-1.3672-0.25782-2.4766 0.20312-3.3281 1.3906z"/>
   </g>
   <g transform="translate(766.34 328.58)"></g>
   <g transform="translate(803.72 328.58)">
    <path d="m99.578-40.953c1.0313-5.6328-0.92969-8.8789-5.875-9.7344-3.0742-0.6875-5.5547 0.33984-7.4375 3.0781-2.5547 2.8984-5.7109 4.8555-9.4688 5.875-11.773 3.0742-24.059 5.6367-36.859 7.6875-6.6562 1.0234-13.059 2.3438-19.203 3.9688-6.1484 1.625-12.121 3.4609-17.922 5.5-4.7812 2.2188-5.375 5.0391-1.7812 8.4531 1.6953 1.1875 4.4219 2.4688 8.1719 3.8438 3.7578 1.3672 7.8594 2.7734 12.297 4.2188 4.4375 1.4492 8.5312 2.6875 12.281 3.7188 3.7578 1.0234 6.4922 1.7031 8.2031 2.0469 5.1133 1.0234 9.6328 1.5312 13.562 1.5312 1.707 0 3.3672-0.082031 4.9844-0.25 1.625-0.17578 3.207-0.4375 4.75-0.78125 8.0195-2.0391 14.422-7.6719 19.203-16.891 1.5312-2.9062 3.1914-5.8047 4.9844-8.7031 1.7891-2.9062 3.7969-5.3789 6.0156-7.4219 2.2188-1.1953 3.582-3.2422 4.0938-6.1406z"/>
   </g>
   <g transform="translate(935.3 342.16)">
    <path d="m18.438 7.4219 14.594-28.922c0.84375-1.3633 0.83594-2.5156-0.01563-3.4531-0.84375-0.94531-1.8672-1.25-3.0625-0.90625-7.6797 1.543-15.402 3.0391-23.172 4.4844-7.7578 1.4492-15.648 2.8555-23.672 4.2188-0.34375 0.17969-0.76953 0.39844-1.2812 0.65625-0.50781 0.25-0.85156 0.54688-1.0312 0.89062l-14.328 29.172c-0.6875 1.1953-0.64453 2.2656 0.125 3.2031 0.77344 0.9375 1.75 1.3203 2.9375 1.1562 7.8555-1.3672 15.668-2.8203 23.438-4.3594 7.7578-1.5312 15.566-2.9805 23.422-4.3438 1.0195-0.51172 1.7031-1.1094 2.0469-1.7969z"/>
   </g>
   <g transform="translate(884.61 301.7)">
    <path d="m11.516-4.6094-0.5 0.51562c2.8945-2.5625 5.625-4.6953 8.1875-6.4062 2.8945-1.1875 5.9219-2.1641 9.0781-2.9375 3.1641-0.76953 6.3672-1.582 9.6094-2.4375 1.0195-0.16406 2.0391-0.33203 3.0625-0.5 1.0312-0.17578 2.0547-0.26562 3.0781-0.26562 0.50781 0 0.76562-0.17188 0.76562-0.51562-1.5312 9.9062 2.4766 14.172 12.031 12.797l20.234-3.3281c1.6953-0.33203 2.5469-1.3516 2.5469-3.0625l0.51562-30.469c0-2.3828-1.1094-3.4062-3.3281-3.0625-2.5625 0.33594-4.7812 0.16406-6.6562-0.51562-1.875-0.6875-2.6406-2.3047-2.2969-4.8594 0.16406-3.7578-1.7969-5.8945-5.8906-6.4062-3.0742-0.34375-7.043-0.04687-11.906 0.89062-4.8672 0.9375-10.625 2.4336-17.281 4.4844-13.824 4.2734-22.102 9.3086-24.828 15.109-1.543 2.8984-2.8711 5.9688-3.9844 9.2188-1.1055 3.2422-2.3398 6.3984-3.7031 9.4688-0.33203 1.0234-0.83594 2-1.5156 2.9375-0.6875 0.9375-0.94531 2.0078-0.78125 3.2031-0.50781 2.3867-0.46875 4.3086 0.125 5.7656 0.59375 1.4492 1.4922 2.6836 2.6875 3.7031 2.3945 1.707 4.4414 2.0508 6.1406 1.0312 1.707-1.0312 3.2422-2.4844 4.6094-4.3594z"/>
   </g>
   <g transform="translate(1027.5 137.36)">
    <path d="m21.25-8.1875-16.891-16.125c-0.6875-0.6875-1.5-0.94141-2.4375-0.76562-0.9375 0.16797-1.6641 0.58984-2.1719 1.2656-3.25 4.2734-6.5352 8.4531-9.8594 12.547-3.332 4.0938-6.7031 8.2773-10.109 12.547-1.0312 1.3633-0.94531 2.6445 0.25 3.8438l17.156 16.125c0.67969 0.67578 1.4453 0.97266 2.2969 0.89062 0.85156-0.08594 1.5352-0.46875 2.0469-1.1562 1.707-2.043 2.9453-3.6211 3.7188-4.7344 0.76953-1.1055 1.5781-2.1719 2.4219-3.2031 0.85156-1.0234 2.1328-2.5547 3.8438-4.5938 1.707-2.0547 3.4141-4.1055 5.125-6.1562 1.707-2.043 3.4141-4.1719 5.125-6.3906 0.85156-1.5391 0.67969-2.9062-0.51562-4.0938z"/>
   </g>
   <g transform="translate(952.19 296.08)">
    <path d="m122.62-69.125h-0.51562-0.76563c-0.16797 0-0.51172 0.25781-1.0312 0.76562-1.3672 0.52344-2.7734 1.0781-4.2188 1.6719-1.4492 0.59375-2.8555 1.2344-4.2188 1.9219-3.7617 1.7109-7.5625 3.418-11.406 5.125-3.8359 1.6992-8.4805 2.7188-13.938 3.0625-3.0742-2.7266-5.8086-5.8828-8.2031-9.4688-2.3867-3.582-4.2617-7.5938-5.625-12.031 3.582 0.34375 7.1641 0.94531 10.75 1.7969 3.582 0.84375 7.1641 1.7812 10.75 2.8125 1.707 0.51172 2.9062-0.08594 3.5938-1.7969l10.484-32c0.34375-1.0195 0.25781-1.9141-0.25-2.6875-0.51172-0.76953-1.1953-1.2383-2.0469-1.4062l-4.0938-1.0312 0.25 0.26563c-3.4063-0.85156-6.7344-1.6172-9.9844-2.2969-3.2422-0.6875-6.8242-1.1172-10.75-1.2969-6.3125 0-11.945 2.9922-16.891 8.9688-4.0938 5.1172-7.5938 11.516-10.5 19.203-2.9062 7.6797-4.4453 15.871-4.6094 24.578-0.16797 0.51172-0.25 1.1055-0.25 1.7812 0 3.0742 0.29688 5.8906 0.89062 8.4531s1.3164 4.9531 2.1719 7.1719c-6.9922 1.6992-14.156 3.0234-21.5 3.9688-7.3359 0.9375-15.438 2.0898-24.312 3.4531-1.3672 0.34375-2.2188 1.1992-2.5625 2.5625l-5.8906 32c-0.16406 1.1875 0.09375 2.125 0.78125 2.8125 0.67969 0.67969 1.6094 0.92969 2.7969 0.76562 9.2188-1.875 18.348-3.832 27.391-5.875 9.0508-2.0508 18.18-4.1875 27.391-6.4062 10.414-2.3945 20.227-5.3438 29.438-8.8438 9.2188-3.5 18.008-7.5508 26.375-12.156l1.5312-1.5312 1.7969-3.8438c1.5391-3.4141 3.25-7.1289 5.125-11.141 1.875-4.0078 3.4102-7.8047 4.6094-11.391 0.67578-1.5312 1.0156-2.8125 1.0156-3.8438 0-2.7266-1.1953-4.0938-3.5781-4.0938z"/>
   </g>
   <g transform="translate(1085.3 328.58)"></g>
   <g transform="translate(1122.7 328.58)">
    <path d="m99.578-40.953c1.0313-5.6328-0.92969-8.8789-5.875-9.7344-3.0742-0.6875-5.5547 0.33984-7.4375 3.0781-2.5547 2.8984-5.7109 4.8555-9.4688 5.875-11.773 3.0742-24.059 5.6367-36.859 7.6875-6.6562 1.0234-13.059 2.3438-19.203 3.9688-6.1484 1.625-12.121 3.4609-17.922 5.5-4.7812 2.2188-5.375 5.0391-1.7812 8.4531 1.6953 1.1875 4.4219 2.4688 8.1719 3.8438 3.7578 1.3672 7.8594 2.7734 12.297 4.2188 4.4375 1.4492 8.5312 2.6875 12.281 3.7188 3.7578 1.0234 6.4922 1.7031 8.2031 2.0469 5.1133 1.0234 9.6328 1.5312 13.562 1.5312 1.707 0 3.3672-0.082031 4.9844-0.25 1.625-0.17578 3.207-0.4375 4.75-0.78125 8.0195-2.0391 14.422-7.6719 19.203-16.891 1.5312-2.9062 3.1914-5.8047 4.9844-8.7031 1.7891-2.9062 3.7969-5.3789 6.0156-7.4219 2.2188-1.1953 3.582-3.2422 4.0938-6.1406z"/>
   </g>
   <g transform="translate(1203.6 301.7)">
    <path d="m51.203-139.78 5.375 80.391c0.16406 1.5312 0.97266 2.3867 2.4219 2.5625 1.457 0.16797 2.5234-0.34766 3.2031-1.5469l18.438-29.688-5.125-80.391c-0.16797-1.5312-0.93359-2.5078-2.2969-2.9375-1.3672-0.42579-2.4766 0.043-3.3281 1.4062zm-46.078 140.03c1.5312 0 2.8945-0.55078 4.0938-1.6562 1.1953-1.1133 2.2188-2.1797 3.0625-3.2031 6.6562-6.1445 14.938-10.156 24.844-12.031 8.0195-1.5312 16.125-3.4883 24.312-5.875 8.1953-2.3945 16.562-5.2109 25.094-8.4531 17.238-6.6562 30.977-16.727 41.219-30.219 2.5508-3.582 5.4883-7.8477 8.8125-12.797 3.332-4.9453 5-10.148 5-15.609v-0.76562-0.78125c0-2.3828-0.46875-4.5156-1.4062-6.3906-0.9375-1.8828-2.0898-3.5938-3.4531-5.125-3.75-4.6016-8.7891-6.9062-15.109-6.9062-5.293 0-10.117 0.89844-14.469 2.6875-4.3438 1.793-7.7109 3.7969-10.094 6.0156-8.0312 7.5117-15.672 15.195-22.922 23.047-7.25 7.8438-14.461 15.949-21.625 24.312-4.2734 0.85547-8.5 1.8828-12.688 3.0781-4.1797 1.1875-8.2305 2.6367-12.156 4.3438-8.5312 3.9297-15.527 10.328-20.984 19.203-0.6875 1.1875-1.418 2.5938-2.1875 4.2188-0.76172 1.625-1.5703 3.1211-2.4219 4.4844-1.0234 1.3672-1.9609 2.7734-2.8125 4.2188-0.85156 1.4492-1.2812 3.1992-1.2812 5.25 0 2.0547 0.68359 4.0586 2.0469 6.0156 1.3633 1.9609 3.0703 2.9375 5.125 2.9375zm105.72-69.625v0.25c-5.4609 2.7305-11.391 4.9961-17.797 6.7969-6.3984 1.793-13.094 3.3711-20.094 4.7344 3.25-3.4141 6.5781-6.6602 9.9844-9.7344 3.4141-3.0703 7.2578-5.7188 11.531-7.9375 1.5312-0.85156 3.2344-1.2812 5.1094-1.2812 2.9063 0 5.4258 0.68359 7.5625 2.0469 2.1328 1.3672 3.3672 3.0742 3.7031 5.125z"/>
   </g>
   <g transform="translate(1231 346.5)">
    <path d="m24.062-57.859c0-6.4766 2.4727-14.672 7.4219-24.578 0.6875-1.5312 0.85938-2.8945 0.51562-4.0938-0.6875-1.875-1.9297-2.5977-3.7188-2.1719-1.793 0.42969-3.1172 1.0703-3.9688 1.9219-4.0938 5.4609-7.7617 11.18-11 17.156-3.2422 5.9688-6.3125 12.625-9.2188 19.969-1.3672 3.5859-2.6055 7.4219-3.7188 11.516-1.1016 4.0938-1.6562 8.3594-1.6562 12.797 0 7 1.5352 12.336 4.6094 16 3.0703 3.668 7.3359 6.1406 12.797 7.4219 5.457 1.2812 11.688 1.9219 18.688 1.9219 4.9453 0 10.238-0.25391 15.875-0.76562 18.602-1.707 36.27-5.125 53-10.25 6.4766-1.6953 12.832-3.6953 19.062-6 6.2266-2.3125 12.07-4.832 17.531-7.5625 8.0195-4.0938 14.547-8.5312 19.578-13.312 5.0391-4.7812 9.2695-10.41 12.688-16.891v0.25c1.5312-2.7266 2.7227-5.8438 3.5781-9.3438 0.85156-3.5 1.707-7.2109 2.5625-11.141 1.707-9.0391-3.3281-13.562-15.109-13.562h-1.4062-1.4062c-4.6055 0-8.3594 0.34375-11.266 1.0312-3.0742 0.33594-5.7188 1.6992-7.9375 4.0938-2.043 2.2188-4.0078 5.25-5.8906 9.0938-1.875 3.8359-3.5859 7.7148-5.125 11.641-1.5312 3.9297-3.0625 7.4297-4.5937 10.5-5.125 1.5312-10.547 3.0273-16.266 4.4844-5.7109 1.4492-11.297 2.6836-16.766 3.7031-5.625 1.1992-11.387 2.3086-17.281 3.3281-5.8867 1.0234-11.984 1.5312-18.297 1.5312h-1.2812-1.2812c-5.293 0-10.289-0.46875-14.984-1.4062-4.6875-0.9375-8.4844-2.7266-11.391-5.375-2.8984-2.6445-4.3438-6.6133-4.3438-11.906z"/>
   </g>
   <g transform="translate(1440.4 147.34)">
    <path d="m18.438 7.4219 14.594-28.922c0.84375-1.3633 0.83594-2.5156-0.01563-3.4531-0.84375-0.94531-1.8672-1.25-3.0625-0.90625-7.6797 1.543-15.402 3.0391-23.172 4.4844-7.7578 1.4492-15.648 2.8555-23.672 4.2188-0.34375 0.17969-0.76953 0.39844-1.2812 0.65625-0.50781 0.25-0.85156 0.54688-1.0312 0.89062l-14.328 29.172c-0.6875 1.1953-0.64453 2.2656 0.125 3.2031 0.77344 0.9375 1.75 1.3203 2.9375 1.1562 7.8555-1.3672 15.668-2.8203 23.438-4.3594 7.7578-1.5312 15.566-2.9805 23.422-4.3438 1.0195-0.51172 1.7031-1.1094 2.0469-1.7969z"/>
   </g>
   <g transform="translate(1367.2 286.86)">
    <path d="m69.375-38.656 5.375-0.25c1.3633-3.582 2.8125-7.082 4.3438-10.5 1.5391-3.4141 3.1641-7.0859 4.875-11.016 0.85156-1.875 1.5781-3.832 2.1719-5.875 0.60156-2.0508 0.90625-4.1875 0.90625-6.4062 0-4.7812-1.8828-8.2812-5.6406-10.5-4.4375-2.7266-9.2148-4.0938-14.328-4.0938-2.3984 0-4.6211 0.34375-6.6719 1.0312-2.043 0.67969-4 1.4453-5.875 2.2969-8.875 4.7812-16.602 11.273-23.172 19.469-6.5742 8.1875-12.246 16.805-17.016 25.844-2.0547 3.75-4.0234 7.5078-5.9062 11.266-1.875 3.75-3.6641 7.3359-5.3594 10.75-0.34375 0.85547-1.1562 2.6484-2.4375 5.375-1.2812 2.7305-2.1328 5.293-2.5625 7.6875-0.42578 2.3867 0.46875 3.5781 2.6875 3.5781h4.3594c1.3633 0 2.2188-0.42578 2.5625-1.2812 2.2188-3.4141 4.4297-6.7852 6.6406-10.109 2.2188-3.332 4.5234-6.7891 6.9219-10.375v0.26562c2.8945-3.9258 5.7891-7.5938 8.6875-11 2.9062-3.4141 5.8945-6.4922 8.9688-9.2344 1.3633-1.3633 2.8594-2.5156 4.4844-3.4531s3.1172-1.7422 4.4844-2.4219c5.1133-2.3945 9.2891-2.9922 12.531-1.7969 3.25 1.1992 6.2383 4.7812 8.9688 10.75z"/>
   </g>
   <g transform="translate(1461.1 328.58)"></g>
   <g transform="translate(1498.5 328.58)">
    <path d="m84.219-38.656 16.906-28.672c-0.6875-8.1875-1.5-16.586-2.4375-25.203-0.9375-8.625-2.0078-16.773-3.2031-24.453-0.67969-4.6133-1.2773-9.1406-1.7969-13.578-0.51172-4.4375-1.1055-8.957-1.7812-13.562-0.17969-1.3633-0.99219-2.2578-2.4375-2.6875-1.4492-0.42578-2.5156 0.043-3.2031 1.4062l-16.641 30.719 8.7188 75c0.16406 1.543 1.0156 2.4023 2.5469 2.5781 1.5391 0.16797 2.6484-0.34766 3.3281-1.5469z"/>
   </g>
   <g transform="translate(1491.6 328.58)">
    <path d="m144.89-78.344c-0.33593 0.34375-0.71484 0.73047-1.1406 1.1562-0.42969 0.42969-0.89844 0.8125-1.4062 1.1562-7 6.1484-14.855 11.527-23.562 16.141-8.6992 4.6055-17.574 8.8672-26.625 12.781l-5.1094 2.5625-53.25 23.297c-5.293 2.2188-10.887 4.3555-16.781 6.4062-5.8867 2.043-11.387 4.2617-16.5 6.6562-0.6875 0.51172-1.3672 1.1094-2.0469 1.7969-0.6875 0.67969-1.0312 1.5273-1.0312 2.5469 0 2.5625 1.8828 3.8438 5.6406 3.8438h0.375 0.39062 0.375 0.39062l6.9062-0.51562c7.3438-0.16406 14.508-0.42188 21.5-0.76562 7-0.34375 14-0.76953 21-1.2812 20.988-1.875 38.906-7.0352 53.75-15.484 14.852-8.4453 27.227-19.156 37.125-32.125 13.656-18.258 20.738-39.164 21.25-62.719v-0.51562c-0.85546-7-1.9219-13.613-3.2031-19.844-1.2734-6.2266-2.6797-12.5-4.2188-18.812-0.34375-1.3633-1.2422-2.1289-2.6875-2.2969-1.4492-0.17579-2.5156 0.41796-3.2031 1.7812-1.3672 3.0742-2.7305 6.1055-4.0938 9.0938-1.3672 2.9805-2.8125 5.9219-4.3438 8.8281l-6.1562 12.797c1.3633 6.8359 2.5977 14.008 3.7031 21.516 1.1133 7.5 2.0977 14.836 2.9531 22z"/>
   </g>
   <g transform="translate(1664.1 328.58)"></g>
   <g transform="translate(1701.5 328.58)">
    <path d="m21.766 0c5.2891 0 10.625-0.37891 16-1.1406 5.375-0.76953 9.5977-2.0078 12.672-3.7188 6.8203-3.9258 12.453-8.8789 16.891-14.859l12.547-17.406c1.3633-1.875 2.5156-3.5352 3.4531-4.9844 0.9375-1.4453 1.75-2.8594 2.4375-4.2344 1.3633-3.0625 2.0469-5.3633 2.0469-6.9062v-0.375-0.39062c0-3.582-1.4141-6.2695-4.2344-8.0625-2.8125-1.7891-5.5-3.2852-8.0625-4.4844-2.2188-0.85156-4.3984-1.6602-6.5312-2.4219-2.125-0.76953-3.9609-2.0078-5.5-3.7188 2.9062-2.2188 5.8047-3.8359 8.7031-4.8594 2.9062-1.0312 6.2344-2.0547 9.9844-3.0781l1.7969-1.2812c0.67578-1.0195 1.3125-1.957 1.9062-2.8125 0.60156-0.85156 1.332-1.8789 2.1875-3.0781 1.1953-1.5312 2.3477-3.1016 3.4531-4.7188 1.1133-1.625 2.0977-3.2891 2.9531-5 1.0195-1.8828 1.957-3.5938 2.8125-5.125 0.85156-1.5312 1.2812-3.1484 1.2812-4.8594 0-2.9062-1.5391-4.3594-4.6094-4.3594-1.0234 0-2.2148 0.25781-3.5781 0.76562-7.8555 2.5625-16.562 8.1094-26.125 16.641-2.2188 2.0547-4.3555 4.1484-6.4062 6.2812-2.043 2.1367-4 4.3125-5.875 6.5312-3.2422 3.918-6.3984 8.1836-9.4688 12.797-3.0742 4.6055-5.293 9.6367-6.6562 15.094-0.17969 0.52344-0.30859 1.0391-0.39062 1.5469-0.08594 0.51172-0.125 1.0234-0.125 1.5312 0 4.4375 2.3906 8.793 7.1719 13.062v-0.26562c1.875 1.875 4.2188 3.3711 7.0312 4.4844 2.8203 1.1055 5.7695 2.0859 8.8438 2.9375l-0.78125 0.26562-9.4688 3.8281c-5.625 2.3984-11.344 4.875-17.156 7.4375-5.8047 2.5547-11.18 5.4531-16.125 8.7031-0.85547 0.67969-1.8828 1.4844-3.0781 2.4219-1.1875 0.9375-1.7812 2.0078-1.7812 3.2031 0 2.5625 1.3203 3.9766 3.9688 4.2344 2.6445 0.25 5.25 0.375 7.8125 0.375z"/>
   </g>
   <g transform="translate(1811.8 328.58)">
    <path d="m15.359-144.64 9.9844 141.83c0 1.7109 0.76562 2.6484 2.2969 2.8125 1.5391 0.16406 2.6484-0.34375 3.3281-1.5312l15.625-30.219-9.4688-141.56c-0.17969-1.3633-0.99219-2.2188-2.4375-2.5625-1.4492-0.34375-2.5156 0.16797-3.2031 1.5312z"/>
   </g>
   <g transform="translate(1839.2 328.58)">
    <path d="m55.812-66.047-8.7031 19.703c-6.4922 1.8867-13.105 3.5547-19.844 5-6.7422 1.4492-13.867 2.6016-21.375 3.4531-1.3672 0.34375-2.2188 1.1992-2.5625 2.5625l-5.375 31.75c-0.16406 1.1875 0.09375 2.125 0.78125 2.8125 0.67969 0.67969 1.6094 0.92969 2.7969 0.76562l9.7344-2.5625c2.2188-0.50781 4.3906-1.0195 6.5156-1.5312 2.1328-0.50781 4.2266-1.0195 6.2812-1.5312 9.5625-2.3945 18.691-5.2539 27.391-8.5781 8.707-3.332 16.473-7.4727 23.297-12.422 3.9258-2.8945 7.5938-6.4297 11-10.609 3.4141-4.1875 6.0664-7.9883 7.9531-11.406 2.0391-3.75 4.0859-10.578 6.1406-20.484 1.1875-5.1133 0.20313-8.6484-2.9531-10.609-3.1562-1.9688-7.2109-2.9531-12.156-2.9531h-1.4062-1.4062c-4.6055 0-8.3594 0.42969-11.266 1.2812-3.5859 0.16797-6.5742 1.9609-8.9688 5.375-2.3867 3.418-4.3438 6.7461-5.875 9.9844z"/>
   </g>
   <g transform="translate(1893 278.16)">
    <path d="m63.234-47.875 3.0625 5.375c2.5625 4.6172 7.2578 7.1797 14.094 7.6875 5.625 0.51172 11.68-1.1133 18.172-4.875h-0.26562l1.5469-0.76562c0.85156 0.6875 1.875 1.0312 3.0625 1.0312 1.8828 0 4.0625-0.33594 6.5312-1.0156 2.4766-0.6875 5.2539-1.8008 8.3281-3.3438 2.5508-1.1875 4.8945-2.4609 7.0312-3.8281 2.1328-1.3633 3.8828-2.9883 5.25-4.875 4.2695-5.2891 7.3438-12.031 9.2188-20.219s3.3203-16.551 4.3438-25.094c-1.6992-5.9688-3.1484-8.9102-4.3438-8.8281-1.1992 0.0859-2.2266 3.3711-3.0781 9.8594-2.3867 8.6992-7.6797 14.328-15.875 16.891 0.34375-1.5312 0.55469-3.0625 0.64063-4.5938 0.0937-1.5391 0.0508-3.1641-0.125-4.875 0-5.125-0.6836-7.3438-2.0469-6.6562-1.3672 0.6875-2.9844 2.5625-4.8594 5.625-0.6875 2.5625-1.9688 5.2969-3.8438 8.2031-1.875 2.8984-4.2656 5.3281-7.1719 7.2969-2.8984 1.9609-6.1367 2.8555-9.7188 2.6875-1.1992 0-2.2266-0.76953-3.0781-2.3125-1.5312-3.2383-4.3516-6.1406-8.4531-8.7031-4.6055-2.5625-9.2109-3.8438-13.812-3.8438-2.2188 0-4.3984 0.26172-6.5312 0.78125-2.1367 0.51172-4.0586 1.1953-5.7656 2.0469-5.8047 2.7305-11.137 6.6094-16 11.641-4.8672 5.0312-9.1719 10.109-12.922 15.234-4.2734 6.1484-8.4141 12.68-12.422 19.594-4.0117 6.9062-7.5547 13.945-10.625 21.109-0.33594 0.6875-0.92969 1.9297-1.7812 3.7188-0.85547 1.793-1.668 3.668-2.4375 5.625-0.76953 1.9609-1.0664 3.668-0.89062 5.125 0.16797 1.4492 1.1055 2.1719 2.8125 2.1719h4.0938c0.34375 0 0.85156-0.17188 1.5312-0.51562 0.6875-0.34375 1.1133-0.59766 1.2812-0.76562 4.9453-8.1875 10.453-16.332 16.516-24.438 6.0625-8.1133 12.848-14.898 20.359-20.359 1.6953-1.0195 3.4844-1.957 5.3594-2.8125 1.8828-0.85156 3.9375-1.2812 6.1562-1.2812 1.1953 0 2.3477 0.17188 3.4531 0.51562 1.1133 0.33594 2.1797 0.92969 3.2031 1.7812z"/>
   </g>
   <g transform="translate(2044 328.58)"></g>
   <g transform="translate(2143.4 377.98)">
    <path d="m21.25-8.1875-16.891-16.125c-0.6875-0.6875-1.5-0.94141-2.4375-0.76562-0.9375 0.16797-1.6641 0.58984-2.1719 1.2656-3.25 4.2734-6.5352 8.4531-9.8594 12.547-3.332 4.0938-6.7031 8.2773-10.109 12.547-1.0312 1.3633-0.94531 2.6445 0.25 3.8438l17.156 16.125c0.67969 0.67578 1.4453 0.97266 2.2969 0.89062 0.85156-0.08594 1.5352-0.46875 2.0469-1.1562 1.707-2.043 2.9453-3.6211 3.7188-4.7344 0.76953-1.1055 1.5781-2.1719 2.4219-3.2031 0.85156-1.0234 2.1328-2.5547 3.8438-4.5938 1.707-2.0547 3.4141-4.1055 5.125-6.1562 1.707-2.043 3.4141-4.1719 5.125-6.3906 0.85156-1.5391 0.67969-2.9062-0.51562-4.0938z"/>
   </g>
   <g transform="translate(2081.4 328.58)">
    <path d="m118.78-9.2188c0.50781 1.875 1.7891 2.8125 3.8438 2.8125 0.85156 0 1.5352-0.25391 2.0469-0.76562 3.2383-3.2383 6.2226-6.9062 8.9531-11 2.3945-3.582 4.5312-7.5938 6.4062-12.031s3.582-8.707 5.125-12.812c0.85156-2.3828 1.7031-4.5977 2.5469-6.6406 0.85157-2.0508 1.2812-4.4414 1.2812-7.1719 0-2.9062-1.1094-4.3594-3.3281-4.3594-1.1875 0-2.4648 0.9375-3.8281 2.8125-2.0547 4.9609-5.125 8.4609-9.2188 10.5-1.875 1.0234-4.5625 2.0898-8.0625 3.2031-3.5 1.1055-7.8984 2.1719-13.188 3.2031-10.75 2.043-21.672 3.3242-32.766 3.8438h-7.4219c-5.8047 0-11.605-0.25391-17.406-0.76562-5.8047-0.51953-11.137-1.5469-16-3.0781-4.8672-1.5391-8.6641-3.8477-11.391-6.9219-3.0742-3.9141-4.6094-8.8633-4.6094-14.844v-1.5312c0.50781-7.6758 3.6641-16.895 9.4688-27.656 0.67578-1.3633 1.0156-2.7266 1.0156-4.0938 0-1.3633-0.46875-2.5977-1.4062-3.7031-0.9375-1.1133-2.3438-1.6719-4.2188-1.6719-2.0547 0-3.9336 1.1094-5.6406 3.3281-3.2422 5.125-6.2266 10.418-8.9531 15.875-2.7305 5.293-5.7617 11.523-9.0938 18.688-3.3203 7.168-4.9844 14.336-4.9844 21.5 0 9.3867 2.2188 16.98 6.6562 22.781 4.4375 5.8047 10.32 10.156 17.656 13.062 5.2891 1.875 11.051 3.4531 17.281 4.7344 6.2266 1.2812 12.758 1.9219 19.594 1.9219h1.3906 1.4219c10.582 0 20.738-0.85156 30.469-2.5625 9.7266-1.707 18.516-3.9258 26.359-6.6562z"/>
   </g>
   <g transform="translate(2207.4 321.94)">
    <path d="m7.9375-38.141-0.51562 0.25c-1.7109 0-2.7305 0.77344-3.0625 2.3125l-6.4062 32c-0.16406 1.1875 0.09375 2.125 0.78125 2.8125 0.67969 0.67969 1.6094 0.92969 2.7969 0.76562l5.8906-1.2812c13.145-3.4141 25.051-7 35.719-10.75 10.664-3.75 20.094-7.6758 28.281-11.781 16.551-8.1875 27.988-16.891 34.313-26.109l2.0469-3.3281c2.5508-4.0938 5.0195-8.1445 7.4062-12.156 2.3945-4.0078 4.6172-8.3203 6.6719-12.938 0.67578-1.5312 1.4414-3.2734 2.2969-5.2344 0.85156-1.9688 1.2812-3.9727 1.2812-6.0156 0-1.707-0.33984-3.1602-1.0156-4.3594-2.2188-3.9258-6.0625-6.6563-11.531-8.1875-5.4609-1.5391-11.008-2.7383-16.641-3.5938-4.4375-0.67578-8.7461-1.2695-12.922-1.7812-4.1797-0.50781-8.4023-0.59765-12.672-0.26562-1.3672 0-2.2188 0.51562-2.5625 1.5469-0.67969 1.5312-1.4023 3.0703-2.1719 4.6094-0.77344 1.5312-1.5859 3.0625-2.4375 4.5938h0.26562c-1.1992 2.3984-2.0117 3.9375-2.4375 4.625-0.42969 0.67969-1.2422 2.2109-2.4375 4.5938-0.33594 0.85547-0.97656 2.2266-1.9219 4.1094-0.9375 1.875-1.793 3.8828-2.5625 6.0156-0.76172 2.125-0.97656 3.9609-0.64062 5.5 0.34375 1.5312 1.5391 2.4688 3.5938 2.8125 0.85156 0.16797 1.875 0.29688 3.0625 0.39062 1.1953 0.08594 2.3945 0.21094 3.5938 0.375 4.6016 0.34375 9.5078 0.64844 14.719 0.90625 5.207 0.25 9.7734 0.80469 13.703 1.6562 1.0195 0.16797 1.8281 0.38281 2.4219 0.64062 0.60156 0.25 1.1602 0.54688 1.6719 0.89062-11.949 6.8359-25.352 12.34-40.203 16.516-14.844 4.1797-30.969 7.4648-48.375 9.8594z"/>
   </g>
   <g transform="translate(2281.1 230.55)">
    <path d="m44.547-58.109-4.0938-71.687c0-1.5312-0.73047-2.4688-2.1875-2.8125-1.4492-0.34375-2.6016 0.0859-3.4531 1.2812l-18.938 29.953 2.5625 40.188c0.85156 12.637 1.3633 25.184 1.5312 37.641-2.5625 1.3672-5.5938 2.6875-9.0938 3.9688s-6.6992 2.4336-9.5938 3.4531c-0.16797 0-0.46484 0.21484-0.89062 0.64062-0.42578 0.42969-0.72656 0.72656-0.90625 0.89062l-1.7812 4.0938c-0.51953 1.0312-0.47656 1.9336 0.125 2.7031 0.59375 0.76172 1.2344 1.3125 1.9219 1.6562l24.062 6.1406c0.67578 0.16406 1.3125 0.082031 1.9062-0.25 0.60156-0.34375 0.98828-0.6875 1.1562-1.0312 3.4141-4.4375 6.4062-9.0859 8.9688-13.953 2.5625-4.8633 4.4375-9.9414 5.625-15.234 2.0508-8.0195 3.0781-15.953 3.0781-23.797v-1.9219-1.9219z"/>
   </g>
   <g transform="translate(2338.7 328.58)">
    <path d="m16.125-144.39 7.1719 105.98c0.16406 1.543 0.92969 2.4453 2.2969 2.7031 1.3633 0.25 2.3906-0.22266 3.0781-1.4219l18.938-29.688-7.1562-106.25c-0.17969-1.5312-0.94922-2.4219-2.3125-2.6719-1.3672-0.25782-2.4766 0.20312-3.3281 1.3906z"/>
   </g>
  </g>
 </g>
</svg>
