<?xml version='1.0' encoding='ASCII'?>
<svg width="9959" height="5872" preserveAspectRatio="xMinYMin slice" viewBox="26 -4745 9959 5872" version="1.1" xmlns="http://www.w3.org/2000/svg">
  <defs>
    <radialGradient id="gradient_0" spreadMethod="pad" gradientUnits="userSpaceOnUse" fx="277" fy="196" fr="0" cx="277" cy="196" r="475">
      <stop offset="0%" stop-color="#D22E1F" stop-opacity="0.252"/>
      <stop offset="100%" stop-color="#D22E1F"/>
    </radialGradient>
    <radialGradient id="gradient_1" spreadMethod="pad" gradientUnits="userSpaceOnUse" fx="255" fy="195" fr="0" cx="255" cy="195" r="260">
      <stop offset="0%" stop-color="#0074B6"/>
      <stop offset="100%" stop-color="#0074B6" stop-opacity="0.252"/>
    </radialGradient>
    <linearGradient id="gradient_2" spreadMethod="pad" gradientUnits="userSpaceOnUse" x1="109" y1="52" x2="-131.7812" y2="-75.4134">
      <stop offset="0%" stop-color="#0074B6"/>
      <stop offset="100%" stop-color="#0074B6" stop-opacity="0.252"/>
    </linearGradient>
    <linearGradient id="gradient_3" spreadMethod="pad" gradientUnits="userSpaceOnUse" x1="14" y1="-196" x2="344" y2="229">
      <stop offset="0%" stop-color="#D22E1F" stop-opacity="0.252"/>
      <stop offset="100%" stop-color="#D22E1F"/>
    </linearGradient>
    <linearGradient id="gradient_4" spreadMethod="pad" gradientUnits="userSpaceOnUse" x1="392" y1="220" x2="252.1977" y2="289.3983">
      <stop offset="0%" stop-color="#D22E1F" stop-opacity="0.252"/>
      <stop offset="100%" stop-color="#D22E1F"/>
    </linearGradient>
    <linearGradient id="gradient_5" spreadMethod="pad" gradientUnits="userSpaceOnUse" x1="318" y1="525" x2="494.7553" y2="214.4299">
      <stop offset="0%" stop-color="#D22E1F" stop-opacity="0.252"/>
      <stop offset="100%" stop-color="#D22E1F"/>
    </linearGradient>
    <linearGradient id="gradient_6" spreadMethod="pad" gradientUnits="userSpaceOnUse" x1="-19" y1="70" x2="355.9898" y2="108.1006">
      <stop offset="0%" stop-color="#D22E1F"/>
      <stop offset="100%" stop-color="#D22E1F"/>
    </linearGradient>
    <linearGradient id="gradient_7" spreadMethod="pad" gradientUnits="userSpaceOnUse" x1="449" y1="233" x2="150" y2="222">
      <stop offset="0%" stop-color="#D22E1F" stop-opacity="0.252"/>
      <stop offset="100%" stop-color="#D22E1F"/>
    </linearGradient>
    <linearGradient id="gradient_8" spreadMethod="pad" gradientUnits="userSpaceOnUse" x1="-78" y1="-63" x2="24" y2="106">
      <stop offset="0%" stop-color="#D22E1F" stop-opacity="0.252"/>
      <stop offset="100%" stop-color="#D22E1F"/>
    </linearGradient>
    <linearGradient id="gradient_9" spreadMethod="pad" gradientUnits="userSpaceOnUse" x1="680" y1="399" x2="618" y2="463">
      <stop offset="0%" stop-color="#D22E1F" stop-opacity="0.252"/>
      <stop offset="100%" stop-color="#D22E1F"/>
    </linearGradient>
    <linearGradient id="gradient_10" spreadMethod="pad" gradientUnits="userSpaceOnUse" x1="26" y1="11" x2="650.431" y2="368.2466">
      <stop offset="0%" stop-color="#D22E1F" stop-opacity="0.252"/>
      <stop offset="100%" stop-color="#D22E1F"/>
    </linearGradient>
    <linearGradient id="gradient_11" spreadMethod="pad" gradientUnits="userSpaceOnUse" x1="177" y1="241" x2="36.2924" y2="331.4549">
      <stop offset="0%" stop-color="#D22E1F" stop-opacity="0.252"/>
      <stop offset="100%" stop-color="#D22E1F"/>
    </linearGradient>
    <linearGradient id="gradient_12" spreadMethod="pad" gradientUnits="userSpaceOnUse" x1="6" y1="68" x2="248" y2="70">
      <stop offset="0%" stop-color="#D22E1F" stop-opacity="0.252"/>
      <stop offset="100%" stop-color="#D22E1F"/>
    </linearGradient>
    <linearGradient id="gradient_13" spreadMethod="pad" gradientUnits="userSpaceOnUse" x1="-69" y1="46" x2="64" y2="-38">
      <stop offset="0%" stop-color="#D22E1F" stop-opacity="0.252"/>
      <stop offset="100%" stop-color="#D22E1F"/>
    </linearGradient>
    <linearGradient id="gradient_14" spreadMethod="pad" gradientUnits="userSpaceOnUse" x1="5" y1="23" x2="305.9367" y2="101.2435">
      <stop offset="0%" stop-color="#D22E1F"/>
      <stop offset="100%" stop-color="#D22E1F"/>
    </linearGradient>
    <linearGradient id="gradient_15" spreadMethod="pad" gradientUnits="userSpaceOnUse" x1="37" y1="-40" x2="-29.4566" y2="32.4981">
      <stop offset="0%" stop-color="#D22E1F" stop-opacity="0.252"/>
      <stop offset="100%" stop-color="#D22E1F"/>
    </linearGradient>
    <linearGradient id="gradient_16" spreadMethod="pad" gradientUnits="userSpaceOnUse" x1="242" y1="331" x2="319" y2="304">
      <stop offset="0%" stop-color="#D22E1F" stop-opacity="0.252"/>
      <stop offset="100%" stop-color="#D22E1F"/>
    </linearGradient>
    <linearGradient id="gradient_17" spreadMethod="pad" gradientUnits="userSpaceOnUse" x1="306" y1="151" x2="246" y2="258">
      <stop offset="0%" stop-color="#D22E1F" stop-opacity="0.252"/>
      <stop offset="100%" stop-color="#D22E1F"/>
    </linearGradient>
    <linearGradient id="gradient_18" spreadMethod="pad" gradientUnits="userSpaceOnUse" x1="12" y1="48" x2="223.0958" y2="116.7057">
      <stop offset="0%" stop-color="#D22E1F"/>
      <stop offset="100%" stop-color="#D22E1F"/>
    </linearGradient>
    <linearGradient id="gradient_19" spreadMethod="pad" gradientUnits="userSpaceOnUse" x1="92" y1="173" x2="-126.448" y2="-69.4973">
      <stop offset="0%" stop-color="#0074B6"/>
      <stop offset="100%" stop-color="#0074B6" stop-opacity="0.252"/>
    </linearGradient>
    <linearGradient id="gradient_20" spreadMethod="pad" gradientUnits="userSpaceOnUse" x1="-125" y1="-48" x2="372.8863" y2="130.3174">
      <stop offset="0%" stop-color="#D22E1F"/>
      <stop offset="100%" stop-color="#D22E1F"/>
    </linearGradient>
    <linearGradient id="gradient_21" spreadMethod="pad" gradientUnits="userSpaceOnUse" x1="96" y1="262" x2="-34.2369" y2="334.5748">
      <stop offset="0%" stop-color="#D22E1F" stop-opacity="0.252"/>
      <stop offset="100%" stop-color="#D22E1F"/>
    </linearGradient>
    <linearGradient id="gradient_22" spreadMethod="pad" gradientUnits="userSpaceOnUse" x1="17" y1="63" x2="508.7" y2="226.9">
      <stop offset="0%" stop-color="#D22E1F" stop-opacity="0.252"/>
      <stop offset="100%" stop-color="#D22E1F"/>
    </linearGradient>
    <linearGradient id="gradient_23" spreadMethod="pad" gradientUnits="userSpaceOnUse" x1="14" y1="26" x2="317.5264" y2="243.6604">
      <stop offset="0%" stop-color="#D22E1F" stop-opacity="0.252"/>
      <stop offset="100%" stop-color="#D22E1F"/>
    </linearGradient>
    <linearGradient id="gradient_24" spreadMethod="pad" gradientUnits="userSpaceOnUse" x1="147" y1="277" x2="-145" y2="10">
      <stop offset="0%" stop-color="#0074B6"/>
      <stop offset="100%" stop-color="#0074B6" stop-opacity="0.252"/>
    </linearGradient>
    <linearGradient id="gradient_25" spreadMethod="pad" gradientUnits="userSpaceOnUse" x1="208" y1="280" x2="345" y2="379">
      <stop offset="0%" stop-color="#D22E1F" stop-opacity="0.252"/>
      <stop offset="100%" stop-color="#D22E1F"/>
    </linearGradient>
    <linearGradient id="gradient_26" spreadMethod="pad" gradientUnits="userSpaceOnUse" x1="9" y1="92" x2="233" y2="209">
      <stop offset="0%" stop-color="#D22E1F" stop-opacity="0.252"/>
      <stop offset="100%" stop-color="#D22E1F"/>
    </linearGradient>
    <linearGradient id="gradient_27" spreadMethod="pad" gradientUnits="userSpaceOnUse" x1="113" y1="638" x2="136.0608" y2="260.0037">
      <stop offset="0%" stop-color="#D22E1F" stop-opacity="0.252"/>
      <stop offset="100%" stop-color="#D22E1F"/>
    </linearGradient>
    <linearGradient id="gradient_28" spreadMethod="pad" gradientUnits="userSpaceOnUse" x1="9" y1="58" x2="281" y2="210">
      <stop offset="0%" stop-color="#D22E1F" stop-opacity="0.252"/>
      <stop offset="100%" stop-color="#D22E1F"/>
    </linearGradient>
    <linearGradient id="gradient_29" spreadMethod="pad" gradientUnits="userSpaceOnUse" x1="45" y1="21" x2="365" y2="281">
      <stop offset="0%" stop-color="#D22E1F" stop-opacity="0.252"/>
      <stop offset="100%" stop-color="#D22E1F"/>
    </linearGradient>
    <linearGradient id="gradient_30" spreadMethod="pad" gradientUnits="userSpaceOnUse" x1="349" y1="308" x2="505" y2="246">
      <stop offset="0%" stop-color="#D22E1F" stop-opacity="0.252"/>
      <stop offset="100%" stop-color="#D22E1F"/>
    </linearGradient>
    <linearGradient id="gradient_31" spreadMethod="pad" gradientUnits="userSpaceOnUse" x1="91" y1="82" x2="-114.6393" y2="-72.4802">
      <stop offset="0%" stop-color="#0074B6"/>
      <stop offset="100%" stop-color="#0074B6" stop-opacity="0.252"/>
    </linearGradient>
    <linearGradient id="gradient_32" spreadMethod="pad" gradientUnits="userSpaceOnUse" x1="30" y1="304" x2="546.6801" y2="117.1157">
      <stop offset="0%" stop-color="#D22E1F" stop-opacity="0.252"/>
      <stop offset="100%" stop-color="#D22E1F"/>
    </linearGradient>
    <linearGradient id="gradient_33" spreadMethod="pad" gradientUnits="userSpaceOnUse" x1="-4" y1="78" x2="311.713" y2="155.1743">
      <stop offset="0%" stop-color="#D22E1F"/>
      <stop offset="100%" stop-color="#D22E1F"/>
    </linearGradient>
    <linearGradient id="gradient_34" spreadMethod="pad" gradientUnits="userSpaceOnUse" x1="4" y1="21" x2="111.3341" y2="62.128">
      <stop offset="0%" stop-color="#D22E1F" stop-opacity="0.252"/>
      <stop offset="100%" stop-color="#D22E1F"/>
    </linearGradient>
    <linearGradient id="gradient_35" spreadMethod="pad" gradientUnits="userSpaceOnUse" x1="94" y1="63" x2="143" y2="194">
      <stop offset="0%" stop-color="#D22E1F" stop-opacity="0.252"/>
      <stop offset="100%" stop-color="#D22E1F"/>
    </linearGradient>
    <radialGradient id="gradient_36" spreadMethod="pad" gradientUnits="userSpaceOnUse" fx="274" fy="196" fr="0" cx="274" cy="196" r="490">
      <stop offset="0%" stop-color="#D22E1F" stop-opacity="0.252"/>
      <stop offset="100%" stop-color="#D22E1F"/>
    </radialGradient>
    <radialGradient id="gradient_37" spreadMethod="pad" gradientUnits="userSpaceOnUse" fx="262" fy="195" fr="0" cx="262" cy="195" r="283">
      <stop offset="0%" stop-color="#0074B6"/>
      <stop offset="100%" stop-color="#0074B6" stop-opacity="0.252"/>
    </radialGradient>
    <linearGradient id="gradient_38" spreadMethod="pad" gradientUnits="userSpaceOnUse" x1="116" y1="71" x2="-137.7579" y2="-72.4284">
      <stop offset="0%" stop-color="#0074B6"/>
      <stop offset="100%" stop-color="#0074B6" stop-opacity="0.252"/>
    </linearGradient>
    <linearGradient id="gradient_39" spreadMethod="pad" gradientUnits="userSpaceOnUse" x1="3" y1="-186" x2="341" y2="236">
      <stop offset="0%" stop-color="#D22E1F" stop-opacity="0.252"/>
      <stop offset="100%" stop-color="#D22E1F"/>
    </linearGradient>
    <linearGradient id="gradient_40" spreadMethod="pad" gradientUnits="userSpaceOnUse" x1="397" y1="222" x2="227.15" y2="293.3571">
      <stop offset="0%" stop-color="#D22E1F" stop-opacity="0.252"/>
      <stop offset="100%" stop-color="#D22E1F"/>
    </linearGradient>
    <linearGradient id="gradient_41" spreadMethod="pad" gradientUnits="userSpaceOnUse" x1="309" y1="529" x2="485" y2="215">
      <stop offset="0%" stop-color="#D22E1F" stop-opacity="0.252"/>
      <stop offset="100%" stop-color="#D22E1F"/>
    </linearGradient>
    <linearGradient id="gradient_42" spreadMethod="pad" gradientUnits="userSpaceOnUse" x1="443" y1="240" x2="132" y2="229">
      <stop offset="0%" stop-color="#D22E1F" stop-opacity="0.252"/>
      <stop offset="100%" stop-color="#D22E1F"/>
    </linearGradient>
    <linearGradient id="gradient_43" spreadMethod="pad" gradientUnits="userSpaceOnUse" x1="-26" y1="75" x2="356.0108" y2="114.8967">
      <stop offset="0%" stop-color="#D22E1F"/>
      <stop offset="100%" stop-color="#D22E1F"/>
    </linearGradient>
    <linearGradient id="gradient_44" spreadMethod="pad" gradientUnits="userSpaceOnUse" x1="-83" y1="-59" x2="30.7137" y2="120.548">
      <stop offset="0%" stop-color="#D22E1F" stop-opacity="0.252"/>
      <stop offset="100%" stop-color="#D22E1F"/>
    </linearGradient>
    <linearGradient id="gradient_45" spreadMethod="pad" gradientUnits="userSpaceOnUse" x1="676" y1="381" x2="600" y2="452">
      <stop offset="0%" stop-color="#D22E1F" stop-opacity="0.252"/>
      <stop offset="100%" stop-color="#D22E1F"/>
    </linearGradient>
    <linearGradient id="gradient_46" spreadMethod="pad" gradientUnits="userSpaceOnUse" x1="16" y1="12" x2="647.7195" y2="406.4493">
      <stop offset="0%" stop-color="#D22E1F" stop-opacity="0.252"/>
      <stop offset="100%" stop-color="#D22E1F"/>
    </linearGradient>
    <linearGradient id="gradient_47" spreadMethod="pad" gradientUnits="userSpaceOnUse" x1="188" y1="237" x2="18.2248" y2="328.4174">
      <stop offset="0%" stop-color="#D22E1F" stop-opacity="0.252"/>
      <stop offset="100%" stop-color="#D22E1F"/>
    </linearGradient>
    <linearGradient id="gradient_48" spreadMethod="pad" gradientUnits="userSpaceOnUse" x1="-3" y1="75" x2="245.9921" y2="76.9919">
      <stop offset="0%" stop-color="#D22E1F" stop-opacity="0.252"/>
      <stop offset="100%" stop-color="#D22E1F"/>
    </linearGradient>
    <linearGradient id="gradient_49" spreadMethod="pad" gradientUnits="userSpaceOnUse" x1="-98" y1="21" x2="76" y2="-18">
      <stop offset="0%" stop-color="#D22E1F" stop-opacity="0.252"/>
      <stop offset="100%" stop-color="#D22E1F"/>
    </linearGradient>
    <linearGradient id="gradient_50" spreadMethod="pad" gradientUnits="userSpaceOnUse" x1="-4" y1="12" x2="309.0871" y2="108.718">
      <stop offset="0%" stop-color="#D22E1F"/>
      <stop offset="100%" stop-color="#D22E1F"/>
    </linearGradient>
    <linearGradient id="gradient_51" spreadMethod="pad" gradientUnits="userSpaceOnUse" x1="40" y1="-32" x2="-33" y2="47">
      <stop offset="0%" stop-color="#D22E1F" stop-opacity="0.252"/>
      <stop offset="100%" stop-color="#D22E1F"/>
    </linearGradient>
    <linearGradient id="gradient_52" spreadMethod="pad" gradientUnits="userSpaceOnUse" x1="253" y1="326" x2="326" y2="295">
      <stop offset="0%" stop-color="#D22E1F" stop-opacity="0.252"/>
      <stop offset="100%" stop-color="#D22E1F"/>
    </linearGradient>
    <linearGradient id="gradient_53" spreadMethod="pad" gradientUnits="userSpaceOnUse" x1="302" y1="167" x2="235.2817" y2="273.5502">
      <stop offset="0%" stop-color="#D22E1F" stop-opacity="0.252"/>
      <stop offset="100%" stop-color="#D22E1F"/>
    </linearGradient>
    <linearGradient id="gradient_54" spreadMethod="pad" gradientUnits="userSpaceOnUse" x1="3" y1="51" x2="218" y2="125">
      <stop offset="0%" stop-color="#D22E1F"/>
      <stop offset="100%" stop-color="#D22E1F"/>
    </linearGradient>
    <linearGradient id="gradient_55" spreadMethod="pad" gradientUnits="userSpaceOnUse" x1="99" y1="188" x2="-133.4529" y2="-67.4978">
      <stop offset="0%" stop-color="#0074B6"/>
      <stop offset="100%" stop-color="#0074B6" stop-opacity="0.252"/>
    </linearGradient>
    <linearGradient id="gradient_56" spreadMethod="pad" gradientUnits="userSpaceOnUse" x1="-133" y1="-49" x2="368" y2="133">
      <stop offset="0%" stop-color="#D22E1F"/>
      <stop offset="100%" stop-color="#D22E1F"/>
    </linearGradient>
    <linearGradient id="gradient_57" spreadMethod="pad" gradientUnits="userSpaceOnUse" x1="117" y1="257" x2="-41.8201" y2="331.3841">
      <stop offset="0%" stop-color="#D22E1F" stop-opacity="0.252"/>
      <stop offset="100%" stop-color="#D22E1F"/>
    </linearGradient>
    <linearGradient id="gradient_58" spreadMethod="pad" gradientUnits="userSpaceOnUse" x1="12" y1="65" x2="502.107" y2="234.6908">
      <stop offset="0%" stop-color="#D22E1F" stop-opacity="0.252"/>
      <stop offset="100%" stop-color="#D22E1F"/>
    </linearGradient>
    <linearGradient id="gradient_59" spreadMethod="pad" gradientUnits="userSpaceOnUse" x1="7" y1="27" x2="320" y2="253">
      <stop offset="0%" stop-color="#D22E1F" stop-opacity="0.252"/>
      <stop offset="100%" stop-color="#D22E1F"/>
    </linearGradient>
    <linearGradient id="gradient_60" spreadMethod="pad" gradientUnits="userSpaceOnUse" x1="141" y1="304" x2="-163.0314" y2="17.9704">
      <stop offset="0%" stop-color="#0074B6"/>
      <stop offset="100%" stop-color="#0074B6" stop-opacity="0.252"/>
    </linearGradient>
    <linearGradient id="gradient_61" spreadMethod="pad" gradientUnits="userSpaceOnUse" x1="188" y1="274" x2="343" y2="383">
      <stop offset="0%" stop-color="#D22E1F" stop-opacity="0.252"/>
      <stop offset="100%" stop-color="#D22E1F"/>
    </linearGradient>
    <linearGradient id="gradient_62" spreadMethod="pad" gradientUnits="userSpaceOnUse" x1="-3" y1="96" x2="232" y2="219">
      <stop offset="0%" stop-color="#D22E1F" stop-opacity="0.252"/>
      <stop offset="100%" stop-color="#D22E1F"/>
    </linearGradient>
    <linearGradient id="gradient_63" spreadMethod="pad" gradientUnits="userSpaceOnUse" x1="109" y1="638" x2="136" y2="260">
      <stop offset="0%" stop-color="#D22E1F" stop-opacity="0.252"/>
      <stop offset="100%" stop-color="#D22E1F"/>
    </linearGradient>
    <linearGradient id="gradient_64" spreadMethod="pad" gradientUnits="userSpaceOnUse" x1="1" y1="61" x2="279.5698" y2="219.7548">
      <stop offset="0%" stop-color="#D22E1F" stop-opacity="0.252"/>
      <stop offset="100%" stop-color="#D22E1F"/>
    </linearGradient>
    <linearGradient id="gradient_65" spreadMethod="pad" gradientUnits="userSpaceOnUse" x1="39" y1="23" x2="364" y2="300">
      <stop offset="0%" stop-color="#D22E1F" stop-opacity="0.252"/>
      <stop offset="100%" stop-color="#D22E1F"/>
    </linearGradient>
    <linearGradient id="gradient_66" spreadMethod="pad" gradientUnits="userSpaceOnUse" x1="334" y1="326" x2="500" y2="254">
      <stop offset="0%" stop-color="#D22E1F" stop-opacity="0.252"/>
      <stop offset="100%" stop-color="#D22E1F"/>
    </linearGradient>
    <linearGradient id="gradient_67" spreadMethod="pad" gradientUnits="userSpaceOnUse" x1="99" y1="100" x2="-122.5166" y2="-70.6276">
      <stop offset="0%" stop-color="#0074B6"/>
      <stop offset="100%" stop-color="#0074B6" stop-opacity="0.252"/>
    </linearGradient>
    <linearGradient id="gradient_68" spreadMethod="pad" gradientUnits="userSpaceOnUse" x1="22" y1="319" x2="542.6704" y2="123.124">
      <stop offset="0%" stop-color="#D22E1F" stop-opacity="0.252"/>
      <stop offset="100%" stop-color="#D22E1F"/>
    </linearGradient>
    <linearGradient id="gradient_69" spreadMethod="pad" gradientUnits="userSpaceOnUse" x1="-12" y1="80" x2="309" y2="158">
      <stop offset="0%" stop-color="#D22E1F"/>
      <stop offset="100%" stop-color="#D22E1F"/>
    </linearGradient>
    <linearGradient id="gradient_70" spreadMethod="pad" gradientUnits="userSpaceOnUse" x1="85" y1="77" x2="145.1779" y2="206.3824">
      <stop offset="0%" stop-color="#D22E1F" stop-opacity="0.252"/>
      <stop offset="100%" stop-color="#D22E1F"/>
    </linearGradient>
    <linearGradient id="gradient_71" spreadMethod="pad" gradientUnits="userSpaceOnUse" x1="-6" y1="23" x2="89" y2="61">
      <stop offset="0%" stop-color="#D22E1F" stop-opacity="0.252"/>
      <stop offset="100%" stop-color="#D22E1F"/>
    </linearGradient>
  </defs>
  <path d="M244,33 c-16,0 -31,5 -46,14 c-15,9 -25,14 -31,14 c-7,0 -14,-1 -18,-5 l5,-9 c2,1 4,2 6,2 c13,0 21,-13 28,-24 c17,-27 41,-51 66,-51 c23,0 39,11 48,34 l2,-1 c-7,-15 -10,-31 -10,-47 c0,-26 17,-56 51,-90 c7,-7 17,-16 29,-27 l27,-25 c12,-11 20,-21 24,-29 c-12,-3 -18,-9 -18,-19 c0,-12 7,-19 20,-19 c13,0 19,7 19,20 c0,9 -6,21 -17,38 c-17,23 -28,42 -35,55 c-30,56 -46,123 -46,200 c0,76 -23,120 -70,131 v1 c47,11 70,55 70,131 c0,77 16,145 46,201 c7,13 18,32 35,55 c11,17 17,29 17,38 c0,13 -6,19 -19,19 c-13,0 -20,-6 -20,-18 c0,-10 6,-16 18,-19 c-4,-8 -12,-18 -24,-29 l-27,-26 c-12,-11 -22,-20 -29,-27 c-34,-34 -51,-64 -51,-90 c0,-16 3,-31 10,-46 l-2,-2 c-9,23 -25,35 -48,35 c-20,0 -39,-13 -57,-38 c-9,-11 -19,-37 -37,-37 c-2,0 -4,0 -6,1 l-5,-8 c4,-4 11,-5 18,-5 c6,0 16,5 31,14 c15,9 30,14 46,14 c45,0 78,-30 78,-75 c0,-26 -10,-49 -31,-68 l-4,2 c3,4 5,9 5,15 c0,16 -11,27 -32,33 c-26,7 -40,23 -40,45 c0,8 2,16 5,25 l-8,4 c-30,-28 -45,-58 -45,-92 c-9,9 -19,14 -31,14 c-32,0 -52,-22 -73,-47 c-10,-11 -19,-19 -29,-24 l4,-10 c3,2 9,3 16,3 c6,0 12,-4 18,-11 l19,-21 c14,-13 29,-20 45,-20 c14,0 24,4 31,12 c0,-34 15,-65 45,-93 l8,4 c-3,9 -5,18 -5,26 c0,22 14,37 40,44 c21,6 32,18 32,34 c0,6 -2,11 -5,15 l4,1 c21,-19 31,-41 31,-67 c0,-45 -33,-75 -78,-75 Z M215,197 v-2 c-15,-8 -25,-18 -31,-30 c-24,5 -36,15 -36,31 c0,16 12,26 36,31 c6,-12 16,-22 31,-30 Z" fill="#000000" transform="matrix(1,0,0,-1,5,-3618)"/>
  <path d="M-99,46 l-33,-52 c61,30 142,58 211,82 l29,46 c-67,-24 -143,-50 -207,-76 Z" fill="#000000" transform="matrix(1,0,0,-1,807,-3594)"/>
  <path d="M475,468 c3,13 2,31 -17,33 c-36,4 -82,13 -104,-7 c-18,-17 -21,-18 -73,-133 l-70,-18 c-73,-20 -133,-39 -167,-91 c-25,-56 -41,-127 -41,-200 c1,-146 44,-270 63,-410 c16,56 22,133 14,199 l-42,261 c-7,43 24,61 50,75 c65,35 156,44 221,77 c96,49 142,96 166,214 Z" fill="#000000" transform="matrix(1,0,0,-1,490,-3618)"/>
  <path d="M354,564 l-65,-120 l34,-299 l67,112 c-8,108 -24,203 -36,307 Z" fill="#000000" transform="matrix(1,0,0,-1,995,-3618)"/>
  <path d="M-99,-23 l-33,-52 c61,30 142,58 211,82 l29,46 c-67,-24 -143,-50 -207,-76 Z" fill="#000000" transform="matrix(1,0,0,-1,1731,-4295)"/>
  <path d="M764,565 c-3,0 -5,0 -7,-1 c-33,-17 -63,-52 -79,-85 l-72,-146 c-20,-41 -56,-77 -110,-107 c-37,-21 -79,-40 -120,-59 l-22,-10 l-215,-94 c-42,-18 -93,-34 -134,-53 c-3,-3 -5,-5 -5,-7 c0,-2 3,-3 10,-3 c13,0 28,2 34,2 c117,2 236,7 322,40 c78,30 144,77 195,139 c32,40 55,79 69,120 c14,41 34,82 62,126 c4,6 7,10 10,10 c6,0 9,-9 9,-12 l21,-425 l61,117 l-14,440 c0,6 -7,8 -15,8 Z" fill="#000000" transform="matrix(1,0,0,-1,968,-3618)"/>
  <path d="M21,124 l-21,-124 c8,1 14,3 22,5 c2,0 3,1 5,1 c22,6 47,10 70,14 v1 l56,11 c-2,-10 -8,-28 -8,-38 c0,-4 2,-6 6,-6 c20,0 23,39 29,52 c105,27 189,41 288,72 l64,138 c-9,-5 -18,-7 -26,-7 c-12,0 -23,5 -32,15 c-7,25 -17,48 -28,69 c-14,26 -41,53 -78,53 c-13,0 -24,-4 -36,-12 c-61,-42 -103,-137 -130,-212 c-60,-11 -120,-21 -180,-32 h-1 Z M374,198 c1,-2 1,-4 1,-6 c0,-3 -2,-5 -6,-6 l-142,-28 c14,35 26,67 53,91 c9,8 18,12 28,12 c9,0 19,-3 29,-11 c14,-11 27,-29 37,-52 Z" fill="#000000" transform="matrix(1,0,0,-1,1700,-3618)"/>
  <path d="M-99,-23 l-33,-52 c61,30 142,58 211,82 l29,46 c-67,-24 -143,-50 -207,-76 Z" fill="#000000" transform="matrix(1,0,0,-1,2543,-4571)"/>
  <path d="M58,152 c-9,-4 -18,-8 -26,-14 c-26,-20 -114,-114 -64,-142 c11,-6 27,-12 38,-19 c6,-4 -2,-9 -5,-11 c-29,-16 -62,-29 -93,-43 c36,6 71,8 102,30 c37,26 57,69 29,87 c-15,10 -39,11 -51,25 c15,21 41,24 49,42 l21,45 Z" fill="#000000" transform="matrix(1,0,0,-1,2543,-4332)"/>
  <path d="M354,564 l-65,-120 l34,-299 l67,112 c-8,108 -24,203 -36,307 Z" fill="#000000" transform="matrix(1,0,0,-1,2258,-3618)"/>
  <path d="M627,600 c-18,-42 -39,-80 -58,-121 c10,-56 19,-117 27,-175 c0,-4 -5,-10 -14,-18 c-29,-25 -62,-47 -97,-66 c-43,-23 -86,-41 -131,-63 l-215,-94 c-43,-17 -93,-34 -134,-53 c-3,-3 -5,-5 -5,-7 c0,-2 3,-3 10,-3 c13,0 28,2 34,2 c117,2 236,7 322,40 c157,59 286,201 292,403 c-7,55 -19,105 -31,155 Z" fill="#000000" transform="matrix(1,0,0,-1,2231,-3618)"/>
  <path d="M73,569 l28,-425 l74,118 l-28,425 l-74,-118 Z" fill="#000000" transform="matrix(1,0,0,-1,2905,-3618)"/>
  <path d="" fill="#000000" transform="matrix(1,0,0,-1,3153,-3618)"/>
  <path d="M-99,-23 l-33,-52 c61,30 142,58 211,82 l29,46 c-67,-24 -143,-50 -207,-76 Z" fill="#000000" transform="matrix(1,0,0,-1,3668,-4084)"/>
  <path d="M375,139 c15,8 18,39 -2,42 c-7,1 -12,-2 -17,-8 v1 c-13,-15 -28,-24 -46,-29 c-96,-25 -206,-37 -296,-69 c-9,-4 -12,-8 -6,-13 c8,-7 34,-17 78,-30 c44,-13 71,-22 82,-24 c85,-17 128,1 159,60 c13,26 27,52 48,70 Z" fill="#000000" transform="matrix(1,0,0,-1,3299,-3618)"/>
  <path d="M65,-37 l60,119 l-192,-36 l-60,-119 l192,36 Z" fill="#000000" transform="matrix(1,0,0,-1,3813,-3565)"/>
  <path d="M307,31 l2,123 c-30,-4 -54,5 -50,36 c1,28 -82,4 -125,-9 c-52,-16 -83,-34 -94,-55 c-12,-23 -19,-50 -29,-74 c-1,-1 -11,-18 -10,-20 c-7,-28 15,-45 33,-19 c11,11 24,21 36,28 c21,8 48,15 78,22 c30,7 44,6 43,-5 c-5,-31 7,-44 34,-40 c27,4 55,8 82,13 Z" fill="#000000" transform="matrix(1,0,0,-1,3615,-3723)"/>
  <path d="M-99,-23 l-33,-52 c61,30 142,58 211,82 l29,46 c-67,-24 -143,-50 -207,-76 Z" fill="#000000" transform="matrix(1,0,0,-1,4175,-4560)"/>
  <path d="M79,13 l-71,66 l-82,-103 l71,-66 c28,34 55,68 82,103 Z" fill="#000000" transform="matrix(1,0,0,-1,4173,-4365)"/>
  <path d="M274,317 c36,-3 71,-11 105,-21 l42,130 c-32,8 -59,16 -96,17 h-1 c-21,0 -41,-10 -58,-31 c-33,-40 -59,-107 -59,-177 c0,-29 6,-53 18,-71 c-62,-17 -122,-23 -202,-34 l-23,-130 c70,15 143,31 221,49 c78,18 152,46 223,84 l11,23 c12,24 27,58 35,83 c2,5 3,9 3,12 c0,2 0,3 -2,3 h-2 c-24,-9 -47,-20 -69,-31 c-22,-11 -48,-17 -79,-18 c-31,27 -59,62 -67,112 Z" fill="#000000" transform="matrix(1,0,0,-1,3879,-3745)"/>
  <path d="" fill="#000000" transform="matrix(1,0,0,-1,4399,-3618)"/>
  <path d="M79,80 c7,22 11,40 11,54 c0,23 -8,41 -28,41 c-5,0 -10,-2 -15,-4 c-22,-9 -54,-42 -54,-71 c0,-28 28,-43 47,-54 c-6,-6 -14,-13 -24,-20 c-41,-29 -92,-61 -134,-88 c-7,-4 -9,-6 -9,-7 l6,1 c81,20 136,47 179,105 c7,-5 13,-6 18,-13 c8,12 15,23 15,37 v1 c-1,9 -6,14 -12,18 Z M42,134 h3 c12,0 17,-11 17,-25 c0,-6 0,-12 -2,-20 c-10,5 -37,15 -37,29 c0,9 11,15 19,16 Z" fill="#000000" transform="matrix(1,0,0,-1,4914,-4084)"/>
  <path d="M375,139 c15,8 18,39 -2,42 c-7,1 -12,-2 -17,-8 v1 c-13,-15 -28,-24 -46,-29 c-96,-25 -206,-37 -296,-69 c-9,-4 -12,-8 -6,-13 c8,-7 34,-17 78,-30 c44,-13 71,-22 82,-24 c85,-17 128,1 159,60 c13,26 27,52 48,70 Z" fill="#000000" transform="matrix(1,0,0,-1,4545,-3618)"/>
  <path d="M215,549 l21,-320 l74,117 l-21,321 l-74,-118 Z M486,419 c-38,0 -73,-17 -90,-33 c-64,-60 -124,-124 -181,-190 v-1 l-2,-2 c-35,-6 -69,-15 -101,-30 c-44,-20 -77,-60 -98,-108 v-1 c-10,-12 -15,-23 -15,-32 c0,-10 8,-23 17,-23 c6,0 11,5 18,14 c28,28 67,46 109,54 c64,12 130,32 198,58 c68,26 122,65 161,117 c13,17 25,36 38,57 c10,17 16,34 16,51 c0,3 -1,6 -1,9 c-3,32 -34,60 -69,60 Z M456,267 c0,-5 -3,-8 -7,-10 c-57,-28 -124,-42 -195,-56 c36,37 70,76 117,102 c8,5 18,7 27,7 c29,0 58,-18 58,-43 Z" fill="#000000" transform="matrix(1,0,0,-1,4861,-3723)"/>
  <path d="M79,3 c96,-12 244,15 331,41 c86,23 190,64 236,120 c37,46 44,55 59,129 c5,25 -8,39 -39,40 c-31,1 -53,0 -65,-4 c-18,0 -35,-19 -51,-56 c-16,-37 -29,-65 -38,-84 c-44,-13 -94,-26 -140,-35 c-49,-11 -94,-17 -134,-19 c-66,-4 -127,5 -150,46 c-19,32 -11,81 22,146 c4,8 -5,9 -8,5 c-25,-35 -62,-100 -81,-148 c-15,-41 -32,-97 -11,-139 c12,-23 35,-37 69,-42 Z" fill="#000000" transform="matrix(1,0,0,-1,4968,-3548)"/>
  <path d="M79,80 c7,22 11,40 11,54 c0,23 -8,41 -28,41 c-5,0 -10,-2 -15,-4 c-22,-9 -54,-42 -54,-71 c0,-28 28,-43 47,-54 c-6,-6 -14,-13 -24,-20 c-41,-29 -92,-61 -134,-88 c-7,-4 -9,-6 -9,-7 l6,1 c81,20 136,47 179,105 c7,-5 13,-6 18,-13 c8,12 15,23 15,37 v1 c-1,9 -6,14 -12,18 Z M42,134 h3 c12,0 17,-11 17,-25 c0,-6 0,-12 -2,-20 c-10,5 -37,15 -37,29 c0,9 11,15 19,16 Z" fill="#000000" transform="matrix(1,0,0,-1,5821,-4570)"/>
  <path d="M65,-37 l60,119 l-192,-36 l-60,-119 l192,36 Z" fill="#000000" transform="matrix(1,0,0,-1,5786,-4326)"/>
  <path d="M288,149 c8,21 20,51 37,89 c17,38 16,63 -5,75 c-33,19 -66,20 -97,3 c-66,-36 -120,-109 -157,-178 c-20,-37 -35,-67 -45,-88 c-8,-18 -14,-30 -16,-37 c-2,-7 -4,-12 -5,-13 h18 c14,22 32,50 55,83 c23,33 48,60 74,83 c26,23 52,35 77,37 c25,2 46,-16 64,-54 Z" fill="#000000" transform="matrix(1,0,0,-1,5500,-3781)"/>
  <path d="" fill="#000000" transform="matrix(1,0,0,-1,5867,-3618)"/>
  <path d="M354,564 l-65,-120 l34,-299 l67,112 c-8,108 -24,203 -36,307 Z" fill="#000000" transform="matrix(1,0,0,-1,6013,-3618)"/>
  <path d="M-99,-23 l-33,-52 c61,30 142,58 211,82 l29,46 c-67,-24 -143,-50 -207,-76 Z" fill="#000000" transform="matrix(1,0,0,-1,6609,-4295)"/>
  <path d="M627,600 c-18,-42 -39,-80 -58,-121 c10,-56 19,-117 27,-175 c0,-4 -5,-10 -14,-18 c-29,-25 -62,-47 -97,-66 c-43,-23 -86,-41 -131,-63 l-215,-94 c-43,-17 -93,-34 -134,-53 c-3,-3 -5,-5 -5,-7 c0,-2 3,-3 10,-3 c13,0 28,2 34,2 c117,2 236,7 322,40 c157,59 286,201 292,403 c-7,55 -19,105 -31,155 Z" fill="#000000" transform="matrix(1,0,0,-1,5986,-3618)"/>
  <path d="" fill="#000000" transform="matrix(1,0,0,-1,6660,-3618)"/>
  <path d="M47,280 c-79,-25 -144,-77 -177,-149 c-19,-32 -24,-85 5,-109 c24,-20 56,-11 78,4 l23,49 c-22,-12 -82,-36 -89,6 c-2,8 -1,17 3,27 c11,24 30,46 50,64 c29,26 68,56 112,65 c52,11 75,-4 63,-56 c-2,-6 -2,-10 -2,-12 c1,-5 7,0 9,3 c11,12 20,28 23,48 c10,63 -47,75 -98,60 Z M79,80 c7,22 11,40 11,54 c0,23 -8,41 -28,41 c-5,0 -10,-2 -15,-4 c-22,-9 -54,-42 -54,-71 c0,-28 28,-43 47,-54 c-6,-6 -14,-13 -24,-20 c-41,-29 -92,-61 -134,-88 c-7,-4 -9,-6 -9,-7 l6,1 c81,20 136,47 179,105 c7,-5 13,-6 18,-13 c8,12 15,23 15,37 v1 c-1,9 -6,14 -12,18 Z M42,134 h3 c12,0 17,-11 17,-25 c0,-6 0,-12 -2,-20 c-10,5 -37,15 -37,29 c0,9 11,15 19,16 Z" fill="#000000" transform="matrix(1,0,0,-1,7100,-4194)"/>
  <path d="M84,0 c39,0 85,6 110,18 c34,16 63,54 93,95 c28,39 54,71 52,90 c-5,51 -77,35 -103,81 c28,24 51,32 89,42 c8,15 33,45 43,62 c10,17 22,40 8,40 c-14,0 -49,-20 -64,-31 c-91,-63 -182,-181 -156,-226 c11,-19 38,-38 73,-46 c17,-4 28,-14 4,-26 c-48,-24 -128,-52 -172,-80 c-25,-16 -7,-19 23,-19 Z" fill="#000000" transform="matrix(1,0,0,-1,6806,-3618)"/>
  <path d="M73,570 l39,-570 l62,118 l-38,569 l-63,-117 Z" fill="#000000" transform="matrix(1,0,0,-1,7237,-3618)"/>
  <path d="M-99,-23 l-33,-52 c61,30 142,58 211,82 l29,46 c-67,-24 -143,-50 -207,-76 Z" fill="#000000" transform="matrix(1,0,0,-1,7630,-4132)"/>
  <path d="M196,165 c-55,-17 -113,-29 -174,-36 l-22,-129 c89,21 165,36 239,74 c40,20 71,42 91,66 c37,46 44,56 59,130 c5,25 -8,38 -39,39 c-31,1 -53,0 -65,-4 c-18,0 -34,-18 -51,-55 c-17,-37 -29,-66 -38,-85 Z" fill="#000000" transform="matrix(1,0,0,-1,7349,-3618)"/>
  <path d="M-99,-23 l-33,-52 c61,30 142,58 211,82 l29,46 c-67,-24 -143,-50 -207,-76 Z" fill="#000000" transform="matrix(1,0,0,-1,8020,-4360)"/>
  <path d="M261,188 l13,-22 c9,-15 25,-24 48,-25 c19,-2 41,4 65,18 c3,1 11,7 16,7 c1,-4 4,-7 9,-7 c29,0 87,32 99,49 c32,40 45,107 52,174 c-2,7 -4,5 -5,-5 c-12,-46 -43,-73 -92,-82 c5,19 7,36 6,53 c0,5 -2,6 -5,1 c-5,-19 -16,-38 -33,-56 c-19,-20 -71,-44 -86,-9 c-5,11 -14,21 -28,29 c-62,35 -120,-4 -154,-38 c-58,-58 -110,-148 -145,-225 c-8,-18 -14,-30 -16,-37 c-2,-7 -4,-12 -5,-13 h18 c39,61 97,146 153,184 c36,24 66,25 90,4 Z" fill="#000000" transform="matrix(1,0,0,-1,7559,-3815)"/>
  <path d="" fill="#000000" transform="matrix(1,0,0,-1,8149,-3618)"/>
  <path d="M79,80 c7,22 11,40 11,54 c0,23 -8,41 -28,41 c-5,0 -10,-2 -15,-4 c-22,-9 -54,-42 -54,-71 c0,-28 28,-43 47,-54 c-6,-6 -14,-13 -24,-20 c-41,-29 -92,-61 -134,-88 c-7,-4 -9,-6 -9,-7 l6,1 c81,20 136,47 179,105 c7,-5 13,-6 18,-13 c8,12 15,23 15,37 v1 c-1,9 -6,14 -12,18 Z M42,134 h3 c12,0 17,-11 17,-25 c0,-6 0,-12 -2,-20 c-10,5 -37,15 -37,29 c0,9 11,15 19,16 Z" fill="#000000" transform="matrix(1,0,0,-1,8650,-4242)"/>
  <path d="M-12,-22 c8,-15 21,-33 45,-33 c9,0 16,3 22,9 c27,26 31,81 35,129 l-18,-17 v-4 c0,-25 -10,-51 -31,-54 h-2 c-7,0 -14,5 -22,13 c-8,8 -11,20 -11,35 v12 c0,2 1,2 1,4 v1 l-15,-15 c-1,-20 -9,-41 -19,-53 c-7,-9 -24,-14 -37,-14 c-18,0 -27,12 -28,28 v5 c0,14 5,28 5,40 v1 c-8,0 -13,-15 -15,-20 c0,-1 -1,-2 -1,-3 c0,-1 -1,-1 -1,-2 c-4,-15 -11,-39 -11,-59 c0,-31 12,-51 44,-53 c27,3 55,24 59,50 Z" fill="#000000" transform="matrix(1,0,0,-1,8660,-4071)"/>
  <path d="M79,13 l-71,66 l-82,-103 l71,-66 c28,34 55,68 82,103 Z" fill="#000000" transform="matrix(1,0,0,-1,8537,-3425)"/>
  <path d="M489,43 c-1,-5 -2,-9 -2,-12 c0,-4 1,-5 3,-5 h1 c25,26 45,57 60,92 c15,35 28,66 34,88 c0,1 2,28 -4,14 c-9,-20 -25,-40 -44,-50 c-69,-36 -213,-43 -249,-43 c-174,0 -220,45 -217,116 c2,41 15,79 39,124 c9,22 -9,29 -20,12 c-24,-39 -48,-83 -71,-134 c-13,-30 -19,-59 -19,-86 c0,-161 204,-159 245,-159 c84,0 187,20 244,43 Z" fill="#000000" transform="matrix(1,0,0,-1,8295,-3618)"/>
  <path d="M79,80 c7,22 11,40 11,54 c0,23 -8,41 -28,41 c-5,0 -10,-2 -15,-4 c-22,-9 -54,-42 -54,-71 c0,-28 28,-43 47,-54 c-6,-6 -14,-13 -24,-20 c-41,-29 -92,-61 -134,-88 c-7,-4 -9,-6 -9,-7 l6,1 c81,20 136,47 179,105 c7,-5 13,-6 18,-13 c8,12 15,23 15,37 v1 c-1,9 -6,14 -12,18 Z M42,134 h3 c12,0 17,-11 17,-25 c0,-6 0,-12 -2,-20 c-10,5 -37,15 -37,29 c0,9 11,15 19,16 Z" fill="#000000" transform="matrix(1,0,0,-1,8963,-4224)"/>
  <path d="M393,238 c-90,-52 -212,-88 -366,-108 v-1 h-3 l-24,-129 c4,1 12,3 23,5 c211,54 341,118 390,192 c29,45 50,80 73,134 c8,18 5,32 -7,41 c-18,14 -50,24 -96,31 c-46,7 -80,10 -101,9 c-18,-38 -37,-73 -54,-112 c-5,-12 -5,-18 1,-19 c13,-3 34,-5 64,-6 c36,-1 104,-4 111,-28 c-2,-3 -5,-6 -11,-9 Z" fill="#000000" transform="matrix(1,0,0,-1,8787,-3644)"/>
  <path d="M91,77 c-22,-13 -59,-27 -84,-35 l-7,-17 l98,-25 c27,36 46,74 56,114 c9,35 14,71 12,108 l-17,290 l-74,-117 c6,-97 15,-216 16,-318 Z" fill="#000000" transform="matrix(1,0,0,-1,9061,-4014)"/>
  <path d="M73,569 l28,-425 l74,118 l-28,425 l-74,-118 Z" fill="#000000" transform="matrix(1,0,0,-1,9286,-3618)"/>
  <path d="M241,359 c16,0 31,-5 46,-14 c15,-9 25,-14 31,-14 c7,0 14,1 18,5 l-5,9 c-2,-1 -4,-2 -6,-2 c-13,0 -21,13 -28,24 c-17,27 -41,51 -66,51 c-23,0 -39,-11 -48,-34 l-2,1 c7,15 10,31 10,47 c0,26 -17,56 -51,90 c-7,7 -17,16 -29,27 l-27,25 c-12,11 -20,21 -24,29 c12,3 18,9 18,19 c0,12 -7,19 -20,19 c-13,0 -19,-7 -19,-20 c0,-9 6,-21 17,-38 c17,-23 28,-42 35,-55 c30,-56 46,-123 46,-200 c0,-76 23,-120 70,-131 v-1 c-47,-11 -70,-55 -70,-131 c0,-77 -16,-145 -46,-201 c-7,-13 -18,-32 -35,-55 c-11,-17 -17,-29 -17,-38 c0,-13 6,-19 19,-19 c13,0 20,6 20,18 c0,10 -6,16 -18,19 c4,8 12,18 24,29 l27,26 c12,11 22,20 29,27 c34,34 51,64 51,90 c0,16 -3,31 -10,46 l2,2 c9,-23 25,-35 48,-35 c20,0 39,13 57,38 c9,11 19,37 37,37 c2,0 4,0 6,-1 l5,8 c-4,4 -11,5 -18,5 c-6,0 -16,-5 -31,-14 c-15,-9 -30,-14 -46,-14 c-45,0 -78,30 -78,75 c0,26 10,49 31,68 l4,-2 c-3,-4 -5,-9 -5,-15 c0,-16 11,-27 32,-33 c26,-7 40,-23 40,-45 c0,-8 -2,-16 -5,-25 l8,-4 c30,28 45,58 45,92 c9,-9 19,-14 31,-14 c32,0 52,22 73,47 c10,11 19,19 29,24 l-4,10 c-3,-2 -9,-3 -16,-3 c-6,0 -12,4 -18,11 l-19,21 c-14,13 -29,20 -45,20 c-14,0 -24,-4 -31,-12 c0,34 -15,65 -45,93 l-8,-4 c3,-9 5,-18 5,-26 c0,-22 -14,-37 -40,-44 c-21,-6 -32,-18 -32,-34 c0,-6 2,-11 5,-15 l-4,-1 c-21,19 -31,41 -31,67 c0,45 33,75 78,75 Z M270,195 v2 c15,8 25,18 31,30 c24,-5 36,-15 36,-31 c0,-16 -12,-26 -36,-31 c-6,12 -16,22 -31,30 Z" fill="#000000" transform="matrix(1,0,0,-1,9534,-3618)"/>
  <path d="M456,-231 c0,11 -7,26 -19,44 c-17,22 -27,41 -34,54 c-30,55 -45,105 -45,181 c0,68 -19,126 -53,148 c34,21 53,79 53,147 c0,76 15,126 45,181 c7,13 17,32 34,54 c12,18 19,33 19,44 c0,18 -11,29 -29,29 c-18,0 -30,-10 -30,-28 c0,-10 4,-18 13,-24 c-4,-5 -9,-10 -16,-17 l-27,-26 c-12,-11 -22,-20 -29,-27 c-35,-35 -54,-53 -54,-82 c0,-3 0,-7 0,-10 c-8,4 -18,7 -30,7 c-24,0 -46,-15 -65,-42 c-10,-12 -18,-33 -29,-33 c-2,0 -2,0 -10,4 l-13,-21 c4,-12 18,-15 30,-15 c8,0 21,6 36,15 c14,9 27,13 41,13 c41,0 68,-24 68,-65 c0,-16 -4,-38 -12,-55 c-4,15 -18,25 -37,31 c-23,6 -33,17 -33,35 c0,9 3,17 7,30 l-22,11 c-29,-26 -47,-54 -52,-85 c-6,3 -14,5 -22,5 c-36,0 -60,-25 -81,-50 c-12,-14 -21,-21 -34,-25 l12,-31 c12,7 15,8 21,8 c3,0 5,-2 10,-8 l20,-21 c15,-15 34,-23 52,-23 c8,0 16,1 22,4 c5,-32 23,-61 52,-87 l22,11 c-4,12 -7,22 -7,31 c0,18 9,28 33,34 c19,6 32,17 37,32 c8,-17 12,-40 12,-56 c0,-41 -27,-65 -68,-65 c-14,0 -27,4 -41,13 c-15,9 -28,15 -36,15 c-12,0 -26,-3 -30,-15 l13,-21 c8,4 8,4 10,4 c11,0 19,-21 29,-33 c19,-27 41,-42 65,-42 c12,0 22,3 30,7 c0,-3 0,-7 0,-10 c0,-29 19,-47 54,-82 c7,-7 17,-16 29,-27 l27,-26 c7,-7 12,-12 16,-17 c-9,-6 -13,-14 -13,-24 c0,-18 12,-28 30,-28 c18,0 29,11 29,29 Z M197,196 c-6,-5 -13,-12 -18,-20 c-16,5 -21,10 -21,20 c0,10 5,15 21,20 c5,-8 12,-15 18,-20 Z" fill="#000000" transform="matrix(1,0,0,-1,0,-2153)"/>
  <path d="M-104,65 l-33,-53 c-5,-9 4,-20 13,-15 c31,15 63,29 98,41 l109,39 l30,49 c6,10 -3,18 -12,15 c-66,-23 -142,-50 -205,-76 Z" fill="#000000" transform="matrix(1,0,0,-1,802,-2129)"/>
  <path d="M475,458 c7,38 -16,53 -60,53 h-11 c-19,0 -34,-2 -44,-5 c-11,-1 -22,-6 -31,-16 c-9,-10 -19,-24 -28,-44 l-34,-76 c-39,-12 -80,-22 -117,-35 c-52,-18 -88,-33 -117,-77 c-23,-53 -41,-123 -41,-198 c1,-75 10,-141 25,-203 c15,-62 28,-126 37,-194 c1,-13 19,-13 23,-2 c12,41 17,83 17,128 c0,23 -1,46 -4,68 l-40,253 c-1,3 -1,4 -1,6 v6 c0,11 3,18 9,24 c35,30 83,50 137,61 c88,19 170,61 221,117 c30,34 47,79 59,134 Z" fill="#000000" transform="matrix(1,0,0,-1,485,-2153)"/>
  <path d="M329,151 l66,112 c-5,64 -13,134 -22,194 l-14,106 c-1,11 -17,15 -22,5 l-65,-120 l34,-293 c1,-12 17,-13 23,-4 Z" fill="#000000" transform="matrix(1,0,0,-1,990,-2153)"/>
  <path d="M-104,-4 l-33,-53 c-5,-9 4,-20 13,-15 c31,15 63,29 98,41 l109,39 l30,49 c6,10 -3,18 -12,15 c-66,-23 -142,-50 -205,-76 Z" fill="#000000" transform="matrix(1,0,0,-1,1726,-2830)"/>
  <path d="M679,414 l20,-403 c1,-12 15,-16 22,-6 l62,93 l-15,453 c-1,11 -10,19 -23,19 h-4 c-4,0 -8,-1 -12,-3 c-36,-18 -63,-51 -81,-87 l-70,-142 c-21,-43 -57,-73 -101,-98 c-36,-22 -76,-39 -116,-56 l-20,-10 l-208,-91 c-42,-18 -90,-32 -130,-51 c-6,-4 -11,-10 -11,-17 c0,-10 7,-15 21,-15 h7 l27,2 c57,1 111,4 165,8 c56,5 106,15 149,32 c119,47 221,133 263,257 c14,42 32,79 55,115 Z" fill="#000000" transform="matrix(1,0,0,-1,963,-2153)"/>
  <path d="M14,133 l-21,-119 c-1,-8 6,-15 14,-14 c27,5 65,15 93,20 c1,0 2,0 4,1 c8,1 9,2 17,3 c6,1 11,3 16,4 l-3,-16 v1 c-1,-2 -1,-3 -1,-4 v-3 c0,-12 6,-18 18,-18 h3 c15,0 25,17 28,33 c2,7 3,14 5,20 c92,23 185,41 273,68 l7,7 l62,133 c4,11 -6,20 -16,15 c-7,-4 -14,-5 -20,-5 c-7,0 -13,3 -19,9 c-16,53 -46,123 -114,123 c-15,0 -29,-5 -42,-14 c-24,-16 -43,-36 -59,-61 c-28,-41 -49,-93 -68,-142 c-58,-11 -107,-20 -165,-30 c-6,0 -11,-6 -12,-11 Z M302,252 c6,0 13,-2 21,-8 c13,-11 22,-25 30,-42 l-110,-21 c5,12 10,23 16,34 c7,13 24,37 43,37 Z" fill="#000000" transform="matrix(1,0,0,-1,1683,-2164)"/>
  <path d="M-104,-4 l-33,-53 c-5,-9 4,-20 13,-15 c31,15 63,29 98,41 l109,39 l30,49 c6,10 -3,18 -12,15 c-66,-23 -142,-50 -205,-76 Z" fill="#000000" transform="matrix(1,0,0,-1,2526,-3106)"/>
  <path d="M46,110 l21,44 c4,11 -6,21 -16,16 c-25,-12 -33,-19 -53,-41 c-17,-18 -59,-64 -59,-94 c0,-16 8,-28 24,-37 c8,-5 17,-7 24,-13 c-18,-10 -40,-18 -59,-27 l-21,-9 c-12,-5 -5,-25 7,-23 c17,3 33,6 50,8 c41,7 81,39 94,73 c3,6 4,13 4,21 c0,19 -14,32 -31,39 c-7,3 -20,5 -26,9 c2,2 4,3 7,5 c14,8 27,14 34,29 Z" fill="#000000" transform="matrix(1,0,0,-1,2526,-2867)"/>
  <path d="M329,151 l66,112 c-5,64 -13,134 -22,194 l-14,106 c-1,11 -17,15 -22,5 l-65,-120 l34,-293 c1,-12 17,-13 23,-4 Z" fill="#000000" transform="matrix(1,0,0,-1,2241,-2153)"/>
  <path d="M566,306 c-3,-3 -6,-6 -10,-9 c-55,-48 -125,-82 -196,-113 l-20,-10 l-208,-91 c-41,-18 -90,-32 -130,-51 c-6,-4 -12,-9 -12,-17 c0,-10 8,-15 22,-15 l33,2 c57,1 111,4 166,8 c164,14 278,84 355,186 c53,71 81,153 83,247 c-7,54 -17,102 -29,151 c-3,11 -18,13 -23,2 c-11,-24 -21,-47 -33,-70 l-24,-50 c10,-54 19,-114 26,-170 Z" fill="#000000" transform="matrix(1,0,0,-1,2214,-2153)"/>
  <path d="M63,564 l28,-414 c1,-12 15,-15 21,-5 l74,116 l-28,415 c-1,12 -16,14 -22,5 l-73,-117 Z" fill="#000000" transform="matrix(1,0,0,-1,2888,-2153)"/>
  <path d="" fill="#000000" transform="matrix(1,0,0,-1,3136,-2153)"/>
  <path d="M-104,-4 l-33,-53 c-5,-9 4,-20 13,-15 c31,15 63,29 98,41 l109,39 l30,49 c6,10 -3,18 -12,15 c-66,-23 -142,-50 -205,-76 Z" fill="#000000" transform="matrix(1,0,0,-1,3651,-2619)"/>
  <path d="M389,160 c4,22 -4,35 -23,38 c-12,3 -22,-2 -29,-12 c-11,-12 -23,-19 -37,-23 c-46,-12 -94,-22 -144,-30 c-52,-8 -100,-21 -145,-37 c-17,-8 -21,-20 -7,-33 c27,-18 133,-48 160,-54 c20,-4 37,-6 53,-6 c13,0 26,1 38,4 c31,8 56,30 75,66 c12,23 25,47 43,63 c9,5 14,13 16,24 Z" fill="#000000" transform="matrix(1,0,0,-1,3282,-2153)"/>
  <path d="M72,-29 l57,113 c6,10 -3,19 -12,17 c-60,-12 -120,-23 -183,-34 c-3,-1 -8,-3 -9,-6 l-56,-114 c-5,-10 3,-19 12,-17 c61,11 122,23 183,34 c2,1 7,5 8,7 Z" fill="#000000" transform="matrix(1,0,0,-1,3796,-2100)"/>
  <path d="M45,17 c10,10 20,17 30,24 c22,9 47,14 73,21 c8,1 16,3 24,3 c2,0 3,0 3,1 c-6,-36 11,-54 47,-49 l79,13 c5,1 10,6 10,12 l2,119 c0,7 -5,13 -13,12 c-20,-3 -38,1 -35,21 c1,15 -7,23 -23,25 c-24,3 -62,-5 -114,-21 c-54,-17 -86,-36 -97,-59 c-12,-23 -20,-49 -30,-73 c-3,-8 -11,-15 -9,-24 c-4,-19 1,-29 11,-37 c18,-14 31,-2 42,12 Z" fill="#000000" transform="matrix(1,0,0,-1,3598,-2258)"/>
  <path d="M-104,-4 l-33,-53 c-5,-9 4,-20 13,-15 c31,15 63,29 98,41 l109,39 l30,49 c6,10 -3,18 -12,15 c-66,-23 -142,-50 -205,-76 Z" fill="#000000" transform="matrix(1,0,0,-1,4158,-3095)"/>
  <path d="M83,32 l-66,63 c-5,5 -14,3 -18,-2 c-25,-34 -52,-65 -78,-98 c-4,-5 -3,-11 1,-15 l67,-63 c5,-5 13,-4 17,1 c20,24 19,25 39,49 c13,16 27,32 40,49 c3,5 2,12 -2,16 Z" fill="#000000" transform="matrix(1,0,0,-1,4156,-2900)"/>
  <path d="M479,270 h-5 c-1,0 -2,-1 -4,-3 c-11,-4 -22,-9 -33,-14 c-30,-13 -56,-30 -99,-32 c-24,21 -44,49 -54,84 c28,-3 56,-10 84,-18 c7,-2 12,2 14,7 l41,125 c2,8 -3,15 -9,16 c-42,9 -65,16 -96,17 c-25,0 -47,-12 -66,-35 c-32,-40 -58,-103 -59,-171 c-1,-3 -1,-4 -1,-7 c0,-24 5,-44 12,-61 c-55,-13 -110,-19 -179,-29 c-5,-1 -9,-5 -10,-10 l-23,-125 c-1,-9 5,-16 14,-14 c72,15 142,31 214,48 c81,18 152,46 218,82 l6,6 l7,15 c12,27 29,60 38,88 c3,7 4,12 4,15 c0,10 -5,16 -14,16 Z" fill="#000000" transform="matrix(1,0,0,-1,3862,-2280)"/>
  <path d="" fill="#000000" transform="matrix(1,0,0,-1,4382,-2153)"/>
  <path d="M-124,-67 l7,1 c78,19 133,44 176,98 c5,-4 16,-16 23,-4 c7,13 16,23 16,41 c-1,9 -5,17 -10,22 c6,19 9,35 9,49 v5 c0,24 -13,45 -37,45 c-39,0 -78,-47 -78,-83 c0,-28 21,-42 39,-53 c-34,-29 -80,-55 -119,-80 l-22,-14 c-9,-6 -14,-11 -14,-16 c0,-6 5,-11 10,-11 Z M33,124 c2,3 5,5 9,6 c6,2 7,-6 7,-13 v-4 c-6,4 -11,7 -16,11 Z" fill="#000000" transform="matrix(1,0,0,-1,4897,-2619)"/>
  <path d="M389,160 c4,22 -4,35 -23,38 c-12,3 -22,-2 -29,-12 c-11,-12 -23,-19 -37,-23 c-46,-12 -94,-22 -144,-30 c-52,-8 -100,-21 -145,-37 c-17,-8 -21,-20 -7,-33 c27,-18 133,-48 160,-54 c20,-4 37,-6 53,-6 c13,0 26,1 38,4 c31,8 56,30 75,66 c12,23 25,47 43,63 c9,5 14,13 16,24 Z" fill="#000000" transform="matrix(1,0,0,-1,4528,-2153)"/>
  <path d="M20,-1 c12,0 21,11 28,19 c26,24 56,39 97,47 c62,12 126,31 193,56 c68,26 121,65 161,118 c20,28 54,68 54,111 v6 c0,19 -9,33 -19,45 c-15,18 -35,27 -59,27 c-41,0 -78,-17 -96,-34 c-32,-30 -63,-61 -92,-93 l27,44 l-20,313 c-1,12 -15,16 -22,6 l-73,-117 l21,-314 c0,-2 1,-4 2,-5 c-6,-6 -11,-13 -17,-19 c-34,-7 -66,-16 -97,-29 c-33,-15 -61,-41 -82,-75 c-6,-10 -12,-23 -18,-34 c-8,-11 -16,-21 -16,-37 c0,-16 12,-35 28,-35 Z M433,271 v-1 c0,-48 -94,-34 -148,-45 c25,26 51,51 84,69 c7,4 13,5 20,5 c22,0 41,-12 44,-28 Z" fill="#000000" transform="matrix(1,0,0,-1,4844,-2258)"/>
  <path d="M94,226 c0,26 10,58 29,96 c3,7 3,12 2,16 c-5,14 -24,8 -30,1 c-32,-43 -57,-88 -79,-145 c-11,-28 -21,-60 -21,-95 c0,-82 58,-99 141,-99 c20,0 40,1 62,3 c74,7 141,20 207,40 c50,13 100,32 143,53 c62,32 99,67 126,118 v-1 c12,21 17,49 24,80 c7,37 -15,53 -59,53 h-11 c-17,0 -31,-1 -44,-4 c-11,-1 -22,-6 -31,-16 c-25,-27 -44,-87 -61,-122 c-40,-12 -87,-24 -129,-32 c-44,-10 -90,-19 -139,-19 h-10 c-63,0 -120,11 -120,73 Z" fill="#000000" transform="matrix(1,0,0,-1,4951,-2083)"/>
  <path d="M-124,-67 l7,1 c78,19 133,44 176,98 c5,-4 16,-16 23,-4 c7,13 16,23 16,41 c-1,9 -5,17 -10,22 c6,19 9,35 9,49 v5 c0,24 -13,45 -37,45 c-39,0 -78,-47 -78,-83 c0,-28 21,-42 39,-53 c-34,-29 -80,-55 -119,-80 l-22,-14 c-9,-6 -14,-11 -14,-16 c0,-6 5,-11 10,-11 Z M33,124 c2,3 5,5 9,6 c6,2 7,-6 7,-13 v-4 c-6,4 -11,7 -16,11 Z" fill="#000000" transform="matrix(1,0,0,-1,5804,-3105)"/>
  <path d="M72,-29 l57,113 c6,10 -3,19 -12,17 c-60,-12 -120,-23 -183,-34 c-3,-1 -8,-3 -9,-6 l-56,-114 c-5,-10 3,-19 12,-17 c61,11 122,23 183,34 c2,1 7,5 8,7 Z" fill="#000000" transform="matrix(1,0,0,-1,5769,-2861)"/>
  <path d="M271,151 l21,1 c11,28 22,53 36,84 c6,15 12,30 12,48 c0,18 -7,32 -22,41 c-18,11 -37,16 -56,16 c-19,0 -35,-6 -49,-13 c-69,-38 -120,-106 -157,-177 c-16,-29 -31,-59 -44,-86 c-5,-11 -35,-65 -9,-65 h17 c3,0 9,3 10,5 c17,26 34,52 53,80 v-1 c22,31 45,58 69,79 c11,10 24,18 35,23 c40,19 62,12 84,-35 Z" fill="#000000" transform="matrix(1,0,0,-1,5483,-2316)"/>
  <path d="" fill="#000000" transform="matrix(1,0,0,-1,5850,-2153)"/>
  <path d="M329,151 l66,112 c-5,64 -13,134 -22,194 l-14,106 c-1,11 -17,15 -22,5 l-65,-120 l34,-293 c1,-12 17,-13 23,-4 Z" fill="#000000" transform="matrix(1,0,0,-1,5996,-2153)"/>
  <path d="M-104,-4 l-33,-53 c-5,-9 4,-20 13,-15 c31,15 63,29 98,41 l109,39 l30,49 c6,10 -3,18 -12,15 c-66,-23 -142,-50 -205,-76 Z" fill="#000000" transform="matrix(1,0,0,-1,6592,-2830)"/>
  <path d="M566,306 c-3,-3 -6,-6 -10,-9 c-55,-48 -125,-82 -196,-113 l-20,-10 l-208,-91 c-41,-18 -90,-32 -130,-51 c-6,-4 -12,-9 -12,-17 c0,-10 8,-15 22,-15 l33,2 c57,1 111,4 166,8 c164,14 278,84 355,186 c53,71 81,153 83,247 c-7,54 -17,102 -29,151 c-3,11 -18,13 -23,2 c-11,-24 -21,-47 -33,-70 l-24,-50 c10,-54 19,-114 26,-170 Z" fill="#000000" transform="matrix(1,0,0,-1,5969,-2153)"/>
  <path d="" fill="#000000" transform="matrix(1,0,0,-1,6643,-2153)"/>
  <path d="M130,279 c-16,27 -47,35 -91,21 c-90,-28 -152,-78 -186,-153 c-13,-22 -24,-57 -12,-87 c16,-40 55,-56 104,-24 l30,64 l-13,-8 c-6,-3 -14,-7 -23,-10 c-32,-12 -51,-10 -58,5 c-6,13 -4,20 5,41 c6,15 22,32 45,53 c40,36 77,57 110,64 c52,11 68,-4 56,-51 c-4,-16 0,-22 10,-18 c7,3 16,16 26,39 c10,23 9,44 -3,64 Z M-124,-67 l7,1 c78,19 133,44 176,98 c5,-4 16,-16 23,-4 c7,13 16,23 16,41 c-1,9 -5,17 -10,22 c6,19 9,35 9,49 v5 c0,24 -13,45 -37,45 c-39,0 -78,-47 -78,-83 c0,-28 21,-42 39,-53 c-34,-29 -80,-55 -119,-80 l-22,-14 c-9,-6 -14,-11 -14,-16 c0,-6 5,-11 10,-11 Z M33,124 c2,3 5,5 9,6 c6,2 7,-6 7,-13 v-4 c-6,4 -11,7 -16,11 Z" fill="#000000" transform="matrix(1,0,0,-1,7083,-2729)"/>
  <path d="M85,0 c41,0 88,6 112,19 c26,15 48,34 66,58 l49,68 c10,14 18,25 23,36 c5,11 8,20 8,27 v3 c0,28 -28,40 -48,49 c-17,7 -35,11 -47,24 c22,17 43,23 73,31 l7,5 c5,8 9,13 16,23 c9,12 18,25 25,38 c8,15 16,26 16,39 c0,11 -6,17 -18,17 c-4,0 -9,-1 -14,-3 c-31,-10 -65,-32 -102,-65 c-18,-16 -34,-33 -48,-50 c-26,-31 -52,-66 -63,-109 c-1,-4 -2,-8 -2,-12 c0,-17 10,-35 28,-51 v1 c15,-15 38,-23 62,-29 l-3,-1 l-37,-15 c-44,-19 -92,-38 -130,-63 c-7,-5 -19,-13 -19,-22 c0,-20 26,-18 46,-18 Z" fill="#000000" transform="matrix(1,0,0,-1,6789,-2153)"/>
  <path d="M60,565 l39,-554 c0,-13 17,-14 22,-5 l61,118 l-37,553 c-1,11 -17,14 -22,4 l-63,-116 Z" fill="#000000" transform="matrix(1,0,0,-1,7220,-2153)"/>
  <path d="M-104,-4 l-33,-53 c-5,-9 4,-20 13,-15 c31,15 63,29 98,41 l109,39 l30,49 c6,10 -3,18 -12,15 c-66,-23 -142,-50 -205,-76 Z" fill="#000000" transform="matrix(1,0,0,-1,7608,-2667)"/>
  <path d="M218,258 l-34,-77 c-51,-15 -103,-26 -161,-33 c-5,-1 -9,-5 -10,-10 l-21,-124 c-1,-9 5,-16 14,-14 l38,10 l50,12 c74,18 144,43 198,82 c30,22 59,59 74,86 c8,15 16,42 24,80 c9,40 -20,53 -59,53 h-11 c-19,0 -34,-2 -44,-5 c-28,-2 -46,-35 -58,-60 Z" fill="#000000" transform="matrix(1,0,0,-1,7327,-2153)"/>
  <path d="M-104,-4 l-33,-53 c-5,-9 4,-20 13,-15 c31,15 63,29 98,41 l109,39 l30,49 c6,10 -3,18 -12,15 c-66,-23 -142,-50 -205,-76 Z" fill="#000000" transform="matrix(1,0,0,-1,7998,-2895)"/>
  <path d="M247,187 l12,-21 c10,-18 28,-28 55,-30 c21,-2 45,4 71,19 h-1 l6,3 c4,-3 7,-4 12,-4 c14,0 34,5 58,17 c20,9 37,19 48,34 c33,41 45,110 53,177 c-13,46 -22,46 -29,-4 c-9,-33 -29,-56 -62,-66 c2,12 3,24 2,37 c0,40 -12,28 -27,4 c-8,-31 -39,-73 -81,-71 c-5,0 -9,3 -12,9 c-6,13 -17,24 -33,34 c-18,10 -35,15 -54,15 c-17,0 -35,-5 -48,-11 c-45,-21 -84,-65 -113,-105 c-34,-48 -66,-103 -90,-159 c-5,-11 -36,-65 -9,-65 h16 c3,0 10,3 11,5 c39,64 85,132 144,175 c13,8 28,16 45,16 c9,0 18,-2 26,-9 Z" fill="#000000" transform="matrix(1,0,0,-1,7537,-2350)"/>
  <path d="" fill="#000000" transform="matrix(1,0,0,-1,8127,-2153)"/>
  <path d="M-124,-67 l7,1 c78,19 133,44 176,98 c5,-4 16,-16 23,-4 c7,13 16,23 16,41 c-1,9 -5,17 -10,22 c6,19 9,35 9,49 v5 c0,24 -13,45 -37,45 c-39,0 -78,-47 -78,-83 c0,-28 21,-42 39,-53 c-34,-29 -80,-55 -119,-80 l-22,-14 c-9,-6 -14,-11 -14,-16 c0,-6 5,-11 10,-11 Z M33,124 c2,3 5,5 9,6 c6,2 7,-6 7,-13 v-4 c-6,4 -11,7 -16,11 Z" fill="#000000" transform="matrix(1,0,0,-1,8628,-2777)"/>
  <path d="M-10,-33 c9,-10 24,-21 42,-21 c6,0 10,1 15,3 c40,17 46,81 50,134 c0,3 1,5 1,8 c0,9 -10,15 -17,8 l-18,-16 c-1,-1 -3,-6 -3,-8 v-4 c0,-5 -1,-11 -3,-18 l1,1 c-3,-11 -9,-22 -19,-25 h-1 c-3,0 -8,3 -15,10 c-6,5 -7,14 -7,25 v6 c0,2 1,3 1,5 v6 c0,9 -10,14 -17,7 l-18,-16 c-1,-18 -7,-37 -15,-48 c-6,-8 -19,-12 -29,-12 c-2,0 -2,-1 -2,-1 c-9,3 -13,8 -15,17 v6 c0,10 1,20 3,29 l1,5 c1,3 0,2 0,4 c0,5 -3,10 -8,11 c-16,1 -22,-14 -26,-25 l1,2 c-1,-3 -2,-4 -2,-7 c0,-1 -1,-1 -1,-2 c-6,-17 -12,-37 -12,-59 v-5 c0,-35 20,-55 54,-57 h2 c23,3 46,20 57,37 Z" fill="#000000" transform="matrix(1,0,0,-1,8638,-2606)"/>
  <path d="M83,32 l-66,63 c-5,5 -14,3 -18,-2 c-25,-34 -52,-65 -78,-98 c-4,-5 -3,-11 1,-15 l67,-63 c5,-5 13,-4 17,1 c20,24 19,25 39,49 c13,16 27,32 40,49 c3,5 2,12 -2,16 Z" fill="#000000" transform="matrix(1,0,0,-1,8515,-1960)"/>
  <path d="M464,36 c2,-7 7,-11 15,-11 c2,0 7,2 8,3 c13,13 25,28 35,43 c18,28 33,65 45,97 c7,19 15,32 15,54 c0,11 -4,17 -13,17 c-5,0 -10,-4 -15,-11 c-8,-19 -20,-33 -36,-41 c-15,-8 -42,-17 -83,-25 c-42,-8 -85,-13 -128,-15 h-29 c-68,0 -143,6 -175,42 c-11,14 -18,34 -18,58 v6 c2,29 14,65 37,108 c3,6 4,11 4,16 c0,11 -8,21 -22,21 c-8,0 -15,-4 -22,-13 c-12,-19 -24,-40 -35,-62 c-21,-41 -55,-101 -55,-157 c0,-74 37,-117 95,-140 c41,-15 90,-26 144,-26 h11 c83,0 160,14 222,36 Z" fill="#000000" transform="matrix(1,0,0,-1,8273,-2153)"/>
  <path d="M-124,-67 l7,1 c78,19 133,44 176,98 c5,-4 16,-16 23,-4 c7,13 16,23 16,41 c-1,9 -5,17 -10,22 c6,19 9,35 9,49 v5 c0,24 -13,45 -37,45 c-39,0 -78,-47 -78,-83 c0,-28 21,-42 39,-53 c-34,-29 -80,-55 -119,-80 l-22,-14 c-9,-6 -14,-11 -14,-16 c0,-6 5,-11 10,-11 Z M33,124 c2,3 5,5 9,6 c6,2 7,-6 7,-13 v-4 c-6,4 -11,7 -16,11 Z" fill="#000000" transform="matrix(1,0,0,-1,8941,-2759)"/>
  <path d="M31,149 l-2,-1 c-5,0 -11,-4 -12,-9 l-25,-125 c-2,-9 5,-16 14,-14 l23,5 c103,26 186,56 250,88 c64,32 109,66 134,102 l8,13 c20,32 39,62 55,98 c5,12 14,28 14,44 c0,6 -1,12 -4,17 c-17,31 -66,39 -110,46 c-35,5 -67,10 -100,8 c-4,0 -9,-3 -10,-6 l-18,-36 h1 c-9,-19 -10,-18 -19,-36 c-6,-13 -39,-68 -6,-72 c7,-2 16,-2 26,-3 c36,-3 80,-4 111,-10 c8,-2 12,-4 16,-6 c-93,-54 -210,-85 -346,-103 Z" fill="#000000" transform="matrix(1,0,0,-1,8765,-2179)"/>
  <path d="M174,227 l-16,280 c0,12 -16,15 -22,6 l-74,-117 l10,-157 c3,-49 5,-97 6,-147 c-20,-11 -51,-21 -73,-29 c-2,0 -6,-5 -7,-6 l-7,-16 c-4,-8 2,-15 8,-17 l94,-24 c5,-2 10,2 12,5 c27,35 47,73 57,114 c8,31 12,62 12,93 v15 Z" fill="#000000" transform="matrix(1,0,0,-1,9053,-2536)"/>
  <path d="M63,564 l28,-414 c1,-12 15,-15 21,-5 l74,116 l-28,415 c-1,12 -16,14 -22,5 l-73,-117 Z" fill="#000000" transform="matrix(1,0,0,-1,9278,-2153)"/>
  <path d="M88,-231 c0,10 -4,18 -13,24 c4,5 9,10 16,17 l27,26 c12,11 22,20 29,27 c35,35 54,53 54,82 c0,3 0,7 0,10 c8,-4 18,-7 30,-7 c24,0 46,15 65,42 c10,12 18,33 29,33 c2,0 2,0 10,-4 l13,21 c-4,12 -18,15 -30,15 c-8,0 -21,-6 -36,-15 c-14,-9 -27,-13 -41,-13 c-41,0 -68,24 -68,65 c0,16 4,38 12,55 c4,-15 18,-25 37,-31 c23,-6 33,-17 33,-35 c0,-9 -3,-17 -7,-30 l22,-11 c29,26 47,54 52,85 c6,-3 14,-5 22,-5 c36,0 60,25 81,50 c12,14 21,21 34,25 l-12,31 c-12,-7 -15,-8 -21,-8 c-3,0 -5,2 -10,8 l-20,21 c-15,15 -34,23 -52,23 c-8,0 -16,-1 -22,-4 c-5,32 -23,61 -52,87 l-22,-11 c4,-12 7,-22 7,-31 c0,-18 -9,-28 -33,-34 c-19,-6 -32,-17 -37,-32 c-8,17 -12,40 -12,56 c0,41 27,65 68,65 c14,0 27,-4 41,-13 c15,-9 28,-15 36,-15 c12,0 26,3 30,15 l-13,21 c-8,-4 -8,-4 -10,-4 c-11,0 -19,21 -29,33 c-19,27 -41,42 -65,42 c-12,0 -22,-3 -30,-7 c0,3 0,7 0,10 c0,29 -19,47 -54,82 c-7,7 -17,16 -29,27 l-27,26 c-7,7 -12,12 -16,17 c9,6 13,14 13,24 c0,18 -12,28 -30,28 c-18,0 -29,-11 -29,-29 c0,-11 7,-26 19,-44 c17,-22 27,-41 34,-54 c30,-55 45,-105 45,-181 c0,-68 19,-126 53,-148 c-34,-21 -53,-79 -53,-147 c0,-76 -15,-126 -45,-181 c-7,-13 -17,-32 -34,-54 c-12,-18 -19,-33 -19,-44 c0,-18 11,-29 29,-29 c18,0 30,10 30,28 Z M288,196 c6,5 13,12 18,20 c16,-5 21,-10 21,-20 c0,-10 -5,-15 -21,-20 c-5,8 -12,15 -18,20 Z" fill="#000000" transform="matrix(1,0,0,-1,9526,-2153)"/>
  <path d="M256,199 v-8 c56,-16 66,-59 66,-83 c0,-45 -33,-75 -78,-75 c-16,0 -31,5 -46,14 c-15,9 -25,14 -31,14 c-7,0 -14,-1 -18,-5 l5,-8 c2,1 4,1 6,1 c18,0 28,-26 37,-37 c18,-25 37,-38 57,-38 c23,0 39,12 48,35 l2,-2 c-7,-15 -10,-30 -10,-46 c0,-26 17,-56 51,-90 c7,-7 17,-16 29,-27 l27,-26 c12,-11 20,-21 24,-29 c-12,-3 -18,-9 -18,-19 c0,-12 7,-18 20,-18 c13,0 19,6 19,19 c0,9 -6,21 -17,38 c-17,23 -28,42 -35,55 c-30,56 -46,124 -46,201 c0,76 -23,120 -71,131 c48,10 71,55 71,131 c0,77 16,145 46,201 c7,13 18,32 35,55 c11,17 17,29 17,38 c0,13 -6,19 -19,19 c-13,0 -20,-6 -20,-18 c0,-10 6,-16 18,-19 c-4,-8 -12,-18 -24,-29 l-27,-26 c-12,-11 -22,-20 -29,-27 c-34,-34 -51,-64 -51,-90 c0,-16 3,-31 10,-46 l-2,-2 c-9,23 -25,35 -48,35 c-20,0 -39,-13 -57,-38 c-9,-11 -19,-37 -37,-37 c-2,0 -4,0 -6,1 l-5,-8 c4,-4 11,-5 18,-5 c6,0 16,5 31,14 c15,9 30,14 46,14 c45,0 78,-30 78,-75 c0,-25 -11,-69 -66,-85 Z" fill="url(#gradient_0)" transform="matrix(1,0,0,-1,5,-688)"/>
  <path d="M217,51 l8,4 c-3,9 -5,18 -5,26 c0,22 14,37 40,44 c21,6 32,18 32,34 c0,19 -18,25 -36,36 c14,9 36,19 36,38 c0,16 -11,27 -32,33 c-26,7 -40,23 -40,45 c0,8 2,16 5,25 l-8,4 c-30,-28 -45,-58 -45,-92 c-9,9 -19,14 -31,14 c-32,0 -52,-22 -73,-47 c-10,-11 -19,-19 -29,-24 l4,-10 c3,2 9,3 16,3 c6,0 12,-4 18,-11 l19,-21 c13,-14 29,-20 45,-20 c14,0 24,4 31,12 c0,-34 15,-65 45,-93 Z M184,165 c-24,5 -36,15 -36,31 c0,16 12,26 36,31 c6,-12 16,-22 31,-30 v-2 c-15,-8 -25,-18 -31,-30 Z" fill="url(#gradient_1)" transform="matrix(1,0,0,-1,5,-688)"/>
  <path d="M-99,-23 l-33,-52 c61,30 142,58 211,82 l29,46 c-67,-24 -143,-50 -207,-76 Z" fill="url(#gradient_2)" transform="matrix(1,0,0,-1,807,-733)"/>
  <path d="M475,468 c3,13 2,31 -17,33 c-36,4 -82,13 -104,-7 c-18,-17 -21,-18 -73,-133 l-70,-18 c-73,-20 -133,-39 -167,-91 c-25,-56 -41,-127 -41,-200 c1,-146 44,-270 63,-410 c16,56 22,133 14,199 l-42,261 c-7,43 24,61 50,75 c65,35 156,44 221,77 c96,49 142,96 166,214 Z" fill="url(#gradient_3)" transform="matrix(1,0,0,-1,490,-688)"/>
  <path d="M354,564 l-65,-120 l34,-299 l67,112 c-8,108 -24,203 -36,307 Z" fill="url(#gradient_4)" transform="matrix(1,0,0,-1,995,-688)"/>
  <path d="M-99,-23 l-33,-52 c61,30 142,58 211,82 l29,46 c-67,-24 -143,-50 -207,-76 Z" fill="url(#gradient_2)" transform="matrix(1,0,0,-1,1731,-1365)"/>
  <path d="M764,565 c-3,0 -5,0 -7,-1 c-33,-17 -63,-52 -79,-85 l-72,-146 c-20,-41 -56,-77 -110,-107 c-37,-21 -79,-40 -120,-59 l-22,-10 l-215,-94 c-42,-18 -93,-34 -134,-53 c-3,-3 -5,-5 -5,-7 c0,-2 3,-3 10,-3 c13,0 28,2 34,2 c117,2 236,7 322,40 c78,30 144,77 195,139 c32,40 55,79 69,120 c14,41 34,82 62,126 c4,6 7,10 10,10 c6,0 9,-9 9,-12 l21,-425 l61,117 l-14,440 c0,6 -7,8 -15,8 Z" fill="url(#gradient_5)" transform="matrix(1,0,0,-1,968,-688)"/>
  <path d="M516,216 l-494,-92 h-1 l-21,-124 c161,34 307,70 469,112 l47,104 Z" fill="url(#gradient_6)" transform="matrix(1,0,0,-1,1700,-688)"/>
  <path d="M469,112 l63,138 c-9,-5 -18,-7 -26,-7 c-12,0 -23,5 -32,15 c-7,25 -17,48 -28,69 c-14,26 -41,53 -78,53 c-104,0 -191,-285 -216,-376 c-3,-11 2,-16 6,-16 c7,0 13,5 16,12 c10,30 68,261 134,261 c9,0 19,-3 29,-11 c14,-11 27,-29 37,-52 c23,-47 62,-74 95,-86 Z" fill="url(#gradient_7)" transform="matrix(1,0,0,-1,1700,-688)"/>
  <path d="M-99,-23 l-33,-52 c61,30 142,58 211,82 l29,46 c-67,-24 -143,-50 -207,-76 Z" fill="url(#gradient_2)" transform="matrix(1,0,0,-1,2543,-1641)"/>
  <path d="M58,152 c-9,-4 -18,-8 -26,-14 c-26,-20 -114,-114 -64,-142 c11,-6 27,-12 38,-19 c6,-4 -2,-9 -5,-11 c-29,-16 -62,-29 -93,-43 c36,6 71,8 102,30 c37,26 57,69 29,87 c-15,10 -39,11 -51,25 c15,21 41,24 49,42 l21,45 Z" fill="url(#gradient_8)" transform="matrix(1,0,0,-1,2543,-1402)"/>
  <path d="M354,564 l-65,-120 l34,-299 l67,112 c-8,108 -24,203 -36,307 Z" fill="url(#gradient_4)" transform="matrix(1,0,0,-1,2258,-688)"/>
  <path d="M605,245 c31,58 51,125 53,200 c-7,55 -19,105 -31,155 c-18,-42 -39,-80 -58,-121 c12,-65 27,-168 36,-234 Z" fill="url(#gradient_9)" transform="matrix(1,0,0,-1,2231,-688)"/>
  <path d="M649,368 c-20,-33 -51,-69 -67,-82 c-29,-25 -62,-47 -97,-66 c-43,-23 -85,-43 -131,-63 l-215,-94 c-42,-18 -93,-34 -134,-53 c-3,-3 -5,-5 -5,-7 c0,-2 3,-3 10,-3 c13,0 28,2 34,2 c117,2 236,7 322,40 c136,51 252,165 283,326 Z" fill="url(#gradient_10)" transform="matrix(1,0,0,-1,2231,-688)"/>
  <path d="M73,569 l28,-425 l74,118 l-28,425 l-74,-118 Z" fill="url(#gradient_11)" transform="matrix(1,0,0,-1,2905,-688)"/>
  <path d="" fill="#000000" transform="matrix(1,0,0,-1,3153,-688)"/>
  <path d="M-99,-23 l-33,-52 c61,30 142,58 211,82 l29,46 c-67,-24 -143,-50 -207,-76 Z" fill="url(#gradient_2)" transform="matrix(1,0,0,-1,3668,-1154)"/>
  <path d="M375,139 c15,8 18,39 -2,42 c-7,1 -12,-2 -17,-8 v1 c-13,-15 -28,-24 -46,-29 c-96,-25 -206,-37 -296,-69 c-9,-4 -12,-8 -6,-13 c8,-7 34,-17 78,-30 c44,-13 71,-22 82,-24 c85,-17 128,1 159,60 c13,26 27,52 48,70 Z" fill="url(#gradient_12)" transform="matrix(1,0,0,-1,3299,-688)"/>
  <path d="M65,-37 l60,119 l-192,-36 l-60,-119 l192,36 Z" fill="url(#gradient_13)" transform="matrix(1,0,0,-1,3813,-635)"/>
  <path d="M307,31 l2,123 c-30,-4 -54,5 -50,36 c1,28 -82,4 -125,-9 c-52,-16 -83,-34 -94,-55 c-12,-23 -19,-50 -29,-74 c-1,-1 -11,-18 -10,-20 c-7,-28 15,-45 33,-19 c11,11 24,21 36,28 c21,8 48,15 78,22 c30,7 44,6 43,-5 c-5,-31 7,-44 34,-40 c27,4 55,8 82,13 Z" fill="url(#gradient_14)" transform="matrix(1,0,0,-1,3615,-793)"/>
  <path d="M-99,-23 l-33,-52 c61,30 142,58 211,82 l29,46 c-67,-24 -143,-50 -207,-76 Z" fill="url(#gradient_2)" transform="matrix(1,0,0,-1,4175,-1630)"/>
  <path d="M79,13 l-71,66 l-82,-103 l71,-66 c28,34 55,68 82,103 Z" fill="url(#gradient_15)" transform="matrix(1,0,0,-1,4173,-1435)"/>
  <path d="M244,318 c46,0 91,-9 135,-22 l42,130 c-32,8 -59,16 -96,17 h-1 c-17,0 -34,-7 -49,-21 l-31,-104 Z" fill="url(#gradient_16)" transform="matrix(1,0,0,-1,3879,-815)"/>
  <path d="M275,422 c-3,-3 -6,-6 -9,-10 c-33,-40 -59,-107 -59,-177 c0,-82 64,-123 108,-146 l136,148 c-27,-13 -68,-31 -110,-32 c-35,30 -87,83 -66,217 Z" fill="url(#gradient_17)" transform="matrix(1,0,0,-1,3879,-815)"/>
  <path d="M23,130 l-23,-130 c70,15 143,31 221,49 c78,18 152,46 223,84 c1,2 4,9 11,23 c12,24 27,58 35,83 c2,5 3,9 3,12 c0,2 0,3 -2,3 h-2 c-147,-70 -304,-106 -466,-124 Z" fill="url(#gradient_18)" transform="matrix(1,0,0,-1,3879,-815)"/>
  <path d="" fill="#000000" transform="matrix(1,0,0,-1,4399,-688)"/>
  <path d="M79,80 c7,22 11,40 11,54 c0,23 -8,41 -28,41 c-5,0 -10,-2 -15,-4 c-22,-9 -54,-42 -54,-71 c0,-28 28,-43 47,-54 c-6,-6 -14,-13 -24,-20 c-41,-29 -92,-61 -134,-88 c-7,-4 -9,-6 -9,-7 l6,1 c81,20 136,47 179,105 c7,-5 13,-6 18,-13 c8,12 15,23 15,37 v1 c-1,9 -6,14 -12,18 Z M42,134 h3 c12,0 17,-11 17,-25 c0,-6 0,-12 -2,-20 c-10,5 -37,15 -37,29 c0,9 11,15 19,16 Z" fill="url(#gradient_19)" transform="matrix(1,0,0,-1,4914,-1154)"/>
  <path d="M375,139 c15,8 18,39 -2,42 c-7,1 -12,-2 -17,-8 v1 c-13,-15 -28,-24 -46,-29 c-96,-25 -206,-37 -296,-69 c-9,-4 -12,-8 -6,-13 c8,-7 34,-17 78,-30 c44,-13 71,-22 82,-24 c85,-17 128,1 159,60 c13,26 27,52 48,70 Z" fill="url(#gradient_12)" transform="matrix(1,0,0,-1,4545,-688)"/>
  <path d="M486,419 c-38,0 -73,-17 -90,-33 c-64,-60 -124,-124 -181,-190 v-1 l-2,-2 c-35,-6 -69,-15 -101,-30 c-44,-20 -77,-60 -98,-108 v-1 c-10,-12 -15,-23 -15,-32 c0,-10 8,-23 17,-23 c6,0 11,5 18,14 c28,28 67,46 109,54 c64,12 130,32 198,58 c68,26 122,65 161,117 c13,17 25,36 38,57 c10,17 16,34 16,51 c0,3 -1,6 -1,9 c-3,32 -34,60 -69,60 Z M456,267 c0,-5 -3,-8 -7,-10 c-57,-28 -124,-42 -195,-56 c36,37 70,76 117,102 c8,5 18,7 27,7 c29,0 58,-18 58,-43 Z" fill="url(#gradient_20)" transform="matrix(1,0,0,-1,4861,-793)"/>
  <path d="M0,504 l21,-320 l74,117 l-21,321 l-74,-118 Z" fill="url(#gradient_21)" transform="matrix(1,0,0,-1,5076,-838)"/>
  <path d="M79,3 c96,-12 244,15 331,41 c86,23 190,64 236,120 c37,46 44,55 59,129 c5,25 -8,39 -39,40 c-31,1 -53,0 -65,-4 c-18,0 -35,-19 -51,-56 c-16,-37 -29,-65 -38,-84 c-44,-13 -94,-26 -140,-35 c-49,-11 -94,-17 -134,-19 c-66,-4 -127,5 -150,46 c-19,32 -11,81 22,146 c4,8 -5,9 -8,5 c-25,-35 -62,-100 -81,-148 c-15,-41 -32,-97 -11,-139 c12,-23 35,-37 69,-42 Z" fill="url(#gradient_22)" transform="matrix(1,0,0,-1,4968,-618)"/>
  <path d="M79,80 c7,22 11,40 11,54 c0,23 -8,41 -28,41 c-5,0 -10,-2 -15,-4 c-22,-9 -54,-42 -54,-71 c0,-28 28,-43 47,-54 c-6,-6 -14,-13 -24,-20 c-41,-29 -92,-61 -134,-88 c-7,-4 -9,-6 -9,-7 l6,1 c81,20 136,47 179,105 c7,-5 13,-6 18,-13 c8,12 15,23 15,37 v1 c-1,9 -6,14 -12,18 Z M42,134 h3 c12,0 17,-11 17,-25 c0,-6 0,-12 -2,-20 c-10,5 -37,15 -37,29 c0,9 11,15 19,16 Z" fill="url(#gradient_19)" transform="matrix(1,0,0,-1,5821,-1640)"/>
  <path d="M65,-37 l60,119 l-192,-36 l-60,-119 l192,36 Z" fill="url(#gradient_13)" transform="matrix(1,0,0,-1,5786,-1396)"/>
  <path d="M288,149 c8,21 20,51 37,89 c17,38 16,63 -5,75 c-33,19 -66,20 -97,3 c-66,-36 -120,-109 -157,-178 c-20,-37 -35,-67 -45,-88 c-8,-18 -14,-30 -16,-37 c-2,-7 -4,-12 -5,-13 h18 c14,22 32,50 55,83 c23,33 48,60 74,83 c26,23 52,35 77,37 c25,2 46,-16 64,-54 Z" fill="url(#gradient_23)" transform="matrix(1,0,0,-1,5500,-851)"/>
  <path d="" fill="#000000" transform="matrix(1,0,0,-1,5867,-688)"/>
  <path d="M354,564 l-65,-120 l34,-299 l67,112 c-8,108 -24,203 -36,307 Z" fill="url(#gradient_4)" transform="matrix(1,0,0,-1,6013,-688)"/>
  <path d="M-99,-23 l-33,-52 c61,30 142,58 211,82 l29,46 c-67,-24 -143,-50 -207,-76 Z" fill="url(#gradient_2)" transform="matrix(1,0,0,-1,6609,-1365)"/>
  <path d="M605,245 c31,58 51,125 53,200 c-7,55 -19,105 -31,155 c-18,-42 -39,-80 -58,-121 c12,-65 27,-168 36,-234 Z" fill="url(#gradient_9)" transform="matrix(1,0,0,-1,5986,-688)"/>
  <path d="M649,368 c-20,-33 -51,-69 -67,-82 c-29,-25 -62,-47 -97,-66 c-43,-23 -85,-43 -131,-63 l-215,-94 c-42,-18 -93,-34 -134,-53 c-3,-3 -5,-5 -5,-7 c0,-2 3,-3 10,-3 c13,0 28,2 34,2 c117,2 236,7 322,40 c136,51 252,165 283,326 Z" fill="url(#gradient_10)" transform="matrix(1,0,0,-1,5986,-688)"/>
  <path d="" fill="#000000" transform="matrix(1,0,0,-1,6660,-688)"/>
  <path d="M47,280 c-79,-25 -144,-77 -177,-149 c-19,-32 -24,-85 5,-109 c24,-20 56,-11 78,4 l23,49 c-22,-12 -82,-36 -89,6 c-2,8 -1,17 3,27 c11,24 30,46 50,64 c29,26 68,56 112,65 c52,11 75,-4 63,-56 c-2,-6 -2,-10 -2,-12 c1,-5 7,0 9,3 c11,12 20,28 23,48 c10,63 -47,75 -98,60 Z" fill="url(#gradient_24)" transform="matrix(1,0,0,-1,7100,-1264)"/>
  <path d="M79,80 c7,22 11,40 11,54 c0,23 -8,41 -28,41 c-5,0 -10,-2 -15,-4 c-22,-9 -54,-42 -54,-71 c0,-28 28,-43 47,-54 c-6,-6 -14,-13 -24,-20 c-41,-29 -92,-61 -134,-88 c-7,-4 -9,-6 -9,-7 l6,1 c81,20 136,47 179,105 c7,-5 13,-6 18,-13 c8,12 15,23 15,37 v1 c-1,9 -6,14 -12,18 Z M42,134 h3 c12,0 17,-11 17,-25 c0,-6 0,-12 -2,-20 c-10,5 -37,15 -37,29 c0,9 11,15 19,16 Z" fill="url(#gradient_19)" transform="matrix(1,0,0,-1,7100,-1264)"/>
  <path d="M219,268 c6,7 12,12 17,16 c28,24 51,32 89,42 c8,15 33,45 43,62 c10,17 22,40 8,40 c-14,0 -49,-20 -64,-31 c-41,-28 -81,-68 -112,-107 l19,-22 Z" fill="url(#gradient_25)" transform="matrix(1,0,0,-1,6806,-688)"/>
  <path d="M222,316 c-50,-56 -83,-116 -66,-145 c11,-19 38,-38 73,-46 c17,-4 28,-14 4,-26 c-48,-24 -128,-52 -172,-80 c-25,-16 -7,-19 23,-19 c39,0 85,6 110,18 c34,16 63,54 93,95 c28,39 54,71 52,90 c-5,51 -78,35 -103,81 c-6,11 -11,21 -14,32 Z" fill="url(#gradient_26)" transform="matrix(1,0,0,-1,6806,-688)"/>
  <path d="M73,570 l39,-570 l62,118 l-38,569 l-63,-117 Z" fill="url(#gradient_27)" transform="matrix(1,0,0,-1,7237,-688)"/>
  <path d="M-99,-23 l-33,-52 c61,30 142,58 211,82 l29,46 c-67,-24 -143,-50 -207,-76 Z" fill="url(#gradient_2)" transform="matrix(1,0,0,-1,7630,-1202)"/>
  <path d="M196,165 c-55,-17 -113,-29 -174,-36 l-22,-129 c89,21 165,36 239,74 c40,20 71,42 91,66 c37,46 44,56 59,130 c5,25 -8,38 -39,39 c-31,1 -53,0 -65,-4 c-18,0 -34,-18 -51,-55 c-17,-37 -29,-66 -38,-85 Z" fill="url(#gradient_28)" transform="matrix(1,0,0,-1,7349,-688)"/>
  <path d="M-99,-23 l-33,-52 c61,30 142,58 211,82 l29,46 c-67,-24 -143,-50 -207,-76 Z" fill="url(#gradient_2)" transform="matrix(1,0,0,-1,8020,-1430)"/>
  <path d="M261,188 l13,-22 c9,-15 25,-23 48,-25 c41,-3 80,26 84,31 c37,42 69,125 66,176 c0,5 -2,6 -5,1 c-5,-19 -16,-38 -33,-56 c-19,-20 -71,-44 -86,-9 c-5,11 -14,21 -28,29 c-62,35 -120,-4 -154,-38 c-58,-58 -110,-148 -145,-225 c-8,-18 -14,-30 -16,-37 c-2,-7 -4,-12 -5,-13 h18 c39,61 97,146 153,184 c36,24 66,25 90,4 Z" fill="url(#gradient_29)" transform="matrix(1,0,0,-1,7559,-885)"/>
  <path d="M402,168 c1,-4 5,-9 10,-9 c29,0 78,26 98,50 c35,41 46,106 53,173 c-2,7 -4,5 -5,-5 c-12,-46 -43,-73 -92,-82 l-64,-127 Z" fill="url(#gradient_30)" transform="matrix(1,0,0,-1,7559,-885)"/>
  <path d="" fill="#000000" transform="matrix(1,0,0,-1,8149,-688)"/>
  <path d="M79,80 c7,22 11,40 11,54 c0,23 -8,41 -28,41 c-5,0 -10,-2 -15,-4 c-22,-9 -54,-42 -54,-71 c0,-28 28,-43 47,-54 c-6,-6 -14,-13 -24,-20 c-41,-29 -92,-61 -134,-88 c-7,-4 -9,-6 -9,-7 l6,1 c81,20 136,47 179,105 c7,-5 13,-6 18,-13 c8,12 15,23 15,37 v1 c-1,9 -6,14 -12,18 Z M42,134 h3 c12,0 17,-11 17,-25 c0,-6 0,-12 -2,-20 c-10,5 -37,15 -37,29 c0,9 11,15 19,16 Z" fill="url(#gradient_19)" transform="matrix(1,0,0,-1,8650,-1312)"/>
  <path d="M-12,-22 c8,-15 21,-33 45,-33 c9,0 16,3 22,9 c27,26 31,81 35,129 l-18,-17 v-4 c0,-25 -10,-51 -31,-54 h-2 c-7,0 -14,5 -22,13 c-8,8 -11,20 -11,35 v12 c0,2 1,2 1,4 v1 l-15,-15 c-1,-20 -9,-41 -19,-53 c-7,-9 -24,-14 -37,-14 c-18,0 -27,12 -28,28 v5 c0,14 5,28 5,40 v1 c-8,0 -13,-15 -15,-20 c0,-1 -1,-2 -1,-3 c0,-1 -1,-1 -1,-2 c-4,-15 -11,-39 -11,-59 c0,-31 12,-51 44,-53 c27,3 55,24 59,50 Z" fill="url(#gradient_31)" transform="matrix(1,0,0,-1,8660,-1141)"/>
  <path d="M79,13 l-71,66 l-82,-103 l71,-66 c28,34 55,68 82,103 Z" fill="url(#gradient_15)" transform="matrix(1,0,0,-1,8537,-495)"/>
  <path d="M517,57 c13,19 25,39 34,61 c15,35 28,66 34,88 c0,1 2,28 -4,14 c-9,-20 -25,-40 -44,-50 c-69,-36 -213,-43 -249,-43 c-174,0 -220,45 -217,116 c2,41 15,79 39,124 c9,22 -9,29 -20,12 c-24,-39 -48,-83 -71,-134 c-13,-30 -19,-59 -19,-86 c0,-161 204,-159 245,-159 c100,0 230,29 272,57 Z" fill="url(#gradient_32)" transform="matrix(1,0,0,-1,8295,-688)"/>
  <path d="M79,80 c7,22 11,40 11,54 c0,23 -8,41 -28,41 c-5,0 -10,-2 -15,-4 c-22,-9 -54,-42 -54,-71 c0,-28 28,-43 47,-54 c-6,-6 -14,-13 -24,-20 c-41,-29 -92,-61 -134,-88 c-7,-4 -9,-6 -9,-7 l6,1 c81,20 136,47 179,105 c7,-5 13,-6 18,-13 c8,12 15,23 15,37 v1 c-1,9 -6,14 -12,18 Z M42,134 h3 c12,0 17,-11 17,-25 c0,-6 0,-12 -2,-20 c-10,5 -37,15 -37,29 c0,9 11,15 19,16 Z" fill="url(#gradient_19)" transform="matrix(1,0,0,-1,8963,-1294)"/>
  <path d="M393,238 c-90,-52 -212,-88 -366,-108 v-1 h-3 l-24,-129 c4,1 12,3 23,5 c211,54 341,118 390,192 c29,45 50,80 73,134 c8,18 5,32 -7,41 c-18,14 -50,24 -96,31 c-46,7 -80,10 -101,9 c-18,-38 -37,-73 -54,-112 c-5,-12 -5,-18 1,-19 c13,-3 34,-5 64,-6 c36,-1 104,-4 111,-28 c-2,-3 -5,-6 -11,-9 Z" fill="url(#gradient_33)" transform="matrix(1,0,0,-1,8787,-714)"/>
  <path d="M7,42 l-7,-17 l98,-25 c27,36 46,74 56,114 c-72,-45 -118,-63 -147,-72 Z" fill="url(#gradient_34)" transform="matrix(1,0,0,-1,9061,-1084)"/>
  <path d="M154,114 c9,35 14,71 12,108 l-17,290 l-74,-117 c6,-102 16,-228 16,-333 l63,52 Z" fill="url(#gradient_35)" transform="matrix(1,0,0,-1,9061,-1084)"/>
  <path d="M73,569 l28,-425 l74,118 l-28,425 l-74,-118 Z" fill="url(#gradient_11)" transform="matrix(1,0,0,-1,9286,-688)"/>
  <path d="M256,199 v-8 c56,-16 66,-59 66,-83 c0,-45 -33,-75 -78,-75 c-16,0 -31,5 -46,14 c-15,9 -25,14 -31,14 c-7,0 -14,-1 -18,-5 l5,-8 c2,1 4,1 6,1 c18,0 28,-26 37,-37 c18,-25 37,-38 57,-38 c23,0 39,12 48,35 l2,-2 c-7,-15 -10,-30 -10,-46 c0,-26 17,-56 51,-90 c7,-7 17,-16 29,-27 l27,-26 c12,-11 20,-21 24,-29 c-12,-3 -18,-9 -18,-19 c0,-12 7,-18 20,-18 c13,0 19,6 19,19 c0,9 -6,21 -17,38 c-17,23 -28,42 -35,55 c-30,56 -46,124 -46,201 c0,76 -23,120 -71,131 c48,10 71,55 71,131 c0,77 16,145 46,201 c7,13 18,32 35,55 c11,17 17,29 17,38 c0,13 -6,19 -19,19 c-13,0 -20,-6 -20,-18 c0,-10 6,-16 18,-19 c-4,-8 -12,-18 -24,-29 l-27,-26 c-12,-11 -22,-20 -29,-27 c-34,-34 -51,-64 -51,-90 c0,-16 3,-31 10,-46 l-2,-2 c-9,23 -25,35 -48,35 c-20,0 -39,-13 -57,-38 c-9,-11 -19,-37 -37,-37 c-2,0 -4,0 -6,1 l-5,-8 c4,-4 11,-5 18,-5 c6,0 16,5 31,14 c15,9 30,14 46,14 c45,0 78,-30 78,-75 c0,-25 -11,-69 -66,-85 Z" fill="url(#gradient_0)" transform="matrix(-1,0,0,1,10019,-1080)"/>
  <path d="M217,51 l8,4 c-3,9 -5,18 -5,26 c0,22 14,37 40,44 c21,6 32,18 32,34 c0,19 -18,25 -36,36 c14,9 36,19 36,38 c0,16 -11,27 -32,33 c-26,7 -40,23 -40,45 c0,8 2,16 5,25 l-8,4 c-30,-28 -45,-58 -45,-92 c-9,9 -19,14 -31,14 c-32,0 -52,-22 -73,-47 c-10,-11 -19,-19 -29,-24 l4,-10 c3,2 9,3 16,3 c6,0 12,-4 18,-11 l19,-21 c13,-14 29,-20 45,-20 c14,0 24,4 31,12 c0,-34 15,-65 45,-93 Z M184,165 c-24,5 -36,15 -36,31 c0,16 12,26 36,31 c6,-12 16,-22 31,-30 v-2 c-15,-8 -25,-18 -31,-30 Z" fill="url(#gradient_1)" transform="matrix(-1,0,0,1,10019,-1080)"/>
  <path d="M256,195 c40,-19 56,-51 56,-104 c0,-41 -27,-65 -68,-65 c-14,0 -27,4 -41,13 c-15,9 -28,15 -36,15 c-12,0 -26,-3 -30,-15 l13,-21 c8,4 8,4 10,4 c11,0 19,-21 29,-33 c19,-27 41,-42 65,-42 c12,0 22,3 30,7 v-10 c0,-29 19,-47 54,-82 c7,-7 17,-16 29,-27 l27,-26 c7,-7 12,-12 16,-17 c-9,-6 -13,-14 -13,-24 c0,-18 12,-28 30,-28 c18,0 29,11 29,29 c0,11 -7,26 -19,44 c-17,22 -27,41 -34,54 c-30,55 -45,105 -45,181 c0,68 -19,126 -53,148 c34,21 53,79 53,147 c0,76 15,126 45,181 c7,13 17,32 34,54 c12,18 19,33 19,44 c0,18 -11,29 -29,29 c-18,0 -30,-10 -30,-28 c0,-10 4,-18 13,-24 c-4,-5 -9,-10 -16,-17 l-27,-26 c-12,-11 -22,-20 -29,-27 c-35,-35 -54,-53 -54,-82 v-10 c-8,4 -18,7 -30,7 c-24,0 -46,-15 -65,-42 c-10,-12 -18,-33 -29,-33 c-2,0 -2,0 -10,4 l-13,-21 c4,-12 18,-15 30,-15 c8,0 21,6 36,15 c14,9 27,13 41,13 c41,0 68,-24 68,-65 c0,-55 -16,-80 -56,-105 Z" fill="url(#gradient_36)" transform="matrix(1,0,0,-1,0,777)"/>
  <path d="M302,159 c-1,26 -9,36 -46,36 c25,-1 46,8 46,38 c0,21 -15,36 -39,43 c-23,6 -33,17 -33,35 c0,9 3,17 7,30 l-22,11 c-29,-26 -47,-54 -52,-85 c-6,3 -14,5 -22,5 c-36,0 -60,-25 -81,-50 c-12,-14 -21,-21 -34,-25 l12,-31 c12,7 15,8 21,8 c3,0 5,-2 10,-8 l20,-21 c15,-15 34,-23 52,-23 c8,0 16,1 22,4 c5,-32 23,-61 52,-87 l22,11 c-4,12 -7,22 -7,31 c0,18 9,28 33,34 c24,7 40,23 39,44 Z M197,196 c-6,-5 -13,-12 -18,-20 c-16,5 -21,10 -21,20 c0,10 5,15 21,20 c5,-8 12,-15 18,-20 Z" fill="url(#gradient_37)" transform="matrix(1,0,0,-1,0,777)"/>
  <path d="M-104,-4 l-33,-53 c-5,-9 4,-20 13,-15 c31,15 63,29 98,41 l109,39 l30,49 c6,10 -3,18 -12,15 c-66,-23 -142,-50 -205,-76 Z" fill="url(#gradient_38)" transform="matrix(1,0,0,-1,802,732)"/>
  <path d="M475,458 c7,38 -16,53 -60,53 h-11 c-19,0 -34,-2 -44,-5 c-11,-1 -22,-6 -31,-16 c-9,-10 -19,-24 -28,-44 l-34,-76 c-39,-12 -80,-22 -117,-35 c-52,-18 -88,-33 -117,-77 c-23,-53 -41,-123 -41,-198 c1,-75 10,-141 25,-203 c15,-62 28,-126 37,-194 c1,-13 19,-13 23,-2 c12,41 17,83 17,128 c0,23 -1,46 -4,68 l-40,253 c-1,3 -1,4 -1,6 v6 c0,11 3,18 9,24 c35,30 83,50 137,61 c88,19 170,61 221,117 c30,34 47,79 59,134 Z" fill="url(#gradient_39)" transform="matrix(1,0,0,-1,485,777)"/>
  <path d="M329,151 l66,112 c-5,64 -13,134 -22,194 l-14,106 c-1,11 -17,15 -22,5 l-65,-120 l34,-293 c1,-12 17,-13 23,-4 Z" fill="url(#gradient_40)" transform="matrix(1,0,0,-1,990,777)"/>
  <path d="M-104,-4 l-33,-53 c-5,-9 4,-20 13,-15 c31,15 63,29 98,41 l109,39 l30,49 c6,10 -3,18 -12,15 c-66,-23 -142,-50 -205,-76 Z" fill="url(#gradient_38)" transform="matrix(1,0,0,-1,1726,100)"/>
  <path d="M679,414 l20,-403 c1,-12 15,-16 22,-6 l62,93 l-15,453 c-1,11 -10,19 -23,19 h-4 c-4,0 -8,-1 -12,-3 c-36,-18 -63,-51 -81,-87 l-70,-142 c-21,-43 -57,-73 -101,-98 c-36,-22 -76,-39 -116,-56 l-20,-10 l-208,-91 c-42,-18 -90,-32 -130,-51 c-6,-4 -11,-10 -11,-17 c0,-10 7,-15 21,-15 h7 l27,2 c57,1 111,4 165,8 c56,5 106,15 149,32 c119,47 221,133 263,257 c14,42 32,79 55,115 Z" fill="url(#gradient_41)" transform="matrix(1,0,0,-1,963,777)"/>
  <path d="M501,190 l28,59 c4,11 -6,20 -16,15 c-7,-4 -14,-5 -20,-5 c-7,0 -13,3 -19,9 c-16,53 -46,123 -114,123 c-15,0 -29,-5 -42,-14 c-24,-16 -42,-36 -59,-61 c-56,-82 -126,-305 -126,-307 v-3 c0,-12 6,-18 18,-18 h3 c15,0 25,17 28,33 c13,47 65,172 77,194 c7,13 24,37 43,37 c6,0 13,-2 21,-8 c20,-17 31,-42 43,-74 l135,20 Z" fill="url(#gradient_42)" transform="matrix(1,0,0,-1,1683,766)"/>
  <path d="M520,230 c-355,-60 -415,-72 -494,-86 c-6,0 -11,-6 -12,-11 l-21,-119 c-1,-8 6,-15 14,-14 c261,62 360,80 453,109 l7,7 l53,114 Z" fill="url(#gradient_43)" transform="matrix(1,0,0,-1,1683,766)"/>
  <path d="M-104,-4 l-33,-53 c-5,-9 4,-20 13,-15 c31,15 63,29 98,41 l109,39 l30,49 c6,10 -3,18 -12,15 c-66,-23 -142,-50 -205,-76 Z" fill="url(#gradient_38)" transform="matrix(1,0,0,-1,2526,-176)"/>
  <path d="M46,110 l21,44 c4,11 -6,21 -16,16 c-25,-12 -33,-19 -53,-41 c-17,-18 -59,-64 -59,-94 c0,-16 8,-28 24,-37 c8,-5 17,-7 24,-13 c-18,-10 -40,-18 -59,-27 l-21,-9 c-12,-5 -5,-25 7,-23 c17,3 33,6 50,8 c41,7 81,39 94,73 c3,6 4,13 4,21 c0,19 -14,32 -31,39 c-7,3 -20,5 -26,9 c2,2 4,3 7,5 c14,8 27,14 34,29 Z" fill="url(#gradient_44)" transform="matrix(1,0,0,-1,2526,63)"/>
  <path d="M329,151 l66,112 c-5,64 -13,134 -22,194 l-14,106 c-1,11 -17,15 -22,5 l-65,-120 l34,-293 c1,-12 17,-13 23,-4 Z" fill="url(#gradient_40)" transform="matrix(1,0,0,-1,2241,777)"/>
  <path d="M577,211 c47,70 70,144 72,232 c-7,54 -17,102 -29,151 c-3,11 -18,13 -23,2 c-11,-24 -22,-47 -33,-70 l-24,-50 c11,-56 28,-190 37,-265 Z" fill="url(#gradient_45)" transform="matrix(1,0,0,-1,2214,777)"/>
  <path d="M647,405 c-33,-50 -81,-100 -91,-108 c-55,-48 -125,-82 -216,-123 l-208,-91 c-41,-18 -90,-32 -130,-51 c-6,-4 -12,-9 -12,-17 c0,-10 8,-16 22,-15 l33,2 c57,1 111,4 166,8 c164,14 278,84 355,186 c46,62 73,132 81,209 Z" fill="url(#gradient_46)" transform="matrix(1,0,0,-1,2214,777)"/>
  <path d="M63,564 l28,-414 c1,-12 15,-15 21,-5 l74,116 l-28,415 c-1,12 -16,14 -22,5 l-73,-117 Z" fill="url(#gradient_47)" transform="matrix(1,0,0,-1,2888,777)"/>
  <path d="" fill="#000000" transform="matrix(1,0,0,-1,3136,777)"/>
  <path d="M-104,-4 l-33,-53 c-5,-9 4,-20 13,-15 c31,15 63,29 98,41 l109,39 l30,49 c6,10 -3,18 -12,15 c-66,-23 -142,-50 -205,-76 Z" fill="url(#gradient_38)" transform="matrix(1,0,0,-1,3651,311)"/>
  <path d="M389,160 c4,22 -4,35 -23,38 c-12,3 -22,-2 -29,-12 c-11,-12 -23,-19 -37,-23 c-46,-12 -94,-22 -144,-30 c-52,-8 -100,-21 -145,-37 c-17,-8 -21,-20 -7,-33 c27,-18 133,-48 160,-54 c20,-4 37,-6 53,-6 c13,0 26,1 38,4 c31,8 56,30 75,66 c12,23 25,47 43,63 c9,5 14,13 16,24 Z" fill="url(#gradient_48)" transform="matrix(1,0,0,-1,3282,777)"/>
  <path d="M72,-29 l57,113 c6,10 -3,19 -12,17 c-60,-12 -120,-23 -183,-34 c-3,-1 -8,-3 -9,-6 l-56,-114 c-5,-10 3,-19 12,-17 c61,11 122,23 183,34 c2,1 7,5 8,7 Z" fill="url(#gradient_49)" transform="matrix(1,0,0,-1,3796,830)"/>
  <path d="M45,17 c10,10 20,17 30,24 c22,9 47,14 73,21 c8,1 16,3 24,3 c2,0 3,0 3,1 c-6,-36 11,-54 47,-49 l79,13 c5,1 10,6 10,12 l2,119 c0,7 -5,13 -13,12 c-20,-3 -38,1 -35,21 c1,15 -7,23 -23,25 c-24,3 -62,-5 -114,-21 c-54,-17 -86,-36 -97,-59 c-12,-23 -20,-49 -30,-73 c-3,-8 -11,-15 -9,-24 c-4,-19 1,-29 11,-37 c18,-14 31,-2 42,12 Z" fill="url(#gradient_50)" transform="matrix(1,0,0,-1,3598,672)"/>
  <path d="M-104,-4 l-33,-53 c-5,-9 4,-20 13,-15 c31,15 63,29 98,41 l109,39 l30,49 c6,10 -3,18 -12,15 c-66,-23 -142,-50 -205,-76 Z" fill="url(#gradient_38)" transform="matrix(1,0,0,-1,4158,-165)"/>
  <path d="M83,32 l-66,63 c-5,5 -14,3 -18,-2 c-25,-34 -52,-65 -78,-98 c-4,-5 -3,-11 1,-15 l67,-63 c5,-5 13,-4 17,1 c20,24 19,25 39,49 c13,16 27,32 40,49 c3,5 2,12 -2,16 Z" fill="url(#gradient_51)" transform="matrix(1,0,0,-1,4156,30)"/>
  <path d="M255,307 c37,0 75,-9 113,-20 c7,-2 12,2 14,7 l41,125 c3,8 -3,15 -9,16 c-42,9 -65,17 -96,17 c-16,0 -30,-5 -43,-14 l-20,-131 Z" fill="url(#gradient_52)" transform="matrix(1,0,0,-1,3862,650)"/>
  <path d="M464,265 c-26,-16 -71,-41 -126,-44 c-31,27 -56,66 -60,117 l-3,100 c-8,-5 -16,-12 -23,-21 c-40,-50 -60,-114 -60,-178 c0,-36 11,-64 25,-83 c27,-36 58,-51 93,-51 l154,160 Z" fill="url(#gradient_53)" transform="matrix(1,0,0,-1,3862,650)"/>
  <path d="M25,149 c-5,-1 -9,-5 -10,-10 l-23,-125 c-2,-9 5,-16 14,-14 c72,15 142,31 214,48 c81,18 152,46 218,82 l6,6 l7,15 c12,27 29,60 38,88 c3,7 4,12 4,15 c0,10 -5,16 -14,16 h-5 c-105,-58 -291,-105 -449,-121 Z" fill="url(#gradient_54)" transform="matrix(1,0,0,-1,3862,650)"/>
  <path d="" fill="#000000" transform="matrix(1,0,0,-1,4382,777)"/>
  <path d="M-124,-67 l7,1 c78,19 133,44 176,98 c5,-4 16,-16 23,-4 c7,13 16,23 16,41 c-1,9 -5,17 -10,22 c6,19 9,35 9,49 v5 c0,24 -13,45 -37,45 c-39,0 -78,-47 -78,-83 c0,-28 21,-42 39,-53 c-34,-29 -80,-55 -119,-80 l-22,-14 c-9,-6 -14,-11 -14,-16 c0,-6 5,-11 10,-11 Z M33,124 c2,3 5,5 9,6 c6,2 7,-6 7,-13 v-4 c-6,4 -11,7 -16,11 Z" fill="url(#gradient_55)" transform="matrix(1,0,0,-1,4897,311)"/>
  <path d="M389,160 c4,22 -4,35 -23,38 c-12,3 -22,-2 -29,-12 c-11,-12 -23,-19 -37,-23 c-46,-12 -94,-22 -144,-30 c-52,-8 -100,-21 -145,-37 c-17,-8 -21,-20 -7,-33 c27,-18 133,-48 160,-54 c20,-4 37,-6 53,-6 c13,0 26,1 38,4 c31,8 56,30 75,66 c12,23 25,47 43,63 c9,5 14,13 16,24 Z" fill="url(#gradient_48)" transform="matrix(1,0,0,-1,4528,777)"/>
  <path d="M20,-1 c12,0 21,11 28,19 c26,24 56,39 97,47 c62,12 126,31 193,56 c68,26 121,65 161,118 c20,28 54,68 54,111 v6 c0,19 -9,33 -19,45 c-15,18 -35,27 -59,27 c-41,0 -78,-17 -96,-34 c-63,-59 -118,-120 -174,-185 c-34,-7 -66,-16 -97,-29 c-33,-15 -61,-41 -82,-75 c-6,-10 -12,-23 -18,-34 c-8,-11 -16,-21 -16,-37 c0,-16 12,-35 28,-35 Z M433,271 v-1 c0,-48 -94,-34 -148,-45 c25,26 51,51 84,69 c7,4 13,5 20,5 c22,0 41,-12 44,-28 Z" fill="url(#gradient_56)" transform="matrix(1,0,0,-1,4844,672)"/>
  <path d="M0,502 l21,-314 c1,-12 15,-15 22,-5 l72,117 l-20,313 c-1,12 -15,16 -22,6 l-73,-117 Z" fill="url(#gradient_57)" transform="matrix(1,0,0,-1,5043,627)"/>
  <path d="M94,226 c0,26 10,58 29,96 c3,7 3,12 2,16 c-5,14 -24,8 -30,1 c-32,-43 -57,-88 -79,-145 c-11,-28 -21,-60 -21,-95 c0,-82 58,-99 141,-99 c20,0 40,1 62,3 c74,7 141,20 207,40 c50,13 100,32 143,53 c62,32 99,67 126,118 v-1 c12,21 17,49 24,80 c7,37 -15,53 -59,53 h-11 c-17,0 -31,-1 -44,-4 c-11,-1 -22,-6 -31,-16 c-25,-27 -44,-87 -61,-122 c-40,-12 -87,-24 -129,-32 c-44,-10 -90,-19 -139,-19 h-10 c-63,0 -120,11 -120,73 Z" fill="url(#gradient_58)" transform="matrix(1,0,0,-1,4951,847)"/>
  <path d="M-124,-67 l7,1 c78,19 133,44 176,98 c5,-4 16,-16 23,-4 c7,13 16,23 16,41 c-1,9 -5,17 -10,22 c6,19 9,35 9,49 v5 c0,24 -13,45 -37,45 c-39,0 -78,-47 -78,-83 c0,-28 21,-42 39,-53 c-34,-29 -80,-55 -119,-80 l-22,-14 c-9,-6 -14,-11 -14,-16 c0,-6 5,-11 10,-11 Z M33,124 c2,3 5,5 9,6 c6,2 7,-6 7,-13 v-4 c-6,4 -11,7 -16,11 Z" fill="url(#gradient_55)" transform="matrix(1,0,0,-1,5804,-175)"/>
  <path d="M72,-29 l57,113 c6,10 -3,19 -12,17 c-60,-12 -120,-23 -183,-34 c-3,-1 -8,-3 -9,-6 l-56,-114 c-5,-10 3,-19 12,-17 c61,11 122,23 183,34 c2,1 7,5 8,7 Z" fill="url(#gradient_49)" transform="matrix(1,0,0,-1,5769,69)"/>
  <path d="M271,151 l21,1 c11,28 22,53 36,84 c6,15 12,30 12,48 c0,18 -7,32 -22,41 c-18,11 -37,16 -56,16 c-19,0 -35,-6 -49,-13 c-69,-38 -120,-106 -157,-177 c-16,-29 -31,-59 -44,-86 c-5,-11 -35,-65 -9,-65 h17 c3,0 9,3 10,5 c17,26 34,52 53,80 v-1 c22,31 45,58 69,79 c11,10 24,18 35,23 c40,19 62,12 84,-35 Z" fill="url(#gradient_59)" transform="matrix(1,0,0,-1,5483,614)"/>
  <path d="" fill="#000000" transform="matrix(1,0,0,-1,5850,777)"/>
  <path d="M329,151 l66,112 c-5,64 -13,134 -22,194 l-14,106 c-1,11 -17,15 -22,5 l-65,-120 l34,-293 c1,-12 17,-13 23,-4 Z" fill="url(#gradient_40)" transform="matrix(1,0,0,-1,5996,777)"/>
  <path d="M-104,-4 l-33,-53 c-5,-9 4,-20 13,-15 c31,15 63,29 98,41 l109,39 l30,49 c6,10 -3,18 -12,15 c-66,-23 -142,-50 -205,-76 Z" fill="url(#gradient_38)" transform="matrix(1,0,0,-1,6592,100)"/>
  <path d="M577,211 c47,70 70,144 72,232 c-7,54 -17,102 -29,151 c-3,11 -18,13 -23,2 c-11,-24 -22,-47 -33,-70 l-24,-50 c11,-56 28,-190 37,-265 Z" fill="url(#gradient_45)" transform="matrix(1,0,0,-1,5969,777)"/>
  <path d="M647,405 c-33,-50 -81,-100 -91,-108 c-55,-48 -125,-82 -216,-123 l-208,-91 c-41,-18 -90,-32 -130,-51 c-6,-4 -12,-9 -12,-17 c0,-10 8,-16 22,-15 l33,2 c57,1 111,4 166,8 c164,14 278,84 355,186 c46,62 73,132 81,209 Z" fill="url(#gradient_46)" transform="matrix(1,0,0,-1,5969,777)"/>
  <path d="" fill="#000000" transform="matrix(1,0,0,-1,6643,777)"/>
  <path d="M130,279 c-16,27 -47,35 -91,21 c-90,-28 -152,-78 -186,-153 c-13,-22 -24,-57 -12,-87 c16,-40 55,-56 104,-24 l30,64 l-13,-8 c-6,-3 -14,-7 -23,-10 c-32,-12 -51,-10 -58,5 c-6,13 -4,20 5,41 c6,15 22,32 45,53 c40,36 77,57 110,64 c52,11 68,-4 56,-51 c-4,-16 0,-22 10,-18 c7,3 16,16 26,39 c10,23 9,44 -3,64 Z" fill="url(#gradient_60)" transform="matrix(1,0,0,-1,7083,201)"/>
  <path d="M-124,-67 l7,1 c78,19 133,44 176,98 c5,-4 16,-16 23,-4 c7,13 16,23 16,41 c-1,9 -5,17 -10,22 c6,19 9,35 9,49 v5 c0,24 -13,45 -37,45 c-39,0 -78,-47 -78,-83 c0,-28 21,-42 39,-53 c-34,-29 -80,-55 -119,-80 l-22,-14 c-9,-6 -14,-11 -14,-16 c0,-6 5,-11 10,-11 Z M33,124 c2,3 5,5 9,6 c6,2 7,-6 7,-13 v-4 c-6,4 -11,7 -16,11 Z" fill="url(#gradient_55)" transform="matrix(1,0,0,-1,7083,201)"/>
  <path d="M222,260 c34,37 58,44 99,55 l7,5 c5,8 9,13 16,23 c9,12 18,25 25,38 c8,15 16,26 16,39 c0,11 -6,17 -18,17 c-4,0 -9,-1 -14,-3 c-31,-10 -65,-32 -102,-65 c-18,-16 -34,-33 -48,-50 c-8,-10 -16,-20 -24,-30 l43,-29 Z" fill="url(#gradient_61)" transform="matrix(1,0,0,-1,6789,777)"/>
  <path d="M213,331 c-3,-4 -7,-8 -10,-12 c-26,-31 -52,-66 -63,-109 c-1,-4 -2,-8 -2,-12 c0,-17 10,-35 28,-51 v1 c15,-15 38,-23 62,-29 l-3,-1 l-37,-15 c-44,-19 -92,-38 -130,-63 c-7,-5 -19,-13 -19,-22 c0,-20 26,-18 46,-18 c41,0 88,6 112,19 c26,15 48,34 66,58 l49,68 c10,14 18,25 23,36 c5,11 8,20 8,27 v3 c0,28 -28,40 -48,49 c-31,13 -58,21 -82,71 Z" fill="url(#gradient_62)" transform="matrix(1,0,0,-1,6789,777)"/>
  <path d="M60,565 l39,-554 c0,-13 17,-14 22,-5 l61,118 l-37,553 c-1,11 -17,14 -22,4 l-63,-116 Z" fill="url(#gradient_63)" transform="matrix(1,0,0,-1,7220,777)"/>
  <path d="M-104,-4 l-33,-53 c-5,-9 4,-20 13,-15 c31,15 63,29 98,41 l109,39 l30,49 c6,10 -3,18 -12,15 c-66,-23 -142,-50 -205,-76 Z" fill="url(#gradient_38)" transform="matrix(1,0,0,-1,7608,263)"/>
  <path d="M218,258 l-34,-77 c-51,-15 -103,-26 -161,-33 c-5,-1 -9,-5 -10,-10 l-21,-124 c-1,-9 5,-16 14,-14 l38,10 l50,12 c74,18 144,43 198,82 c30,22 59,59 74,86 c8,15 16,42 24,80 c9,40 -20,53 -59,53 h-11 c-19,0 -34,-2 -44,-5 c-28,-2 -46,-35 -58,-60 Z" fill="url(#gradient_64)" transform="matrix(1,0,0,-1,7327,777)"/>
  <path d="M-104,-4 l-33,-53 c-5,-9 4,-20 13,-15 c31,15 63,29 98,41 l109,39 l30,49 c6,10 -3,18 -12,15 c-66,-23 -142,-50 -205,-76 Z" fill="url(#gradient_38)" transform="matrix(1,0,0,-1,7998,35)"/>
  <path d="M247,187 l12,-21 c10,-18 28,-28 55,-30 c21,-2 47,2 70,19 c45,33 75,94 86,157 c2,12 3,24 2,37 c0,40 -12,28 -27,4 c-8,-31 -39,-73 -81,-71 c-5,0 -9,3 -12,9 c-6,13 -17,24 -33,34 c-18,10 -35,15 -54,15 c-17,0 -35,-5 -48,-11 c-45,-21 -84,-65 -113,-105 c-34,-48 -66,-103 -90,-159 c-5,-11 -36,-65 -9,-65 h16 c3,0 10,3 11,5 c39,64 85,132 144,175 c13,8 28,16 45,16 c9,0 18,-2 26,-9 Z" fill="url(#gradient_65)" transform="matrix(1,0,0,-1,7537,580)"/>
  <path d="M390,158 c4,-3 7,-4 12,-4 c14,0 34,5 58,17 c82,37 91,124 101,211 c-13,46 -22,46 -29,-4 c-9,-33 -29,-56 -62,-66 l-80,-154 Z" fill="url(#gradient_66)" transform="matrix(1,0,0,-1,7537,580)"/>
  <path d="" fill="#000000" transform="matrix(1,0,0,-1,8127,777)"/>
  <path d="M-124,-67 l7,1 c78,19 133,44 176,98 c5,-4 16,-16 23,-4 c7,13 16,23 16,41 c-1,9 -5,17 -10,22 c6,19 9,35 9,49 v5 c0,24 -13,45 -37,45 c-39,0 -78,-47 -78,-83 c0,-28 21,-42 39,-53 c-34,-29 -80,-55 -119,-80 l-22,-14 c-9,-6 -14,-11 -14,-16 c0,-6 5,-11 10,-11 Z M33,124 c2,3 5,5 9,6 c6,2 7,-6 7,-13 v-4 c-6,4 -11,7 -16,11 Z" fill="url(#gradient_55)" transform="matrix(1,0,0,-1,8628,153)"/>
  <path d="M-10,-33 c9,-10 24,-21 42,-21 c6,0 10,1 15,3 c40,17 46,81 50,134 c0,3 1,5 1,8 c0,9 -10,15 -17,8 l-18,-16 c-1,-1 -3,-6 -3,-8 v-4 c0,-5 -1,-11 -3,-18 l1,1 c-3,-11 -9,-22 -19,-25 h-1 c-3,0 -8,3 -15,10 c-6,5 -7,14 -7,25 v6 c0,2 1,3 1,5 v6 c0,9 -10,14 -17,7 l-18,-16 c-1,-18 -7,-37 -15,-48 c-6,-8 -19,-12 -29,-12 c-2,0 -2,-1 -2,-1 c-9,3 -13,8 -15,17 v6 c0,10 1,20 3,29 l1,5 c1,3 0,2 0,4 c0,5 -3,10 -8,11 c-16,1 -22,-14 -26,-25 l1,2 c-1,-3 -2,-4 -2,-7 c0,-1 -1,-1 -1,-2 c-6,-17 -12,-37 -12,-59 v-5 c0,-35 20,-55 54,-57 h2 c23,3 46,20 57,37 Z" fill="url(#gradient_67)" transform="matrix(1,0,0,-1,8638,324)"/>
  <path d="M83,32 l-66,63 c-5,5 -14,3 -18,-2 c-25,-34 -52,-65 -78,-98 c-4,-5 -3,-11 1,-15 l67,-63 c5,-5 13,-4 17,1 c20,24 19,25 39,49 c13,16 27,32 40,49 c3,5 2,12 -2,16 Z" fill="url(#gradient_51)" transform="matrix(1,0,0,-1,8515,970)"/>
  <path d="M510,55 c4,5 8,11 12,16 c18,28 33,65 45,97 c7,19 15,32 15,54 c0,11 -4,17 -13,17 c-5,0 -10,-4 -15,-11 c-8,-19 -20,-33 -36,-41 c-15,-8 -42,-17 -83,-25 c-42,-8 -85,-13 -128,-15 h-29 c-68,0 -143,6 -175,42 c-11,14 -18,34 -18,58 v6 c2,29 14,65 37,108 c3,6 4,11 4,16 c0,11 -8,21 -22,21 c-8,0 -15,-4 -22,-13 c-12,-19 -24,-40 -35,-62 c-21,-41 -55,-101 -55,-157 c0,-74 37,-117 95,-140 c41,-15 90,-26 144,-26 h11 c104,0 199,23 268,55 Z" fill="url(#gradient_68)" transform="matrix(1,0,0,-1,8273,777)"/>
  <path d="M-124,-67 l7,1 c78,19 133,44 176,98 c5,-4 16,-16 23,-4 c7,13 16,23 16,41 c-1,9 -5,17 -10,22 c6,19 9,35 9,49 v5 c0,24 -13,45 -37,45 c-39,0 -78,-47 -78,-83 c0,-28 21,-42 39,-53 c-34,-29 -80,-55 -119,-80 l-22,-14 c-9,-6 -14,-11 -14,-16 c0,-6 5,-11 10,-11 Z M33,124 c2,3 5,5 9,6 c6,2 7,-6 7,-13 v-4 c-6,4 -11,7 -16,11 Z" fill="url(#gradient_55)" transform="matrix(1,0,0,-1,8941,171)"/>
  <path d="M31,149 l-2,-1 c-5,0 -11,-4 -12,-9 l-25,-125 c-2,-9 5,-16 14,-14 l23,5 c103,26 186,56 250,88 c64,32 109,66 134,102 l8,13 c20,32 39,62 55,98 c5,12 14,28 14,44 c0,6 -1,12 -4,17 c-17,31 -66,39 -110,46 c-35,5 -67,10 -100,8 c-4,0 -9,-3 -10,-6 l-18,-36 h1 c-9,-19 -10,-18 -19,-36 c-6,-13 -39,-68 -6,-72 c7,-2 16,-2 26,-3 c36,-3 80,-4 111,-10 c8,-2 12,-4 16,-6 c-93,-54 -210,-85 -346,-103 Z" fill="url(#gradient_69)" transform="matrix(1,0,0,-1,8765,751)"/>
  <path d="M162,119 c8,31 12,62 12,93 v15 l-16,280 c-1,12 -16,15 -22,6 l-74,-117 l10,-157 c3,-54 5,-107 6,-163 l84,43 Z" fill="url(#gradient_70)" transform="matrix(1,0,0,-1,9053,394)"/>
  <path d="M163,127 c-89,-38 -129,-56 -158,-64 c-2,0 -6,-5 -7,-6 l-7,-16 c-4,-8 2,-15 8,-17 l94,-24 c5,-2 10,2 12,5 c29,38 49,78 58,122 Z" fill="url(#gradient_71)" transform="matrix(1,0,0,-1,9053,394)"/>
  <path d="M63,564 l28,-414 c1,-12 15,-15 21,-5 l74,116 l-28,415 c-1,12 -16,14 -22,5 l-73,-117 Z" fill="url(#gradient_47)" transform="matrix(1,0,0,-1,9278,777)"/>
  <path d="M256,195 c40,-19 56,-51 56,-104 c0,-41 -27,-65 -68,-65 c-14,0 -27,4 -41,13 c-15,9 -28,15 -36,15 c-12,0 -26,-3 -30,-15 l13,-21 c8,4 8,4 10,4 c11,0 19,-21 29,-33 c19,-27 41,-42 65,-42 c12,0 22,3 30,7 v-10 c0,-29 19,-47 54,-82 c7,-7 17,-16 29,-27 l27,-26 c7,-7 12,-12 16,-17 c-9,-6 -13,-14 -13,-24 c0,-18 12,-28 30,-28 c18,0 29,11 29,29 c0,11 -7,26 -19,44 c-17,22 -27,41 -34,54 c-30,55 -45,105 -45,181 c0,68 -19,126 -53,148 c34,21 53,79 53,147 c0,76 15,126 45,181 c7,13 17,32 34,54 c12,18 19,33 19,44 c0,18 -11,29 -29,29 c-18,0 -30,-10 -30,-28 c0,-10 4,-18 13,-24 c-4,-5 -9,-10 -16,-17 l-27,-26 c-12,-11 -22,-20 -29,-27 c-35,-35 -54,-53 -54,-82 v-10 c-8,4 -18,7 -30,7 c-24,0 -46,-15 -65,-42 c-10,-12 -18,-33 -29,-33 c-2,0 -2,0 -10,4 l-13,-21 c4,-12 18,-15 30,-15 c8,0 21,6 36,15 c14,9 27,13 41,13 c41,0 68,-24 68,-65 c0,-55 -16,-80 -56,-105 Z" fill="url(#gradient_36)" transform="matrix(-1,0,0,1,10011,385)"/>
  <path d="M302,159 c-1,26 -9,36 -46,36 c25,-1 46,8 46,38 c0,21 -15,36 -39,43 c-23,6 -33,17 -33,35 c0,9 3,17 7,30 l-22,11 c-29,-26 -47,-54 -52,-85 c-6,3 -14,5 -22,5 c-36,0 -60,-25 -81,-50 c-12,-14 -21,-21 -34,-25 l12,-31 c12,7 15,8 21,8 c3,0 5,-2 10,-8 l20,-21 c15,-15 34,-23 52,-23 c8,0 16,1 22,4 c5,-32 23,-61 52,-87 l22,11 c-4,12 -7,22 -7,31 c0,18 9,28 33,34 c24,7 40,23 39,44 Z M197,196 c-6,-5 -13,-12 -18,-20 c-16,5 -21,10 -21,20 c0,10 5,15 21,20 c5,-8 12,-15 18,-20 Z" fill="url(#gradient_37)" transform="matrix(-1,0,0,1,10011,385)"/>
</svg>
